<?xml version="1.0" encoding="UTF-8" standalone="no"?>
<svg
   xmlns:dc="http://purl.org/dc/elements/1.1/"
   xmlns:cc="http://creativecommons.org/ns#"
   xmlns:rdf="http://www.w3.org/1999/02/22-rdf-syntax-ns#"
   xmlns:svg="http://www.w3.org/2000/svg"
   xmlns="http://www.w3.org/2000/svg"
   xmlns:sodipodi="http://sodipodi.sourceforge.net/DTD/sodipodi-0.dtd"
   xmlns:inkscape="http://www.inkscape.org/namespaces/inkscape"
   version="1.1"
   id="svg833"
   width="50.794811"
   height="51.907997"
   viewBox="0 0 50.794812 51.907997"
   sodipodi:docname="email-symbole-3.svg"
   inkscape:version="1.0.1 (c497b03c, 2020-09-10)">
  <metadata
     id="metadata839">
    <rdf:RDF>
      <cc:Work
         rdf:about="">
        <dc:format>image/svg+xml</dc:format>
        <dc:type
           rdf:resource="http://purl.org/dc/dcmitype/StillImage" />
        <dc:title></dc:title>
      </cc:Work>
    </rdf:RDF>
  </metadata>
  <defs
     id="defs837" />
  <sodipodi:namedview
     pagecolor="#ffffff"
     bordercolor="#666666"
     borderopacity="1"
     objecttolerance="10"
     gridtolerance="10"
     guidetolerance="10"
     inkscape:pageopacity="0"
     inkscape:pageshadow="2"
     inkscape:window-width="1920"
     inkscape:window-height="949"
     id="namedview835"
     showgrid="false"
     inkscape:zoom="0.72608696"
     inkscape:cx="-286.88779"
     inkscape:cy="24.457957"
     inkscape:window-x="1440"
     inkscape:window-y="25"
     inkscape:window-maximized="0"
     inkscape:current-layer="g841"
     inkscape:document-rotation="0" />
  <g
     inkscape:groupmode="layer"
     inkscape:label="Image"
     id="g841"
     transform="translate(-434.60589,-230.51169)">
    <g
       id="g19"
       transform="matrix(0.11159271,0,0,0.11159271,408.67028,227.84599)">
      <g
         id="g22">
        <path
           style="fill:#176da9;fill-opacity:1;stroke:#176da9;stroke-width:2.75449;stroke-linecap:round;stroke-linejoin:round;stroke-miterlimit:9"
           d="m 437.96407,486.58667 c -3.40868,-0.49328 -7.12724,-0.75991 -8.26347,-0.59252 -1.13623,0.16737 -2.4614,-0.30705 -2.94483,-1.0543 -0.50977,-0.78798 -1.66668,-0.8651 -2.75449,-0.1836 -2.65142,1.66108 -7.07973,0.74976 -9.10607,-1.87398 -1.00241,-1.29795 -1.72156,-1.54383 -1.72156,-0.58862 0,2.17747 -3.71194,2.112 -4.59686,-0.0811 -0.53424,-1.32401 -0.71977,-1.30524 -0.80339,0.0813 -0.0598,0.99156 -0.76216,1.39899 -1.56081,0.9054 -0.9599,-0.59326 -0.68921,-2.06173 0.79867,-4.33251 1.23791,-1.88929 1.97952,-3.7063 1.64803,-4.03779 -0.3315,-0.33151 -6.1138,-2.47913 -12.84956,-4.77252 -25.14407,-8.56094 -43.35203,-17.25911 -61.13907,-29.20686 -50.89717,-34.18816 -84.31982,-83.78631 -97.18589,-144.22077 -3.24551,-15.24481 -3.66836,-20.28994 -3.69377,-44.07185 -0.028,-26.22898 0.80668,-33.90214 5.99277,-55.08982 7.48903,-30.5963 24.53615,-64.70518 44.37508,-88.78831 22.97081,-27.885021 54.8195,-51.883399 87.00881,-65.562211 43.41452,-18.448945 94.38044,-22.836791 139.79042,-12.035079 41.46786,9.863993 75.4416,28.298424 107.25607,58.198024 26.0798,24.510086 53.33,70.572296 60.74422,102.678586 6.78158,29.36673 7.29242,33.63289 7.25631,60.59881 -0.032,23.90391 -0.44393,28.74884 -3.74717,44.07185 -2.04116,9.46857 -4.93938,20.93413 -6.44048,25.47904 -3.54054,10.71975 -14.85431,36.55919 -17.23372,39.35995 -1.01597,1.19587 -1.8472,2.62286 -1.8472,3.1711 0,1.33194 -15.2076,24.13859 -16.71832,25.07226 -2.01445,1.245 -1.33152,-0.63091 2.35666,-6.47337 5.42747,-8.59766 3.22197,-7.68291 -4.545,1.88508 -9.87995,12.17095 -33.64128,34.95187 -45.82388,43.93318 -35.46431,26.14512 -71.69666,40.20483 -114.71871,44.51577 -9.6926,0.97123 -18.00772,2.15068 -18.47805,2.62101 -1.94485,1.94485 22.41846,0.65557 36.96733,-1.95627 8.61331,-1.54627 17.82973,-3.12803 20.48093,-3.51499 l 4.82036,-0.70358 -4.2742,2.48206 c -2.80892,1.63115 -4.19292,3.45354 -4.03711,5.31583 0.13043,1.55859 -0.58021,3.59725 -1.57911,4.53036 -1.44149,1.34656 -1.82481,1.33021 -1.85805,-0.0793 -0.0244,-1.03331 -0.643,-0.74282 -1.47947,0.69468 -0.9444,1.62302 -2.34746,2.18176 -4.08985,1.62875 -1.45875,-0.46295 -2.65227,-0.24909 -2.65227,0.47527 0,1.65531 -4.50102,1.37795 -5.74832,-0.35423 -0.55643,-0.7727 -1.71003,-0.63963 -2.88122,0.33237 -1.07429,0.89158 -2.36104,1.21325 -2.85946,0.71483 -0.49841,-0.49842 -0.90621,-0.10728 -0.90621,0.86921 0,1.23231 -0.52664,1.35663 -1.72156,0.40641 -0.94686,-0.75295 -2.96108,-1.09221 -4.47605,-0.75392 -4.6202,1.03173 -38.16164,1.26137 -44.76048,0.30646 z m -25.64216,-8.92168 c 0.47031,-1.22564 0.23943,-1.77846 -0.54127,-1.29596 -0.74881,0.46278 -1.36148,1.42463 -1.36148,2.1374 0,1.98108 0.98717,1.54453 1.90275,-0.84144 z m 96.05259,-0.98436 c -1.3602,-1.35005 -1.51839,-1.19186 -0.77099,0.77099 0.5172,1.35826 1.2873,2.12263 1.71134,1.69859 0.42404,-0.42404 8.8e-4,-1.53534 -0.94035,-2.46958 z M 456.55689,397.8804 c 10.15309,-1.83472 25.20875,-6.23393 36.15269,-10.56372 2.58822,-1.02398 4.47605,-2.75357 4.47605,-4.10086 0,-3.46871 -5.70441,-17.7248 -7.09237,-17.7248 -1.19764,0 -12.07447,4.57784 -16.68268,7.0214 -9.90918,5.25448 -47.52435,7.14097 -65.78677,3.29935 -41.02218,-8.62929 -68.26557,-36.38337 -75.60843,-77.02579 -3.92799,-21.74121 0.65122,-51.09291 11.67663,-74.84459 1.85562,-3.9975 3.37386,-7.5502 3.37386,-7.8949 0,-1.41568 11.80686,-19.79659 17.24237,-26.8429 16.68688,-21.63199 45.51203,-43.0186 69.81688,-51.80012 18.34734,-6.62903 26.17443,-7.92277 47.91081,-7.91921 18.23478,0.003 22.75296,0.44939 30.98802,3.06163 37.68255,11.95322 65.00724,40.08467 71.61759,73.73212 3.11958,15.87892 3.44131,20.96294 2.0307,32.08868 -1.97226,15.55558 -5.30707,27.68855 -9.95695,36.22612 -12.87672,23.64271 -32.13223,39.27536 -50.41999,40.93363 -7.04226,0.63857 -8.35473,0.33381 -11.96776,-2.77893 -6.02129,-5.18751 -5.71612,-10.77859 2.83424,-51.92715 1.0231,-4.92365 2.56976,-12.98054 3.43702,-17.90419 0.86727,-4.92366 2.42431,-12.98054 3.4601,-17.90419 1.03577,-4.92366 2.16371,-10.5015 2.50649,-12.39521 0.34279,-1.89372 1.86869,-9.64072 3.39086,-17.21557 1.52217,-7.57485 3.0993,-16.09656 3.50472,-18.93713 l 0.73711,-5.16467 -22.29365,-0.34431 c -46.75567,-0.72212 -50.17497,-0.35771 -65.67689,6.99933 -29.41486,13.95995 -52.9842,48.00323 -64.6651,93.40154 -0.80879,3.14337 -1.50448,12.85797 -1.54596,21.588 -0.0682,14.3541 0.26986,16.60268 3.53353,23.50153 6.25785,13.22799 18.91235,21.53198 32.74221,21.48572 12.55294,-0.042 29.24761,-8.82495 43.06322,-22.65528 9.52673,-9.53689 23.80814,-29.33865 26.76098,-37.10522 2.37477,-6.24612 3.32752,-3.03835 1.06002,3.56896 -6.13505,17.87717 -8.62092,30.55782 -7.33462,37.41445 3.80898,20.30358 37.64072,24.79459 70.17878,9.31592 19.92525,-9.47865 34.14939,-24.38576 45.49515,-47.67962 10.00902,-20.5494 13.48448,-35.14465 13.37498,-56.1686 -0.13941,-26.77114 -7.24242,-48.41057 -22.92759,-69.84936 -13.33124,-18.2214 -33.90965,-33.41102 -55.035,-40.62322 -17.07292,-5.82869 -23.29489,-6.71406 -46.82634,-6.66327 -20.87405,0.0451 -24.85382,0.44217 -36.69726,3.66176 -48.40957,13.15996 -83.07725,38.13216 -109.3171,78.74449 -11.54873,17.87437 -20.10395,37.80069 -25.72198,59.91018 -4.00511,15.76187 -4.38421,50.08541 -0.69213,62.66467 14.11713,48.09835 44.70915,76.55803 91.8596,85.45672 12.47812,2.35499 39.8757,2.33257 53.02396,-0.0434 z M 258.74351,180.75036 c 7.23421,-19.55349 20.30134,-42.93183 32.99535,-59.0318 4.96685,-6.29952 28.31666,-29.944006 34.86817,-35.308205 11.07159,-9.065123 39.94204,-25.898044 52.82411,-30.799107 1.51497,-0.57638 5.23353,-2.010769 8.26347,-3.18753 6.03555,-2.34407 16.93844,-5.674571 23.41317,-7.152006 10.25036,-2.338974 40.84772,-6.138505 49.62197,-6.161979 8.6141,-0.02304 36.20683,2.738854 48.64234,4.868864 7.87784,1.34935 3.59721,-1.834828 -6.51531,-4.846467 -31.20189,-9.292327 -67.04271,-10.218435 -99.32385,-2.566477 -39.34041,9.325301 -68.44061,25.941826 -97.8953,55.899272 -23.54356,23.945415 -38.44536,47.908905 -48.12694,77.392595 -5.00935,15.2552 -7.17593,27.33615 -4.32162,24.09757 0.63423,-0.71961 3.13372,-6.66174 5.55444,-13.20473 z"
           id="path845" />
      </g>
      <path
         style="fill:#176da9;fill-opacity:1;stroke:#176da9;stroke-width:2.75528;stroke-linecap:round;stroke-linejoin:round;stroke-miterlimit:9;stroke-dasharray:none"
         d="m 419.0537,311.48671 c -4.7228,-2.27921 -9.1691,-12.8451 -9.77019,-23.21723 -1.2857,-22.18553 12.65292,-64.99217 25.68772,-78.88904 6.36582,-6.78683 14.60678,-11.64217 24.01548,-14.14924 8.17346,-2.17791 10.24681,-2.2349 20.54608,-0.56471 15.70099,2.54617 20.88591,4.8168 19.92804,8.72706 -0.40764,1.66409 -2.00876,9.28523 -3.55805,16.93588 -3.04731,15.04819 -4.89222,19.92856 -11.14152,29.47297 -2.23187,3.40868 -4.47655,7.05666 -4.98817,8.10661 -3.66844,7.52842 -21.40698,30.43234 -30.93451,39.94248 -8.27382,8.25872 -19.07296,15.3235 -23.25133,15.21099 -1.90383,-0.0513 -4.84392,-0.76037 -6.53355,-1.57577 z"
         id="path847" />
    </g>
  </g>
</svg>
