<?xml version="1.0" encoding="UTF-8" standalone="no"?>
<svg
   xmlns:dc="http://purl.org/dc/elements/1.1/"
   xmlns:cc="http://creativecommons.org/ns#"
   xmlns:rdf="http://www.w3.org/1999/02/22-rdf-syntax-ns#"
   xmlns:svg="http://www.w3.org/2000/svg"
   xmlns="http://www.w3.org/2000/svg"
   xmlns:sodipodi="http://sodipodi.sourceforge.net/DTD/sodipodi-0.dtd"
   xmlns:inkscape="http://www.inkscape.org/namespaces/inkscape"
   version="1.1"
   id="svg885"
   width="55.100716"
   height="55.66"
   viewBox="0 0 55.100716 55.66"
   sodipodi:docname="1-gcp-training.svg"
   inkscape:version="0.92.3 (2405546, 2018-03-11)">
  <metadata
     id="metadata891">
    <rdf:RDF>
      <cc:Work
         rdf:about="">
        <dc:format>image/svg+xml</dc:format>
        <dc:type
           rdf:resource="http://purl.org/dc/dcmitype/StillImage" />
        <dc:title />
      </cc:Work>
    </rdf:RDF>
  </metadata>
  <defs
     id="defs889" />
  <sodipodi:namedview
     pagecolor="#ffffff"
     bordercolor="#666666"
     borderopacity="1"
     objecttolerance="10"
     gridtolerance="10"
     guidetolerance="10"
     inkscape:pageopacity="0"
     inkscape:pageshadow="2"
     inkscape:window-width="1600"
     inkscape:window-height="843"
     id="namedview887"
     showgrid="false"
     inkscape:zoom="1.6967742"
     inkscape:cx="176.04769"
     inkscape:cy="158.66761"
     inkscape:window-x="0"
     inkscape:window-y="27"
     inkscape:window-maximized="0"
     inkscape:current-layer="g893"
     inkscape:document-rotation="0" />
  <g
     inkscape:groupmode="layer"
     inkscape:label="Image"
     id="g893"
     transform="translate(-7.8306349,-7.7582589)">
    <path
       style="fill:#356173;fill-opacity:1;stroke:#176da9;stroke-width:0.17568;stroke-opacity:0.78947401"
       d="m 53.473789,25.345142 c -0.02154,-0.19562 -0.03515,-3.716771 -0.03028,-7.824781 0.0048,-4.108017 -0.03296,-7.6769395 -0.08405,-7.9309468 L 53.266575,9.1275833 35.251804,9.0908986 17.237034,9.0542139 35.345078,9.0192298 c 14.381203,-0.027777 18.122047,0.00162 18.176077,0.1428194 0.03742,0.09781 0.05085,3.8590388 0.02988,8.3582958 -0.02097,4.499248 -0.05572,8.0204 -0.07726,7.82478 z"
       id="path1458"
       inkscape:connector-curvature="0" />
    <path
       style="fill:#356173;fill-opacity:1;stroke:#176da9;stroke-width:0.17568;stroke-opacity:0.78947401"
       d="m 27.059685,62.942641 c -0.370376,-0.370386 -0.386264,-0.444687 -0.357362,-1.671333 0.0166,-0.70604 0.02243,-1.363733 0.01288,-1.461543 -0.01345,-0.137499 -0.898276,-0.177836 -3.901292,-0.177836 -2.831127,0 -3.930187,-0.04624 -4.054631,-0.170725 -0.286706,-0.2867 -0.219685,-3.482256 0.101818,-4.854613 0.634002,-2.706337 0.883327,-3.953464 0.837062,-4.187024 -0.04309,-0.217565 -0.234878,-0.248516 -1.539727,-0.248516 -0.819773,0 -3.331079,-0.01603 -5.580688,-0.03555 -3.874927,-0.03369 -4.1051807,-0.05053 -4.3747347,-0.320103 -0.2712059,-0.2712 -0.2845354,-0.474229 -0.2845354,-4.332256 0,-4.099021 0.046078,-4.56465 0.5986128,-6.05337 0.5280863,-1.422751 2.0403693,-3.22696 3.4915843,-4.165571 0.332549,-0.215087 0.604637,-0.429803 0.604637,-0.477136 0,-0.04737 -0.236521,-0.475435 -0.525608,-0.951325 -1.848962,-3.043747 -0.348802,-6.820769 3.115298,-7.843519 l 0.611334,-0.1805 0.03669,-8.723856 c 0.03304,-7.8691337 0.0596,-8.7492352 0.271011,-8.9828108 0.224399,-0.2479581 1.039515,-0.2589553 19.196982,-0.2589553 h 18.962639 l 0.211442,0.3018837 c 0.18096,0.258356 0.21354,1.5300853 0.225946,8.8207014 0.0081,4.685345 0.04786,8.605695 0.08859,8.711894 0.04073,0.106192 0.342834,0.270269 0.671293,0.364613 1.55675,0.447149 2.633597,1.344718 3.3628,2.80294 0.422616,0.845126 0.490486,1.123937 0.497937,2.045518 0.0048,0.586858 -0.08417,1.355108 -0.197594,1.707225 -0.217937,0.676578 -0.748719,1.621173 -0.997291,1.774796 -0.332752,0.205653 -0.10777,0.593077 0.5804,0.999444 0.397529,0.234742 1.043353,0.755673 1.435173,1.157626 0.733147,0.752102 1.957711,2.654889 1.960561,3.04642 8.1e-4,0.121278 0.05814,0.281339 0.127287,0.355672 0.334241,0.359421 0.50746,2.165152 0.550072,5.734203 l 0.04478,3.749553 -0.36759,0.340674 c -0.364747,0.338041 -0.394767,0.340948 -3.881395,0.376241 -1.932583,0.01951 -4.416859,0.01336 -5.520608,-0.01377 -1.79881,-0.04422 -2.016617,-0.02381 -2.101315,0.196916 -0.08856,0.230805 0.256767,2.024033 0.908949,4.719964 0.363856,1.504106 0.398046,4.030826 0.05911,4.36975 -0.192119,0.192138 -0.76013,0.223574 -4.039211,0.223574 h -3.815646 l -0.07904,0.320106 c -0.04348,0.176054 -0.0796,0.859725 -0.08042,1.519258 -0.0025,1.961499 0.837046,1.782156 -8.534613,1.823725 l -7.944042,0.03523 z m 15.066756,-1.509807 c 0.238028,-0.09135 0.211158,-7.131422 -0.0281,-7.370724 -0.09781,-0.09781 -0.178467,-0.309083 -0.179228,-0.469492 -0.0048,-1.084563 -1.903252,-3.353203 -3.430783,-4.100559 -0.935981,-0.457935 -1.043629,-0.464778 -2.289378,-0.145524 -0.801844,0.205492 -1.034778,0.216245 -1.447936,0.06681 -0.853209,-0.308524 -1.908774,-0.376039 -2.186807,-0.139871 -0.135733,0.115294 -0.498018,0.324688 -0.805075,0.46532 -1.303019,0.596772 -2.854277,2.680075 -3.189289,4.283149 -0.08287,0.396568 -0.160933,2.22116 -0.173477,4.054668 l -0.02276,3.333637 0.762647,0.07111 c 0.900738,0.08402 12.760292,0.03968 12.990246,-0.04859 z M 26.598553,58.495941 c 0.06276,-0.0016 0.09479,-0.338276 0.0711,-0.749072 l -0.043,-0.746911 -3.333493,-0.03822 c -2.149264,-0.0247 -3.385571,0.01384 -3.480084,0.108338 -0.127068,0.127068 -0.139028,1.223205 -0.01555,1.423481 0.03264,0.05296 4.053828,0.05442 6.800985,0.0025 z M 50.896345,57.84003 c 0.05264,-0.436605 0.026,-0.737477 -0.0711,-0.803776 -0.08539,-0.05831 -1.65975,-0.09029 -3.498556,-0.07111 l -3.3433,0.03482 -0.0183,0.569075 c -0.03337,1.037125 -0.175858,0.997428 3.525443,0.982341 l 3.321733,-0.01352 0.08413,-0.697811 z m -24.22358,-2.674082 c 0.07143,-0.04413 0.179867,-0.417784 0.241032,-0.830338 0.06114,-0.412562 0.121116,-0.814126 0.133222,-0.892379 0.03822,-0.246921 0.351159,-0.970428 0.738459,-1.707224 0.581437,-1.106113 1.52422,-2.228253 2.330816,-2.77424 0.404582,-0.273865 0.887878,-0.637659 1.073972,-0.808434 L 31.52863,47.84285 31.032442,47.105511 c -0.272906,-0.405532 -0.534508,-0.890022 -0.581347,-1.076628 -0.0468,-0.186614 -0.142235,-0.339297 -0.212001,-0.339297 -0.176175,0 -0.161306,-2.949558 0.01547,-3.058786 0.07823,-0.04835 0.142268,-0.180832 0.142268,-0.294385 0,-0.244104 0.907313,-1.574755 1.351373,-1.981907 1.063582,-0.975198 2.171364,-1.403024 3.634272,-1.403575 1.026332,-4.78e-4 2.410348,0.376452 2.411741,0.656656 2.44e-4,0.05871 0.08965,0.106702 0.19855,0.106702 0.264249,0 1.651473,1.255921 1.651473,1.49515 0,0.103599 0.05151,0.20971 0.114427,0.235794 0.06292,0.02608 0.294511,0.474618 0.51461,0.996748 0.33915,0.804546 0.391609,1.097472 0.343951,1.920636 -0.05831,1.006675 -0.419636,1.972222 -1.065412,2.846865 -0.183916,0.249083 -0.334379,0.547096 -0.334379,0.66226 0,0.115156 0.303315,0.387133 0.674039,0.604391 1.898741,1.112746 3.826659,4.089174 3.902514,6.024913 0.01272,0.324834 0.08058,0.626102 0.150738,0.669476 0.09327,0.05766 4.976399,0.102142 6.134947,0.05588 0.190565,-0.0073 0.02883,-1.072733 -0.432836,-2.85021 -0.233711,-0.899845 -0.504431,-2.020219 -0.601609,-2.489702 -0.09718,-0.469484 -0.240012,-1.109693 -0.317397,-1.422688 -0.243762,-0.985912 -0.36823,-1.531972 -0.61613,-2.703105 -0.298666,-1.410977 -0.403083,-1.875926 -0.862643,-3.841256 -0.201271,-0.860731 -0.422819,-1.872153 -0.492333,-2.2476 -0.06949,-0.375448 -0.252451,-1.207721 -0.406526,-1.849493 -0.154074,-0.641773 -0.385478,-1.647015 -0.514222,-2.233873 -0.128744,-0.586859 -0.272567,-1.227068 -0.319601,-1.422688 -0.04705,-0.195619 -0.07393,-0.428418 -0.05984,-0.517319 0.01409,-0.08891 -0.07248,-0.199321 -0.192443,-0.245359 -0.425645,-0.16334 -19.716606,-0.115642 -19.915269,0.04924 -0.102894,0.08539 -0.220131,0.392883 -0.26054,0.683316 -0.06495,0.466706 -0.203992,1.152321 -0.655414,3.231163 -0.06794,0.312995 -0.231047,0.953204 -0.36239,1.422688 -0.131344,0.469491 -0.298651,1.173717 -0.371785,1.564964 -0.169801,0.908307 -0.459949,2.237266 -0.823109,3.770121 -0.157573,0.665103 -0.515785,2.265627 -0.796021,3.556719 -0.280235,1.291091 -0.566187,2.57151 -0.635442,2.845374 -0.06924,0.273864 -0.233672,0.978097 -0.365355,1.564955 -0.131691,0.586859 -0.293079,1.227068 -0.358641,1.422696 -0.0656,0.19562 -0.15916,0.655709 -0.208001,1.022419 l -0.0888,0.666747 0.540874,0.04462 c 0.879861,0.07256 5.567423,0.0048 5.708581,-0.08219 z m -6.916942,-6.772114 c 0.499379,-8.1e-4 0.53135,-0.02916 0.608873,-0.53465 0.04503,-0.29343 0.13566,-0.725572 0.201473,-0.960314 0.06583,-0.234742 0.295064,-1.195056 0.509445,-2.134031 0.214389,-0.938975 0.443136,-1.931301 0.508327,-2.205165 0.4269,-1.793455 0.564455,-2.466445 0.646075,-3.160944 l 0.09223,-0.784746 -0.906535,-0.919532 c -1.175539,-1.192391 -2.291663,-1.747051 -3.236769,-1.608515 -0.845848,0.123982 -2.604217,0.123634 -3.457418,-7.22e-4 -0.584563,-0.08518 -0.775435,-0.03887 -1.560953,0.378874 -1.669686,0.887924 -3.063987,2.690869 -3.4216647,4.424502 -0.2034247,0.985969 -0.314701,7.190135 -0.1328902,7.409287 0.1008621,0.121586 1.4047079,0.156716 4.8801919,0.13149 2.608404,-0.01894 4.979727,-0.0349 5.269615,-0.03555 z m 36.569273,4.85e-4 4.659267,-0.0016 -8.1e-4,-3.592285 c -4.86e-4,-2.043089 -0.06503,-3.837709 -0.149791,-4.161369 -0.275425,-1.051968 -0.95995,-2.183081 -1.859271,-3.072285 -0.486275,-0.480862 -1.653449,-1.266911 -1.881127,-1.266911 -0.0978,0 -0.24909,-0.07127 -0.336201,-0.158392 -0.09851,-0.09851 -0.391634,-0.123692 -0.775363,-0.06665 -1.599969,0.237998 -1.975495,0.2474 -3.072182,0.07693 l -1.174802,-0.182639 -0.797163,0.414336 c -0.43844,0.227882 -1.206198,0.78813 -1.706127,1.24498 -0.833572,0.761763 -0.908957,0.87892 -0.908957,1.412589 0,0.320064 0.06033,0.778551 0.134153,1.018848 0.07377,0.240297 0.230513,0.853045 0.348292,1.361651 0.117779,0.508614 0.311981,1.340887 0.431566,1.849501 0.337594,1.435847 0.955383,4.301394 1.008993,4.680146 0.06519,0.460737 0.327827,0.60861 0.92235,0.519384 0.273871,-0.04106 2.594613,-0.07548 5.157213,-0.07628 z M 37.340309,47.202811 c 0.840535,-0.58281 1.308817,-1.266183 1.536528,-2.242295 0.543707,-2.330679 -1.145252,-4.38368 -3.611955,-4.390482 -1.448258,-0.0041 -2.566576,0.727304 -3.179538,2.079181 -0.64896,1.431256 -0.475757,2.742584 0.510205,3.862708 0.832381,0.945624 1.451668,1.18567 2.935364,1.137785 1.078168,-0.03482 1.290825,-0.08732 1.809396,-0.446897 z M 23.006642,36.299906 c 0.06017,-0.117375 0.214405,-0.789596 0.342728,-1.493821 0.31509,-1.729292 0.529715,-2.497996 0.806565,-2.888862 0.211579,-0.298701 0.329431,-0.325449 1.318843,-0.29926 0.597584,0.01579 1.130723,-0.01546 1.184754,-0.06949 0.136526,-0.136527 0.07904,-1.240025 -0.07248,-1.391557 -0.06827,-0.06827 -1.175619,-0.106483 -2.460783,-0.08492 l -2.336663,0.0392 -0.02939,0.939307 c -0.03159,1.010612 -0.3859,2.088074 -0.968649,2.945678 -0.488381,0.718714 -0.44704,0.941268 0.251107,1.351797 0.332549,0.195554 0.796701,0.552991 1.031441,0.794309 0.449251,0.461839 0.750436,0.512736 0.932522,0.157606 z m 25.458154,-0.09546 c 0.195618,-0.206293 0.691774,-0.598374 1.102576,-0.871299 0.751512,-0.499277 0.928383,-0.822029 0.533503,-0.973554 -0.117374,-0.04503 -0.213402,-0.1679 -0.213402,-0.273006 0,-0.105114 -0.08017,-0.242313 -0.178061,-0.304888 -0.430998,-0.27537 -0.817812,-1.549197 -0.817812,-2.693129 0,-1.088313 0.14813,-1.028152 -2.662783,-1.081349 -1.953128,-0.03693 -2.02827,-0.02761 -2.188613,0.272479 -0.09133,0.170912 -0.131489,0.442938 -0.08924,0.604497 0.04227,0.161558 0.01198,0.333823 -0.06729,0.3828 -0.252977,0.156352 0.21013,0.333491 0.882152,0.337418 1.326739,0.0081 1.660397,0.130203 1.887687,0.692694 0.345441,0.854901 0.530864,1.513128 0.530864,1.884543 0,0.306354 0.314531,1.715663 0.496577,2.224948 0.10053,0.281266 0.39824,0.20448 0.783832,-0.202154 z m -30.419077,-1.87766 c 0.685247,-0.314128 1.390682,-0.997282 1.73418,-1.679416 0.125018,-0.248273 0.268663,-0.89633 0.319203,-1.440122 0.08356,-0.899052 0.05725,-1.051637 -0.289864,-1.682614 -0.527106,-0.958088 -0.775905,-1.23055 -1.434079,-1.570455 -1.368015,-0.706501 -2.411134,-0.747332 -3.556701,-0.139208 -1.295189,0.687543 -1.921213,1.747894 -1.919278,3.250826 8.1e-4,0.887543 0.06203,1.142976 0.422325,1.771152 0.948994,1.654643 2.972568,2.292803 4.724214,1.489837 z m 37.660988,0.01126 c 0.974981,-0.45383 1.858267,-1.661309 2.051334,-2.80422 0.0955,-0.565342 -0.152334,-1.872241 -0.442635,-2.334169 -0.68387,-1.088184 -1.97556,-1.794531 -3.237943,-1.770625 -3.114997,0.05895 -4.764283,3.769935 -2.678485,6.026677 0.611174,0.661257 1.059316,0.932643 1.86273,1.128011 0.674063,0.163907 1.81035,0.04972 2.444999,-0.245674 z M 42.24324,29.707604 c -0.02033,-2.294512 -0.27268,-3.219972 -1.267233,-4.647008 -1.121492,-1.609189 -3.655394,-3.025713 -4.285427,-2.395675 -0.230424,0.230425 -2.129043,0.224732 -2.835742,-0.0085 -0.508569,-0.167842 -0.660474,-0.161947 -1.207113,0.0468 -1.204935,0.46017 -2.888688,1.963475 -3.480085,3.107131 -0.326475,0.631326 -0.605261,1.649647 -0.690566,2.522412 -0.08723,0.892491 -0.205207,3.113715 -0.167939,3.162021 0.06988,0.09059 13.702256,0.165721 13.816075,0.07612 0.07345,-0.05782 0.12659,-0.896338 0.11803,-1.863349 z M 26.743688,28.703001 c 0.04195,-0.109374 0.121108,-0.653547 0.175867,-1.209284 0.05474,-0.555746 0.143085,-1.010434 0.196265,-1.010434 0.0532,0 0.284998,-0.454809 0.51513,-1.010685 0.321398,-0.776347 0.649315,-1.247815 1.414288,-2.033443 0.976049,-1.0024 1.601539,-1.506576 2.098456,-1.69145 0.328306,-0.122153 0.319042,-0.685445 -0.0183,-1.114341 -0.147005,-0.186889 -0.435096,-0.687664 -0.640205,-1.112826 -0.309583,-0.641749 -0.372911,-0.971944 -0.372911,-1.944356 0,-1.06278 0.04737,-1.264522 0.510911,-2.177024 0.531334,-1.045887 1.54576,-2.107914 2.386871,-2.498878 0.636528,-0.295867 1.61125,-0.494102 2.449324,-0.498135 0.740621,-0.0032 2.374522,0.452583 2.698932,0.75347 0.0995,0.09229 0.378506,0.319052 0.620008,0.503917 0.241494,0.184865 0.439089,0.424944 0.439089,0.533508 0,0.108564 0.05879,0.197393 0.130663,0.197393 0.189115,0 0.706447,0.883616 1.020702,1.743407 0.283564,0.775797 0.373793,2.444532 0.139993,2.589027 -0.07223,0.04462 -0.175908,0.284165 -0.230408,0.532285 -0.122347,0.557049 -0.597763,1.427141 -0.863316,1.58001 -0.387665,0.22317 -0.194816,0.623373 0.549271,1.139826 1.048981,0.728067 2.382992,2.049867 2.382992,2.361178 0,0.07239 0.04802,0.152982 0.106693,0.179066 0.156002,0.06932 0.968307,1.80301 1.155423,2.465992 0.08834,0.312986 0.176604,0.857167 0.196152,1.209284 l 0.03555,0.640209 2.809787,0.03854 c 1.953274,0.02681 2.809788,-0.0086 2.809788,-0.116193 0,-0.215516 0.709977,-1.144555 1.136635,-1.487334 0.194792,-0.156497 0.46688,-0.396577 0.604638,-0.533509 0.137765,-0.136932 0.342728,-0.248969 0.455478,-0.248969 0.112758,0 0.23674,-0.05135 0.275522,-0.114095 0.03879,-0.06276 0.396484,-0.20286 0.794888,-0.311351 0.57056,-0.155372 0.743042,-0.271613 0.812265,-0.547453 0.134864,-0.53735 0.133787,-16.3422008 -8.12e-4,-16.4779586 -0.15448,-0.1554687 -36.170156,-0.1563109 -36.325681,-8.098e-4 -0.06519,0.06519 -0.118532,3.8643274 -0.118532,8.4425894 v 8.324114 l 0.569071,0.19809 c 0.312984,0.108952 0.665098,0.19949 0.782472,0.201182 0.396411,0.0057 2.002567,1.349391 2.425726,2.029265 l 0.420155,0.675039 h 2.687602 c 2.170344,0 2.702294,-0.03831 2.763912,-0.19885 z m 10.173866,-7.818019 c 0.142648,-0.1291 0.326889,-0.234725 0.409433,-0.234725 0.173519,0 1.080289,-0.972291 1.313952,-1.408896 0.08709,-0.162749 0.197222,-0.799784 0.244709,-1.415626 0.08065,-1.045807 0.05952,-1.168955 -0.319673,-1.865714 -0.763523,-1.402846 -2.149046,-2.124451 -3.723733,-1.939374 -1.699933,0.199789 -3.155795,1.816639 -3.162906,3.512655 -0.0064,1.50141 1.190496,3.231754 2.460337,3.557212 0.747133,0.191489 2.480923,0.06317 2.777881,-0.205532 z"
       id="path1460"
       inkscape:connector-curvature="0" />
    <path
       style="fill:#356173;fill-opacity:1;stroke:#176da9;stroke-width:0.00199196"
       d="M 34.735954,20.907115 C 34.055049,20.764967 33.55516,20.476746 32.94274,19.873181 31.837622,18.784049 31.673927,17.18721 32.529145,15.838662 c 0.606403,-0.9562 1.392455,-1.423643 2.514108,-1.495068 1.250293,-0.0796 1.966474,0.215556 2.864701,1.180648 0.392338,0.421542 0.692527,0.787248 0.66709,0.812685 -0.02543,0.02543 0.0025,0.456915 0.06139,0.958839 0.09846,0.835003 0.07296,0.981969 -0.300213,1.72871 -0.377567,0.755584 -1.165165,1.554663 -1.532317,1.554663 -0.08592,0 -0.187553,0.08001 -0.22584,0.177836 -0.06892,0.176063 -1.254852,0.27273 -1.842071,0.15014 z"
       id="path841"
       inkscape:connector-curvature="0" />
    <path
       style="fill:#356173;fill-opacity:1;stroke:#176da9;stroke-width:0.00199196"
       d="m 34.166883,47.317003 c -1.251167,-0.367261 -2.253252,-1.937002 -2.180005,-3.414919 0.023,-0.464463 0.08303,-0.844478 0.13336,-0.844478 0.05037,0 0.171186,-0.192356 0.268566,-0.427454 0.160804,-0.388219 0.399075,-0.634889 1.437667,-1.488372 0.187228,-0.153849 0.484453,-0.261303 0.660515,-0.238783 0.176053,0.02251 0.320101,-0.02016 0.320101,-0.09486 0,-0.07466 0.176054,-0.122647 0.391237,-0.10658 1.410652,0.105349 2.769046,1.001712 3.245247,2.141424 0.23704,0.567326 0.265044,1.627952 0.06228,2.357962 -0.191618,0.68977 -1.06866,1.680023 -1.770184,1.998662 -0.615189,0.279436 -1.827923,0.334859 -2.568754,0.117399 z"
       id="path843"
       inkscape:connector-curvature="0" />
    <path
       style="fill:#356173;fill-opacity:1;stroke:#176da9;stroke-width:0.00199196"
       d="m 52.80056,34.112905 c -2.065554,-0.938311 -2.637491,-3.192599 -1.29556,-5.106401 0.781905,-1.115102 2.679617,-1.68008 3.757266,-1.118584 0.256598,0.1337 0.521973,0.208836 0.58973,0.16696 0.06778,-0.04187 0.161444,0.02356 0.208219,0.145475 0.04673,0.121877 0.149506,0.181756 0.228309,0.133053 0.0788,-0.04867 0.143264,0.01125 0.143264,0.133256 0,0.121982 0.12378,0.345565 0.275052,0.496847 0.428124,0.428126 0.987639,1.926029 0.826786,2.213449 -0.07386,0.131977 -0.104781,0.394309 -0.06867,0.582956 0.03603,0.188647 0.01789,0.342998 -0.04041,0.342998 -0.106944,0 -0.32526,0.549429 -0.29678,0.74691 0.0085,0.05871 -0.04357,0.106702 -0.115617,0.106702 -0.07207,0 -0.376141,0.240079 -0.675771,0.533508 -0.299622,0.293429 -0.773387,0.613534 -1.052812,0.711344 -0.724012,0.253432 -1.815986,0.214529 -2.482988,-0.08847 z"
       id="path845"
       inkscape:connector-curvature="0" />
    <path
       style="fill:#356173;fill-opacity:1;stroke:#176da9;stroke-width:0.00668243"
       d=""
       id="path847"
       inkscape:connector-curvature="0" />
    <path
       style="fill:#356173;fill-opacity:1;stroke:#176da9;stroke-width:0.00199196"
       d="m 15.334106,34.146513 c -0.26412,-0.115221 -0.572789,-0.302062 -0.685936,-0.415202 -0.11313,-0.11314 -0.249146,-0.205831 -0.302237,-0.205985 -0.05312,-1.54e-4 -0.303955,-0.304621 -0.557466,-0.676586 -0.627281,-0.92043 -0.760883,-2.101825 -0.341765,-3.022125 0.369655,-0.811713 0.659154,-1.140224 1.449393,-1.644732 0.546752,-0.349055 0.77035,-0.403394 1.629583,-0.396049 0.785267,0.0064 1.116213,0.08026 1.564946,0.347752 0.685724,0.408771 1.140651,0.904825 1.356944,1.479625 0.08833,0.234742 0.219281,0.53797 0.290998,0.673841 0.345782,0.65507 -0.01029,2.039153 -0.736896,2.864664 -0.981864,1.115468 -2.467318,1.518384 -3.667564,0.994797 z"
       id="path849"
       inkscape:connector-curvature="0" />
    <path
       style="fill:#356173;fill-opacity:1;stroke:#176da9;stroke-width:0.00199196"
       d="m 28.874051,61.296298 c -0.124297,-0.07839 -0.176798,-1.003105 -0.191674,-3.375885 -0.01887,-3.011703 0.0041,-3.340392 0.289678,-4.192636 0.170595,-0.508614 0.496925,-1.229813 0.725178,-1.602669 0.228261,-0.372849 0.415021,-0.744749 0.415021,-0.826435 0,-0.0817 0.06009,-0.111399 0.133521,-0.066 0.07345,0.04535 0.185471,-8.1e-4 0.248969,-0.10335 0.06349,-0.102222 0.435549,-0.439682 0.826785,-0.749898 0.391236,-0.310225 0.743342,-0.59605 0.782472,-0.635173 0.03911,-0.03911 0.199173,-0.09323 0.35567,-0.120217 0.156496,-0.02697 0.364989,-0.115229 0.463334,-0.196057 0.123488,-0.101502 0.365541,-0.09678 0.782471,0.01523 0.526046,0.14137 1.041994,0.142609 3.591297,0.0086 0.498682,-0.02624 1.066805,0.07523 1.06691,0.190503 8.9e-5,0.105292 0.90362,0.695608 1.053841,0.688514 0.07304,-0.0032 1.080272,0.974794 1.080272,1.049167 0,0.02333 0.252508,0.458001 0.561119,0.965991 0.884549,1.456003 1.02497,2.240319 1.030567,5.756101 0.0025,1.671714 -0.0396,3.083931 -0.0939,3.138261 -0.135813,0.13588 -12.908486,0.190315 -13.121532,0.05596 z"
       id="path851"
       inkscape:connector-curvature="0" />
    <path
       style="fill:#356173;fill-opacity:1;stroke:#176da9;stroke-width:0.00199196"
       d="m 50.792324,48.204701 c -0.08033,-0.05313 -0.259771,-0.576704 -0.398718,-1.163563 -0.138948,-0.586858 -0.309664,-1.178186 -0.379381,-1.314057 -0.06972,-0.135872 -0.126752,-0.398407 -0.126752,-0.583409 0,-0.294126 -0.12207,-0.774769 -0.385267,-1.516982 -0.04163,-0.117376 -0.08933,-0.373456 -0.106013,-0.569084 -0.01668,-0.195619 -0.206607,-1.189727 -0.422057,-2.209133 l -0.391731,-1.853462 0.385358,-0.588583 c 0.211943,-0.323725 0.761668,-0.861209 1.2216,-1.194416 0.45994,-0.333199 0.836252,-0.66252 0.836252,-0.731824 0,-0.06932 0.06211,-0.0876 0.138089,-0.04065 0.07596,0.04697 0.328403,-0.01304 0.560997,-0.133354 0.294626,-0.152351 0.452045,-0.171543 0.518968,-0.06324 0.0528,0.08548 0.280535,0.128348 0.506011,0.09525 0.225476,-0.03312 0.409951,-0.01425 0.409951,0.04186 0,0.203127 1.087123,0.226887 1.975738,0.04316 0.499808,-0.103317 1.077843,-0.169341 1.284539,-0.146715 0.321147,0.03514 1.574849,0.804643 2.291363,1.406369 0.392863,0.329928 1.237464,1.59228 1.549517,2.315932 0.168716,0.391239 0.362553,0.81296 0.430764,0.937146 0.06818,0.124193 0.132566,1.838917 0.14302,3.81049 l 0.01903,3.584681 -4.957577,-0.01498 c -2.726668,-0.0082 -5.023318,-0.05839 -5.103668,-0.111495 z"
       id="path853"
       inkscape:connector-curvature="0" />
    <path
       style="fill:#356173;fill-opacity:1;stroke:#176da9;stroke-width:0.00199196"
       d="m 30.934917,31.42355 -2.236093,-0.0392 -0.04017,-1.596936 c -0.0336,-1.334134 0.01166,-1.757489 0.274923,-2.572579 0.568084,-1.758892 1.807005,-3.240752 3.372866,-4.034235 0.695255,-0.35232 0.7419,-0.356943 1.855894,-0.183764 1.114633,0.173277 1.753769,0.151678 3.06644,-0.103624 0.514198,-0.100005 0.690713,-0.0801 0.879497,0.09912 0.129894,0.123327 0.559644,0.383052 0.954986,0.577157 0.395342,0.194113 0.719801,0.401524 0.721016,0.460924 8.1e-4,0.05944 0.20055,0.315481 0.442959,0.569075 0.477473,0.499495 1.408189,2.00663 1.409615,2.282632 4.77e-4,0.09361 0.08184,0.33026 0.180798,0.525879 0.108799,0.215072 0.19808,1.0868 0.225857,2.205174 l 0.04591,1.849493 h -4.459191 c -2.452555,0 -5.465435,-0.01766 -6.695288,-0.03911 z"
       id="path855"
       inkscape:connector-curvature="0" />
    <path
       style="fill:#356173;fill-opacity:1;stroke:#176da9;stroke-width:0.00199196"
       d="m 9.8535837,48.094622 c -0.085079,-0.221704 -0.1082718,-5.979214 -0.026562,-6.601972 0.056687,-0.43224 0.1442274,-0.672723 0.6570083,-1.804824 0.510894,-1.127922 1.889477,-2.525156 3.042374,-3.083517 0.74914,-0.362815 0.897174,-0.389774 1.36714,-0.248971 0.665487,0.199394 2.459187,0.203207 3.166638,0.0064 0.465448,-0.129254 0.643914,-0.101356 1.313888,0.20537 0.910819,0.416983 1.966255,1.26002 2.349175,1.876396 0.346866,0.558345 0.3695,1.09165 0.08412,1.981785 -0.125431,0.391239 -0.228755,0.883625 -0.229605,1.094185 -8.1e-4,0.210569 -0.07167,0.426191 -0.157411,0.479177 -0.08573,0.05296 -0.130591,0.312849 -0.09971,0.577473 0.03093,0.264625 0.01628,0.481137 -0.03248,0.481137 -0.04875,0 -0.232619,0.624207 -0.408583,1.38712 -0.175956,0.762921 -0.443566,1.888996 -0.594677,2.502392 -0.15111,0.613397 -0.241259,1.169466 -0.200314,1.235701 0.04097,0.06624 -2.225914,0.121391 -5.037426,0.122558 -4.408493,0.0016 -5.1230956,-0.02713 -5.1935493,-0.210763 z"
       id="path857"
       inkscape:connector-curvature="0" />
  </g>
</svg>
