<?xml version="1.0" encoding="UTF-8" standalone="no"?>
<svg
   xmlns:dc="http://purl.org/dc/elements/1.1/"
   xmlns:cc="http://creativecommons.org/ns#"
   xmlns:rdf="http://www.w3.org/1999/02/22-rdf-syntax-ns#"
   xmlns:svg="http://www.w3.org/2000/svg"
   xmlns="http://www.w3.org/2000/svg"
   xmlns:sodipodi="http://sodipodi.sourceforge.net/DTD/sodipodi-0.dtd"
   xmlns:inkscape="http://www.inkscape.org/namespaces/inkscape"
   version="1.1"
   id="svg833"
   width="70"
   height="49.590797"
   viewBox="0 0 70 49.590797"
   sodipodi:docname="1 GCP audit.svg"
   inkscape:version="1.0.1 (c497b03c, 2020-09-10)">
  <metadata
     id="metadata839">
    <rdf:RDF>
      <cc:Work
         rdf:about="">
        <dc:format>image/svg+xml</dc:format>
        <dc:type
           rdf:resource="http://purl.org/dc/dcmitype/StillImage" />
        <dc:title />
      </cc:Work>
    </rdf:RDF>
  </metadata>
  <defs
     id="defs837" />
  <sodipodi:namedview
     pagecolor="#ffffff"
     bordercolor="#666666"
     borderopacity="1"
     objecttolerance="10"
     gridtolerance="10"
     guidetolerance="10"
     inkscape:pageopacity="0"
     inkscape:pageshadow="2"
     inkscape:window-width="1920"
     inkscape:window-height="954"
     id="namedview835"
     showgrid="false"
     inkscape:zoom="2.5207547"
     inkscape:cx="124.27773"
     inkscape:cy="68.812529"
     inkscape:window-x="1440"
     inkscape:window-y="25"
     inkscape:window-maximized="1"
     inkscape:current-layer="g841"
     inkscape:document-rotation="0"
     inkscape:pagecheckerboard="false" />
  <g
     inkscape:groupmode="layer"
     inkscape:label="Image"
     id="g841"
     transform="translate(-8.222265,-10.319208)">
    <g
       id="g2595"
       transform="matrix(0.88825895,0,0,0.88825895,-0.45597158,-1.0095517)">
      <path
         style="fill:#356173;fill-opacity:1;stroke:#176da9;stroke-width:0.126946;stroke-opacity:0.789474"
         d="m 56.117645,60.097476 c -0.04602,-0.144915 -1.851674,-2.048128 -4.012615,-4.229356 -2.160941,-2.181223 -3.928985,-3.987898 -3.928985,-4.014829 0,-0.105907 -0.37042,-0.411674 -0.498714,-0.411674 -0.07481,0 -0.136019,-0.07603 -0.136019,-0.168966 0,-0.09294 -0.14281,-0.245402 -0.317363,-0.338816 -0.174548,-0.09342 -0.317364,-0.220371 -0.317364,-0.282125 0,-0.09411 -0.765273,-0.909933 -2.259308,-2.40857 -0.307008,-0.307948 -0.594304,-0.601728 -1.403399,-1.435052 -0.604979,-0.623111 -0.856921,-0.825152 -1.028941,-0.825152 -0.07277,0 -0.132307,-0.09562 -0.132307,-0.21248 0,-0.116858 -0.401574,-0.616704 -0.89239,-1.110778 -4.315379,-4.34397 -7.739943,-7.865059 -7.739943,-7.958106 0,-0.06196 0.07722,-0.11265 0.171591,-0.11265 0.09437,0 0.559853,-0.342754 1.0344,-0.761676 0.474547,-0.418922 0.911398,-0.761677 0.970784,-0.761677 0.05939,0 0.343424,-0.228503 0.6312,-0.507784 C 36.546054,34.278503 36.807264,34.05 36.838745,34.05 c 0.03149,0 0.133908,-0.07141 0.227623,-0.158682 0.09371,-0.08728 0.359046,-0.301498 0.589632,-0.476048 0.230585,-0.174551 0.616736,-0.517306 0.858105,-0.761677 l 0.438848,-0.444311 0.6352,0.602994 c 0.349364,0.331647 0.682221,0.602994 0.739693,0.602994 0.05747,0 0.206938,0.09997 0.332154,0.222155 0.125216,0.122186 0.388614,0.336408 0.585325,0.476048 0.19671,0.139641 0.432934,0.325299 0.524947,0.412575 0.092,0.08728 0.205984,0.158683 0.253286,0.158683 0.0473,0 0.198343,0.142814 0.335648,0.317365 0.137299,0.174551 0.33193,0.317365 0.432512,0.317365 0.100576,0 0.466995,0.285629 0.814266,0.634731 0.347277,0.349101 0.664525,0.63473 0.705011,0.63473 0.110522,0 0.923565,0.635674 1.501907,1.174252 0.281159,0.261826 0.585127,0.476048 0.675488,0.476048 0.09037,0 0.164301,0.05713 0.164301,0.126946 0,0.06982 0.04762,0.126946 0.105824,0.126946 0.05818,0 0.353338,0.228503 0.655853,0.507785 0.302515,0.279281 0.612653,0.507784 0.689197,0.507784 0.07654,0 0.246412,0.142814 0.377497,0.317365 0.131085,0.174551 0.301735,0.317594 0.379232,0.317873 0.0775,2.55e-4 0.455091,0.285679 0.839104,0.634223 0.384013,0.348544 0.764935,0.633944 0.84649,0.634223 0.08156,2.53e-4 0.432422,0.286136 0.779693,0.635238 0.544051,0.546918 0.699161,0.634019 1.121171,0.629577 0.410733,-0.0043 0.561472,-0.08768 0.934086,-0.516509 0.244371,-0.281243 0.629965,-0.711435 0.856883,-0.955979 0.226919,-0.244545 0.412576,-0.490946 0.412576,-0.547558 0,-0.05662 0.342759,-0.449966 0.761677,-0.874122 0.418919,-0.424157 0.761677,-0.821421 0.761677,-0.88281 0,-0.06139 0.283334,-0.335194 0.629638,-0.608454 0.346304,-0.273262 0.63193,-0.543764 0.634733,-0.601117 0.0032,-0.05735 0.0765,-0.183903 0.16377,-0.281222 0.376717,-0.420075 0.476051,-0.563671 0.476051,-0.688184 0,-0.07277 0.07651,-0.132305 0.170029,-0.132305 0.194099,0 1.09943,-0.936253 1.09943,-1.136985 0,-0.07286 0.04851,-0.132476 0.107757,-0.132476 0.127181,0 2.812006,-2.664344 2.812006,-2.790552 0,-0.04747 0.14281,-0.162737 0.317364,-0.256154 0.174553,-0.09342 0.317363,-0.245885 0.317363,-0.338817 0,-0.09293 0.06118,-0.168968 0.136013,-0.168968 0.175756,0 0.49872,-0.322962 0.49872,-0.498717 0,-0.07481 0.06118,-0.136013 0.136012,-0.136013 0.175757,0 0.49872,-0.322963 0.49872,-0.498717 0,-0.07481 0.07617,-0.136014 0.169261,-0.136014 0.219987,0 1.100199,-0.880211 1.100199,-1.1002 0,-0.09309 0.08569,-0.169261 0.190419,-0.169261 0.104729,0 0.190419,-0.05713 0.190419,-0.126946 0,-0.06982 0.07333,-0.126946 0.162957,-0.126946 0.08962,0 0.614221,-0.428444 1.165773,-0.952096 0.551552,-0.523652 1.049478,-0.952096 1.106502,-0.952096 0.05702,0 0.103686,-0.05273 0.103686,-0.117181 0,-0.169195 0.75385,-0.898191 0.930125,-0.899459 0.08191,-6.4e-4 0.539405,-0.371908 1.016659,-0.82515 0.477255,-0.453243 0.912807,-0.824078 0.967892,-0.824078 0.0551,0 0.45262,-0.342755 0.883411,-0.761677 0.430797,-0.418922 0.82896,-0.761676 0.884825,-0.761676 0.05587,0 0.267533,-0.142745 0.4704,-0.317211 0.202868,-0.174466 0.411693,-0.31728 0.464058,-0.317366 0.05235,-8.5e-5 0.09521,-0.08584 0.09521,-0.190574 0,-0.10473 0.07213,-0.190419 0.160288,-0.190419 0.08815,0 0.267533,-0.142814 0.398617,-0.317366 0.131079,-0.17455 0.323751,-0.317364 0.428148,-0.317364 0.104403,0 0.322169,-0.142815 0.483942,-0.317365 0.161766,-0.174551 0.344019,-0.317367 0.405005,-0.317367 0.06099,0 0.245043,-0.142813 0.409024,-0.317364 0.163987,-0.174552 0.349404,-0.317365 0.412034,-0.317365 0.0627,0 0.19351,-0.07141 0.29083,-0.158683 0.38167,-0.342269 0.55899,-0.476048 0.631,-0.476048 0.0413,0 0.27936,-0.198354 0.52899,-0.440785 0.24963,-0.242432 0.56099,-0.474785 0.69191,-0.516339 0.13093,-0.04156 0.23805,-0.12883 0.23805,-0.193946 0,-0.06512 0.0857,-0.118391 0.19042,-0.118391 0.10473,0 0.19042,-0.05327 0.19042,-0.118391 0,-0.06512 0.12853,-0.158337 0.28563,-0.207159 0.15709,-0.04882 0.47403,-0.281174 0.70431,-0.516339 0.23028,-0.235164 0.44984,-0.427572 0.48791,-0.427572 0.14018,0 1.6958,-1.072767 1.6958,-1.169439 0,-0.05501 0.0796,-0.100022 0.17684,-0.100022 0.0973,0 0.20972,-0.08569 0.24991,-0.190419 0.0402,-0.104731 0.18911,-0.190419 0.33094,-0.190419 0.14183,0 0.25788,-0.05713 0.25788,-0.126947 0,-0.06982 0.0554,-0.126946 0.12324,-0.126946 0.1456,0 1.31755,-0.782199 1.37895,-0.920359 0.0232,-0.05236 0.12325,-0.09521 0.22216,-0.09521 0.0989,0 0.17984,-0.05046 0.17984,-0.11214 0,-0.06168 0.1,-0.145707 0.22216,-0.186733 0.21371,-0.07176 0.34812,-0.149812 1.04934,-0.609367 0.26344,-0.172652 0.35957,-0.181459 0.54007,-0.04948 0.12076,0.08831 0.21957,0.282795 0.21957,0.432194 0,0.149398 0.0571,0.271633 0.12695,0.271633 0.0698,0 0.12694,0.116045 0.12694,0.257876 0,0.141833 0.0857,0.290759 0.19042,0.330948 0.11619,0.04458 0.19042,0.23686 0.19042,0.493221 0,0.231083 0.0714,0.444126 0.15868,0.47343 0.1985,0.06665 -0.11871,0.729555 -0.3491,0.729555 -0.0811,0 -0.22395,0.142814 -0.31736,0.317365 -0.0934,0.174552 -0.23022,0.317366 -0.30399,0.317366 -0.14518,0 -1.09196,1.017868 -1.09224,1.174251 -1e-4,0.05236 -0.0728,0.09521 -0.16153,0.09521 -0.0887,0 -0.28702,0.128533 -0.44061,0.285629 -0.69777,0.713691 -1.04834,1.129053 -1.04834,1.2421 0,0.06742 -0.0763,0.12257 -0.16959,0.12257 -0.17127,0 -1.09987,0.955228 -1.09987,1.13141 0,0.05234 -0.14282,0.17158 -0.31737,0.264997 -0.17455,0.09342 -0.31736,0.206695 -0.31736,0.251728 0,0.04504 -0.51413,0.607895 -1.14252,1.250802 -0.62838,0.642908 -1.14251,1.223426 -1.14251,1.290042 0,0.06662 -0.34275,0.457549 -0.76168,0.868742 -0.41892,0.411193 -0.76168,0.774959 -0.76168,0.80837 0,0.03341 -0.28562,0.358651 -0.63473,0.722758 -0.3491,0.364106 -0.63473,0.71327 -0.63473,0.77592 0,0.06265 -0.31419,0.430622 -0.6982,0.817714 -0.38401,0.387094 -0.698204,0.765681 -0.698204,0.841305 0,0.07562 -0.185658,0.319901 -0.412576,0.542835 -0.418451,0.411111 -1.110778,1.281652 -1.110778,1.396708 0,0.0346 -0.199936,0.274902 -0.444307,0.534012 -0.244371,0.259108 -0.444314,0.515451 -0.444314,0.569651 0,0.0542 -0.228505,0.343591 -0.507782,0.643093 -0.279283,0.299502 -0.507789,0.614676 -0.507789,0.700386 0,0.08571 -0.285625,0.449082 -0.634726,0.807492 -0.349101,0.358409 -0.634733,0.728745 -0.634733,0.822966 0,0.09422 -0.228506,0.41636 -0.507782,0.715863 -0.279284,0.299501 -0.507789,0.592415 -0.507789,0.650915 0,0.0585 -0.14281,0.260386 -0.317363,0.448631 -0.174548,0.188245 -0.317364,0.414255 -0.317364,0.502243 0,0.08799 -0.05715,0.15998 -0.12695,0.15998 -0.06982,0 -0.126944,0.07958 -0.126944,0.176838 0,0.09726 -0.08569,0.209718 -0.190419,0.249909 -0.10473,0.04018 -0.190419,0.183003 -0.190419,0.317365 0,0.134361 -0.08147,0.275556 -0.181037,0.313765 -0.09957,0.03821 -0.502151,0.557067 -0.894611,1.153015 -0.392461,0.595951 -0.785492,1.15634 -0.873389,1.245309 -0.0879,0.08897 -0.270867,0.360658 -0.406586,0.603751 -0.135725,0.243091 -0.318182,0.51852 -0.405453,0.61206 -0.08728,0.09354 -0.158681,0.230702 -0.158681,0.3048 0,0.0741 -0.104032,0.227114 -0.231181,0.340034 -0.127149,0.112922 -0.34137,0.404205 -0.476051,0.647296 -0.134675,0.243094 -0.316275,0.518522 -0.403552,0.612061 -0.08727,0.09354 -0.158682,0.251683 -0.158682,0.351424 0,0.09974 -0.05715,0.181357 -0.126944,0.181357 -0.06982,0 -0.126944,0.08568 -0.126944,0.190419 0,0.104729 -0.05325,0.190419 -0.118393,0.190419 -0.06511,0 -0.151456,0.104179 -0.191872,0.231514 -0.04045,0.127328 -0.17586,0.341548 -0.300992,0.476044 -0.234426,0.251962 -0.658208,1.030752 -0.658208,1.209594 0,0.05549 -0.14281,0.255002 -0.317364,0.443347 -0.174553,0.188339 -0.317363,0.416947 -0.317363,0.508013 0,0.09107 -0.0747,0.211258 -0.166009,0.267091 -0.0913,0.05581 -0.291597,0.358586 -0.445095,0.672781 -0.354931,0.72647 -0.64711,1.229325 -1.007462,1.733875 -0.157095,0.219955 -0.285626,0.45552 -0.285626,0.523469 0,0.06795 -0.08569,0.194656 -0.190419,0.281574 -0.10473,0.08692 -0.190419,0.237863 -0.190419,0.335431 0,0.09757 -0.142816,0.403635 -0.31737,0.680141 -0.174547,0.276505 -0.317363,0.583449 -0.317363,0.682099 0,0.09864 -0.08064,0.210304 -0.179206,0.248128 -0.09856,0.03782 -0.252852,0.272435 -0.342868,0.521363 -0.09002,0.248928 -0.20672,0.452602 -0.259353,0.452602 -0.05261,0 -0.133197,0.199936 -0.179047,0.444307 -0.04582,0.244371 -0.134118,0.444313 -0.196166,0.444313 -0.06208,0 -0.112819,0.111309 -0.112819,0.247354 0,0.136038 -0.142816,0.401446 -0.31737,0.589792 -0.174547,0.188346 -0.317363,0.448352 -0.317363,0.577798 0,0.129447 -0.04614,0.235354 -0.102515,0.235354 -0.140794,0 -0.532218,0.912819 -0.532218,1.241152 0,0.14697 -0.05562,0.301581 -0.123545,0.343578 -0.06795,0.04198 -0.21552,0.288153 -0.32793,0.547014 -0.11241,0.258861 -0.257114,0.556339 -0.321568,0.661075 -0.06446,0.10473 -0.151296,0.276103 -0.192973,0.380832 -0.04166,0.104736 -0.149357,0.35497 -0.239277,0.556083 -0.152371,0.340794 -0.169177,0.347744 -0.247116,0.102176 z"
         id="path845" />
      <path
         style="fill:#356173;fill-opacity:1;stroke:#176da9;stroke-width:0.126946;stroke-opacity:0.789474"
         d="m 13.05394,68.403704 c -0.36093,-0.07795 -0.698924,-0.18457 -0.751098,-0.236941 -0.05218,-0.05235 -0.20367,-0.09521 -0.336661,-0.09521 -0.132991,0 -0.321428,-0.07141 -0.418748,-0.158681 -0.420075,-0.376717 -0.56367,-0.476045 -0.688184,-0.476045 -0.07277,0 -0.132304,-0.0857 -0.132304,-0.190419 0,-0.104736 -0.05713,-0.190419 -0.126946,-0.190419 -0.06982,0 -0.126946,-0.0787 -0.126946,-0.17488 0,-0.09618 -0.08569,-0.245991 -0.190419,-0.332909 -0.104731,-0.08692 -0.19042,-0.290483 -0.19042,-0.452359 0,-0.161881 -0.05713,-0.329638 -0.1269458,-0.372793 -0.175807,-0.108653 -0.175807,-48.765594 0,-48.874249 0.06982,-0.04315 0.1269458,-0.22198 0.1269458,-0.397398 0,-0.175417 0.07141,-0.398566 0.158683,-0.495887 0.376717,-0.420073 0.476048,-0.56367 0.476048,-0.688183 0,-0.07277 0.08093,-0.132304 0.17984,-0.132304 0.09891,0 0.198883,-0.04284 0.222157,-0.09521 0.09708,-0.218442 1.140614,-0.793413 1.439984,-0.793413 0.178239,0 0.356953,-0.08569 0.397142,-0.190419 0.06465,-0.168471 3.32605,-0.19042 28.295929,-0.19042 24.917721,0 28.245158,0.0223 28.41328,0.19042 0.104729,0.104731 0.305376,0.190419 0.445888,0.190419 0.140505,0 0.290771,0.05713 0.33392,0.126946 0.04314,0.06982 0.164499,0.126946 0.26967,0.126946 0.216032,0 1.571053,1.306736 1.571053,1.515074 0,0.07437 0.05715,0.135226 0.126944,0.135226 0.06982,0 0.126944,0.135819 0.126944,0.301821 0,0.166002 0.08569,0.372937 0.190419,0.459855 0.282349,0.234325 0.282349,3.808384 0,3.808384 -0.10473,0 -0.190419,0.05713 -0.190419,0.126945 0,0.06982 -0.09454,0.126947 -0.210074,0.126947 -0.115539,0 -0.415449,0.214257 -0.666464,0.476127 -0.251014,0.26187 -0.713459,0.664145 -1.027648,0.893945 L 70.074253,22.762437 69.97143,22.15412 c -0.05658,-0.334573 -0.156518,-0.662584 -0.222157,-0.728914 -0.06563,-0.06633 -0.119334,-0.309114 -0.119334,-0.539521 0,-0.230407 -0.04416,-0.418921 -0.09808,-0.418921 -0.05395,0 -0.201818,-0.192643 -0.328621,-0.428094 -0.321075,-0.596202 -1.340845,-1.603045 -1.623629,-1.603045 -0.129081,0 -0.2347,-0.05259 -0.2347,-0.116859 0,-0.06427 -0.17072,-0.154356 -0.37938,-0.200186 -0.208659,-0.04583 -0.411974,-0.136057 -0.451801,-0.200506 -0.04384,-0.07097 -9.951239,-0.117179 -25.122279,-0.117179 -21.973718,0 -25.094505,0.02328 -25.413466,0.189637 -0.199987,0.104301 -0.453206,0.189989 -0.562708,0.190419 -0.109502,4.16e-4 -0.423694,0.200677 -0.698204,0.444994 -0.274509,0.244317 -0.541952,0.444257 -0.594317,0.444311 -0.05237,5.6e-5 -0.09521,0.04923 -0.09521,0.109289 0,0.06005 -0.199849,0.32109 -0.444107,0.58008 -0.244259,0.258989 -0.476213,0.624016 -0.515453,0.81117 -0.03924,0.187153 -0.12502,0.439474 -0.190623,0.560713 -0.07299,0.134885 -0.119278,8.082156 -0.119278,20.477944 0,18.304949 0.01976,20.317935 0.205031,20.884354 0.112767,0.344768 0.255582,0.626855 0.317365,0.626855 0.06179,0 0.112335,0.06125 0.112335,0.136038 0,0.264435 1.213684,1.397965 1.777245,1.659866 0.314191,0.146009 0.670452,0.315795 0.79169,0.377299 0.318551,0.161593 50.458064,0.146592 50.558013,-0.0151 0.04314,-0.06982 0.185254,-0.126951 0.315789,-0.126951 0.130534,0 0.323021,-0.08569 0.42775,-0.190419 0.10473,-0.104729 0.285287,-0.190419 0.401229,-0.190419 0.220762,0 1.330682,-1.062918 1.330682,-1.27433 0,-0.06714 0.04282,-0.122432 0.09521,-0.12288 0.173613,-0.0013 0.53952,-0.775571 0.53952,-1.14142 0,-0.197984 0.07141,-0.383764 0.158682,-0.412845 0.124992,-0.04166 0.165996,-2.416122 0.193126,-11.181837 0.01894,-6.120928 0.08369,-11.12896 0.143878,-11.12896 0.06016,0 0.143002,-0.09997 0.184026,-0.222155 0.105664,-0.314686 0.336557,-0.639223 0.811904,-1.141202 0.226918,-0.239627 0.412576,-0.513719 0.412576,-0.609095 0,-0.09538 0.192858,-0.361818 0.42857,-0.592095 0.235712,-0.230278 0.549689,-0.618627 0.697728,-0.862998 l 0.269158,-0.444311 6.4e-4,14.947901 c 2.56e-4,9.160921 -0.04538,14.947904 -0.117914,14.947904 -0.06512,0 -0.154393,0.128537 -0.1984,0.285632 -0.138342,0.493901 -0.371366,0.908838 -0.66704,1.187789 -0.1571,0.148204 -0.285632,0.362886 -0.285632,0.477068 0,0.124032 -0.103795,0.207597 -0.257875,0.207597 -0.14183,0 -0.290758,0.08569 -0.330944,0.190419 -0.04019,0.10473 -0.209773,0.19042 -0.376857,0.19042 -0.167079,0 -0.303789,0.05139 -0.303789,0.114163 0,0.06278 -0.271347,0.155949 -0.602989,0.207014 -1.051078,0.161843 -55.986895,0.172467 -56.734682,0.01101 z"
         id="path847" />
      <path
         style="fill:#356173;fill-opacity:1;stroke:#176da9;stroke-width:0.126946;stroke-opacity:0.789474"
         d="m 21.390418,34.938624 c 0,-0.06982 -0.07603,-0.126948 -0.168962,-0.126948 -0.197909,0 -1.481337,-1.310589 -1.481337,-1.512687 0,-0.07569 -0.08569,-0.137611 -0.190419,-0.137611 -0.303369,0 -0.274906,-2.406249 0.03174,-2.682992 0.29938,-0.27019 0.616597,-0.668062 0.788038,-0.988403 0.07769,-0.145164 0.224933,-0.263935 0.327207,-0.263935 0.102273,0 0.185952,-0.05713 0.185952,-0.126946 0,-0.06982 0.131896,-0.126946 0.293102,-0.126946 0.161207,0 0.403991,-0.08387 0.539521,-0.186382 0.337431,-0.255219 1.622433,-0.25805 1.833245,-0.004 0.08692,0.10473 0.290482,0.190419 0.452363,0.190419 0.161881,0 0.329635,0.05713 0.372787,0.126946 0.04315,0.06982 0.189337,0.126946 0.324857,0.126946 0.13552,0 0.2464,0.08569 0.2464,0.190419 0,0.104731 0.05046,0.19042 0.11214,0.19042 0.06168,0 0.145707,0.09997 0.186734,0.222155 0.04102,0.122185 0.124498,0.307845 0.185494,0.412575 0.06099,0.10473 0.176905,0.318177 0.257578,0.474326 0.180786,0.349928 0.197367,2.191542 0.01973,2.191542 -0.06982,0 -0.126946,0.136703 -0.126946,0.303783 0,0.167082 -0.08569,0.336666 -0.190419,0.376855 -0.104731,0.04019 -0.190419,0.182606 -0.190419,0.316483 0,0.153394 -0.164313,0.321383 -0.444311,0.454251 -0.244372,0.115962 -0.444312,0.265285 -0.444312,0.33183 0,0.06654 -0.08569,0.12099 -0.190419,0.12099 -0.104731,0 -0.190419,0.05713 -0.190419,0.126946 0,0.07617 -0.507785,0.126946 -1.269461,0.126946 -0.761676,0 -1.269461,-0.05078 -1.269461,-0.126946 z"
         id="path849" />
      <path
         style="fill:#356173;fill-opacity:1;stroke:#176da9;stroke-width:0.126946;stroke-opacity:0.789474"
         d="m 21.83473,46.10988 c -0.04315,-0.06982 -0.303589,-0.126944 -0.57875,-0.126944 -0.27516,0 -0.500292,-0.04608 -0.500292,-0.102471 0,-0.11607 -0.526044,-0.779565 -1.047306,-1.320947 -0.327918,-0.340582 -0.349101,-0.431642 -0.349101,-1.50072 0,-0.910176 0.0445,-1.185003 0.222155,-1.372118 0.19986,-0.210496 1.015344,-1.194302 1.174252,-1.416626 0.219666,-0.307328 2.431279,-0.46937 3.139357,-0.230016 0.642578,0.217213 1.301122,0.736786 1.302604,1.027719 6.4e-4,0.124377 0.08684,0.259022 0.191571,0.299211 0.104731,0.04018 0.19042,0.177839 0.19042,0.305889 0,0.12805 0.05713,0.268124 0.126946,0.311275 0.165554,0.102319 0.165554,2.05577 0,2.158087 -0.06982,0.04314 -0.126946,0.183225 -0.126946,0.311277 0,0.128044 -0.08569,0.265696 -0.19042,0.305888 -0.10473,0.04019 -0.190419,0.164633 -0.190419,0.276537 0,0.223296 -0.292616,0.566176 -0.483173,0.566176 -0.06626,0 -0.191585,0.08568 -0.278503,0.190419 -0.08692,0.10473 -0.319046,0.19042 -0.515837,0.19042 -0.196791,0 -0.393108,0.05715 -0.436259,0.126944 -0.04315,0.06982 -0.414469,0.12695 -0.825149,0.12695 -0.410681,0 -0.781998,-0.05715 -0.82515,-0.12695 z"
         id="path851" />
      <path
         style="fill:#356173;fill-opacity:1;stroke:#176da9;stroke-width:0.126946;stroke-opacity:0.789474"
         d="m 21.83473,57.281137 c -0.04315,-0.06982 -0.213271,-0.126944 -0.378043,-0.126944 -0.38023,0 -1.079979,-0.392896 -1.081035,-0.606976 -4.48e-4,-0.08947 -0.08649,-0.195552 -0.191222,-0.235744 -0.10473,-0.04019 -0.190419,-0.131814 -0.190419,-0.203616 0,-0.07179 -0.142814,-0.262899 -0.317365,-0.424665 -0.293466,-0.271975 -0.317365,-0.380615 -0.317365,-1.442701 0,-0.917415 0.04471,-1.197095 0.222155,-1.389651 0.122186,-0.132596 0.368988,-0.403943 0.548449,-0.602996 0.17946,-0.199052 0.534974,-0.547577 0.79003,-0.774489 0.4577,-0.407207 0.480308,-0.412576 1.736582,-0.412576 0.763931,0 1.272843,0.05075 1.272843,0.126944 0,0.06982 0.08569,0.126944 0.190419,0.126944 0.104731,0 0.190419,0.05325 0.190419,0.118393 0,0.06511 0.125869,0.158343 0.279708,0.207168 0.354468,0.112506 0.55169,0.309728 0.664194,0.664192 0.04883,0.153844 0.142053,0.279712 0.207168,0.279712 0.06512,0 0.118391,0.11088 0.118391,0.2464 0,0.13552 0.05713,0.281703 0.126947,0.324858 0.165554,0.102317 0.165554,2.055763 0,2.15808 -0.06982,0.04314 -0.126947,0.189338 -0.126947,0.324858 0,0.13552 -0.05327,0.2464 -0.118391,0.2464 -0.06511,0 -0.158976,0.128537 -0.208578,0.285632 -0.105047,0.332691 -0.524912,0.729939 -0.771497,0.729939 -0.09405,0 -0.170995,0.05715 -0.170995,0.12695 0,0.06982 -0.168006,0.126944 -0.373346,0.126944 -0.205341,0 -0.408652,0.05715 -0.451803,0.126944 -0.04315,0.06982 -0.414469,0.126951 -0.825149,0.126951 -0.410682,0 -0.781999,-0.05715 -0.82515,-0.126951 z"
         id="path853" />
      <path
         style="fill:#356173;fill-opacity:1;stroke:#176da9;stroke-width:0.126946;stroke-opacity:0.789474"
         d="m 28.372454,54.23443 v -0.380838 h 9.892032 9.892026 l 0.380838,0.380838 0.380839,0.380838 H 38.645325 28.372454 Z"
         id="path855" />
      <path
         style="fill:#356173;fill-opacity:1;stroke:#176da9;stroke-width:0.126946;stroke-opacity:0.789474"
         d="m 28.372454,43.063176 v -0.380839 h 4.438739 4.438733 l 0.389594,0.380839 0.389593,0.380835 h -4.828332 -4.828327 z"
         id="path857" />
      <path
         style="fill:#356173;fill-opacity:1;stroke:#176da9;stroke-width:0.126946;stroke-opacity:0.789474"
         d="m 40.368857,31.579109 c -0.139641,-0.170601 -0.300812,-0.312825 -0.358169,-0.316053 -0.05734,-0.0032 -0.189959,-0.09156 -0.294688,-0.196289 -0.169267,-0.169262 1.0184,-0.190419 10.688973,-0.190419 h 10.879398 l -0.492486,0.507671 -0.492487,0.507672 -9.838317,-0.0012 -9.838323,-0.0012 z"
         id="path859" />
      <path
         style="fill:#356173;fill-opacity:1;stroke:#176da9;stroke-width:0.126946;stroke-opacity:0.789474"
         d="m 29.007187,31.384132 v -0.507784 h 4.707878 4.707879 l -0.550394,0.504391 -0.550393,0.50439 -4.157485,0.0034 -4.157485,0.0034 z"
         id="path861" />
      <path
         style="fill:#356173;fill-opacity:1;stroke:#176da9;stroke-width:0.126946;stroke-opacity:0.789474"
         d="m 61.473651,55.028606 c 0.576019,-0.02349 1.518592,-0.02349 2.094611,0 0.576019,0.02355 0.10473,0.04275 -1.047309,0.04275 -1.152032,0 -1.623315,-0.01926 -1.047302,-0.04275 z"
         id="path863" />
      <path
         style="fill:#356173;fill-opacity:1;stroke:#176da9;stroke-width:0.126946;stroke-opacity:0.789474"
         d="m 62.616166,54.647281 c -1.547117,-0.03206 -1.872454,-0.07129 -1.872454,-0.225824 0,-0.102861 0.05715,-0.187027 0.12695,-0.187027 0.06981,0 0.126944,-0.08569 0.126944,-0.190419 0,-0.160192 0.282099,-0.190413 1.777242,-0.190413 h 1.777248 v 0.444307 c 0,0.244371 -0.01427,0.43168 -0.03174,0.416243 -0.01747,-0.01542 -0.874343,-0.0455 -1.904192,-0.06686 z"
         id="path865" />
    </g>
  </g>
</svg>
