<?xml version="1.0" encoding="UTF-8" standalone="no"?>
<svg
   xmlns:dc="http://purl.org/dc/elements/1.1/"
   xmlns:cc="http://creativecommons.org/ns#"
   xmlns:rdf="http://www.w3.org/1999/02/22-rdf-syntax-ns#"
   xmlns:svg="http://www.w3.org/2000/svg"
   xmlns="http://www.w3.org/2000/svg"
   xmlns:sodipodi="http://sodipodi.sourceforge.net/DTD/sodipodi-0.dtd"
   xmlns:inkscape="http://www.inkscape.org/namespaces/inkscape"
   width="51.488884"
   height="61.178017"
   viewBox="0 0 13.6231 16.186685"
   version="1.1"
   id="svg4706"
   inkscape:version="0.92.3 (2405546, 2018-03-11)"
   sodipodi:docname="1-placements.svg">
  <defs
     id="defs4700" />
  <sodipodi:namedview
     id="base"
     pagecolor="#ffffff"
     bordercolor="#666666"
     borderopacity="1.0"
     inkscape:pageopacity="0.0"
     inkscape:pageshadow="2"
     inkscape:zoom="5.9550771"
     inkscape:cx="23.39342"
     inkscape:cy="44.694559"
     inkscape:document-units="mm"
     inkscape:current-layer="layer1"
     inkscape:document-rotation="0"
     showgrid="false"
     units="px"
     inkscape:window-width="1600"
     inkscape:window-height="845"
     inkscape:window-x="0"
     inkscape:window-y="27"
     inkscape:window-maximized="1" />
  <metadata
     id="metadata4703">
    <rdf:RDF>
      <cc:Work
         rdf:about="">
        <dc:format>image/svg+xml</dc:format>
        <dc:type
           rdf:resource="http://purl.org/dc/dcmitype/StillImage" />
        <dc:title />
      </cc:Work>
    </rdf:RDF>
  </metadata>
  <g
     inkscape:label="Layer 1"
     inkscape:groupmode="layer"
     id="layer1"
     transform="translate(-2.4452058,-0.9861046)">
    <path
       style="fill:#176da9;fill-opacity:1;stroke:#176da9;stroke-width:0.0248387;stroke-opacity:0.78947401"
       d="m 2.4810265,8.111409 c -0.047512,-0.076874 -0.016533,-0.8626768 0.038095,-0.9646548 0.017015,-0.031781 0.024612,-0.096756 0.016907,-0.1443421 -0.00803,-0.049223 4.655e-4,-0.1077938 0.019636,-0.1358993 0.018513,-0.02718 0.034832,-0.1135026 0.036276,-0.1918801 0.00161,-0.093043 0.018085,-0.159596 0.047191,-0.1917678 0.027876,-0.030765 0.039593,-0.075344 0.0313,-0.1187406 -0.00856,-0.044783 -9.64e-5,-0.074531 0.02381,-0.083712 0.020439,-0.00781 0.034992,-0.039807 0.032424,-0.070999 -0.00813,-0.098917 0.00268,-0.153411 0.027715,-0.1380287 0.013269,0.00813 0.017817,-0.00899 0.010166,-0.038309 -0.0077,-0.029748 -0.00107,-0.053183 0.015784,-0.053183 0.016319,0 0.029695,-0.029909 0.029695,-0.066441 0,-0.036543 0.012681,-0.066441 0.02825,-0.066441 0.015516,0 0.02611,-0.02092 0.023489,-0.046495 -0.00803,-0.078704 3.959e-4,-0.1167129 0.02274,-0.1028982 0.011771,0.00728 0.022579,-0.03023 0.024077,-0.083348 0.00161,-0.057495 0.02092,-0.1098697 0.047726,-0.1294735 0.024773,-0.018084 0.037079,-0.045746 0.027394,-0.061444 -0.00974,-0.015677 0.00107,-0.035687 0.023917,-0.044462 0.023863,-0.0091 0.041573,-0.047297 0.041573,-0.089586 0,-0.040502 0.017924,-0.088527 0.039861,-0.1067291 0.021937,-0.018191 0.039861,-0.049544 0.039861,-0.069705 0,-0.020117 0.012467,-0.036596 0.027769,-0.036596 0.015249,0 0.025789,-0.014927 0.023435,-0.033226 -0.0092,-0.070924 0.00321,-0.1020957 0.033066,-0.083583 0.020599,0.012734 0.025629,0.00482 0.014981,-0.022793 -0.00931,-0.024237 1.23e-4,-0.04826 0.022311,-0.056778 0.021134,-0.00813 0.036918,-0.024077 0.035046,-0.03542 -0.00161,-0.011396 -4.815e-4,-0.029641 0.00321,-0.040609 0.00375,-0.010968 0.00931,-0.028892 0.012788,-0.03986 0.033601,-0.1058302 0.084837,-0.1926987 0.113628,-0.1926987 0.019369,0 0.031675,-0.02092 0.027394,-0.046495 -0.00482,-0.028036 0.00663,-0.043445 0.028679,-0.03879 0.023435,0.00482 0.030765,-0.00717 0.020546,-0.033814 -0.00899,-0.023542 0.00674,-0.064322 0.036597,-0.094113 0.028893,-0.028892 0.043606,-0.052915 0.032638,-0.053397 -0.010968,-4.655e-4 -0.00107,-0.015409 0.022579,-0.033226 0.023382,-0.017817 0.047298,-0.044354 0.053184,-0.05895 0.00589,-0.014607 0.019636,-0.023595 0.030605,-0.019957 0.010969,0.00375 0.019957,-0.023274 0.019957,-0.059806 0,-0.041358 0.015088,-0.066452 0.039861,-0.066452 0.021937,0 0.039861,-0.018619 0.039861,-0.041412 0,-0.022792 0.012253,-0.033868 0.027234,-0.024612 0.014981,0.0092 0.025522,0.00696 0.023435,-0.00482 -0.01129,-0.064921 0.00717,-0.1149365 0.042376,-0.1149365 0.021937,0 0.036865,-0.014927 0.033226,-0.033226 -0.00375,-0.018245 0.0092,-0.029908 0.028571,-0.025896 0.019369,0.00428 0.028357,-0.00375 0.020011,-0.017228 -0.00835,-0.013483 0.020653,-0.062899 0.064473,-0.1097895 0.04382,-0.046869 0.079636,-0.093503 0.079636,-0.1035938 0,-0.027447 0.3282195,-0.3652266 0.3577862,-0.3682121 0.014072,-0.00161 0.034136,-0.024398 0.044623,-0.051043 0.010487,-0.026645 0.02076,-0.036543 0.022846,-0.021883 0.00214,0.014607 0.013055,0.00268 0.024505,-0.026591 0.011397,-0.029213 0.034511,-0.053183 0.051311,-0.053183 0.0168,0 0.030498,-0.00899 0.030444,-0.020064 -2.14e-4,-0.036383 0.1410974,-0.1793121 0.1772773,-0.1793121 0.019529,0 0.035474,-0.012734 0.035474,-0.028303 0,-0.027019 0.1486843,-0.166621 0.1649604,-0.1549037 0.00428,0.00321 0.052863,-0.038148 0.1079672,-0.091641 0.055089,-0.053504 0.1150245,-0.097259 0.1331947,-0.097259 0.018192,0 0.061744,-0.034777 0.096844,-0.077259 0.038951,-0.04719 0.079358,-0.071288 0.1037456,-0.061925 0.025147,0.00963 0.033119,0.00428 0.021509,-0.014446 -0.020011,-0.03237 0.071803,-0.094338 0.099208,-0.066933 0.0092,0.0092 0.0168,0.00268 0.0168,-0.014232 0,-0.017068 0.01664,-0.031032 0.037025,-0.031032 0.020385,0 0.043927,-0.017924 0.052328,-0.03986 0.00835,-0.021937 0.032638,-0.03986 0.053783,-0.03986 0.021188,0 0.043446,-0.014927 0.049545,-0.033119 0.0061,-0.018191 0.027983,-0.033172 0.048743,-0.033226 0.020706,-6.42e-5 0.039968,-0.01038 0.04275,-0.02306 C 5.8640299,2.0403314 5.9903604,1.9666144 6.039558,1.958086 6.054111,1.955406 6.08065,1.935561 6.09851,1.913625 6.116381,1.891688 6.131362,1.883609 6.131844,1.895648 6.1323094,1.907686 6.163358,1.893508 6.200833,1.86392 6.239035,1.833851 6.287671,1.817479 6.3115128,1.826628 c 0.027073,0.01038 0.035955,0.00567 0.024452,-0.012948 -0.011183,-0.018084 0.00995,-0.03253 0.055442,-0.03772 0.041466,-0.00482 0.070648,-0.022953 0.066902,-0.041679 -0.0061,-0.030497 0.040985,-0.044943 0.1165815,-0.035901 0.016586,0.00214 0.037453,-0.015302 0.046335,-0.038416 0.00888,-0.023114 0.028946,-0.034082 0.044676,-0.024398 0.015677,0.00974 0.042697,-0.00161 0.06,-0.024826 0.017282,-0.023381 0.063478,-0.04505 0.1026328,-0.048153 0.039166,-0.00321 0.065361,-0.015141 0.058235,-0.026645 -0.012145,-0.019689 0.045747,-0.031728 0.1134247,-0.023595 0.01664,0.00214 0.036811,-0.01359 0.04489,-0.03467 0.00899,-0.023595 0.035741,-0.032798 0.069481,-0.02397 0.03328,0.00877 0.054778,0.00161 0.054778,-0.018191 0,-0.018459 0.017817,-0.025682 0.041252,-0.016693 0.023649,0.0091 0.034297,0.00482 0.024987,-0.01038 -0.0145,-0.023488 0.056052,-0.038523 0.1361856,-0.029052 0.016319,0.00214 0.04366,-0.013376 0.060781,-0.033975 0.017122,-0.020599 0.055142,-0.031193 0.084505,-0.023488 0.033173,0.00867 0.068646,-0.00482 0.093719,-0.035954 0.028625,-0.035419 0.044302,-0.040342 0.054083,-0.016961 0.01038,0.024879 0.023703,0.02306 0.054286,-0.0076 0.023275,-0.023221 0.062055,-0.033707 0.09098,-0.024505 0.029267,0.00931 0.067951,-0.00161 0.092124,-0.025682 0.047031,-0.04703 0.091054,-0.054638 0.091054,-0.015784 0,0.016372 0.023489,0.017014 0.063713,0.00161 0.035046,-0.013322 0.071921,-0.015998 0.081948,-0.00599 0.010059,0.00995 0.014232,0.00214 0.00931,-0.017656 -0.00877,-0.035633 0.097325,-0.054927 0.3225532,-0.058597 0.067405,-0.00107 0.081702,-0.00813 0.053184,-0.026217 C 8.4800806,1.060824 8.6187536,1.050283 8.8776578,1.061733 8.9726718,1.066013 9.0467435,1.055523 9.0721261,1.0345 9.1183011,0.9961914 9.5003566,0.9843136 9.5561085,1.019466 c 0.024666,0.01557 0.033173,0.088495 0.029802,0.2557688 l -0.00482,0.2339929 -0.096244,0.014446 c -0.052916,0.00792 -0.199915,0.00942 -0.3266303,0.00321 -0.1643184,-0.00792 -0.2509746,-4.655e-4 -0.3021733,0.02611 -0.042108,0.02183 -0.1086521,0.031246 -0.1609583,0.022792 -0.054864,-0.00888 -0.1239437,0.00214 -0.1795565,0.028411 -0.049706,0.023595 -0.1487111,0.044515 -0.2199901,0.046441 -0.071279,0.00214 -0.1549925,0.019315 -0.1860252,0.03863 -0.031033,0.019261 -0.082258,0.028303 -0.1138367,0.02001 -0.035313,-0.0092 -0.07756,0.00321 -0.1097007,0.032316 -0.040289,0.036436 -0.052381,0.038737 -0.052702,0.00995 -3.531e-4,-0.032049 -0.00375,-0.032049 -0.024077,-5.3e-6 -0.013002,0.020545 -0.060664,0.036275 -0.105918,0.034991 -0.045265,-0.00107 -0.082269,0.00888 -0.082269,0.022471 0,0.013643 -0.034618,0.024772 -0.076897,0.024772 -0.042697,0 -0.083478,0.017175 -0.091707,0.038576 -0.00835,0.021937 -0.038309,0.034082 -0.069289,0.028089 -0.029963,-0.00578 -0.054479,5.351e-4 -0.054479,0.014072 0,0.027073 -0.1269079,0.067029 -0.1794121,0.056489 -0.018245,-0.00375 -0.033226,0.00578 -0.033226,0.02108 0,0.015248 -0.022472,0.027768 -0.04992,0.027768 -0.027448,0 -0.064794,0.017924 -0.082997,0.03986 -0.018192,0.021937 -0.042804,0.03986 -0.054682,0.03986 -0.011878,0 -0.049278,0.010594 -0.083136,0.023381 -0.033868,0.012894 -0.073494,0.025682 -0.088112,0.028464 -0.014607,0.00268 -0.046175,0.022792 -0.070123,0.044462 -0.023917,0.021669 -0.067972,0.041251 -0.097828,0.043499 -0.029856,0.00214 -0.048422,0.01359 -0.041252,0.025147 0.012039,0.019475 -0.028358,0.031995 -0.077239,0.02397 -0.011343,-0.00161 -0.027555,0.014607 -0.036009,0.036597 -0.00845,0.02199 -0.025629,0.0336 -0.038149,0.025842 -0.012574,-0.00781 -0.047619,0.010701 -0.077924,0.040984 -0.030284,0.030283 -0.065372,0.048742 -0.077924,0.040984 -0.012574,-0.0077 -0.029963,0.00428 -0.038737,0.027287 -0.00867,0.022793 -0.026699,0.034724 -0.039861,0.026591 -0.013216,-0.00813 -0.030819,0.00321 -0.039219,0.024879 -0.00845,0.021829 -0.033548,0.0397 -0.055944,0.0397 -0.022365,0 -0.065062,0.024344 -0.094832,0.054124 -0.029749,0.029748 -0.065051,0.047351 -0.078406,0.039111 -0.013323,-0.00824 -0.037239,0.00931 -0.05313,0.038897 -0.015891,0.029641 -0.054339,0.053899 -0.085511,0.053899 -0.03114,0 -0.049064,0.0076 -0.039861,0.0168 0.019583,0.019582 -0.095506,0.1160762 -0.1384061,0.1160762 -0.015944,0 -0.029053,0.01268 -0.029053,0.028143 0,0.015462 -0.011076,0.021294 -0.024666,0.012894 -0.01359,-0.00835 -0.032317,0.00888 -0.04168,0.038309 -0.015409,0.048635 -0.044891,0.06536 -0.099797,0.056692 -0.010968,-0.00161 -0.016961,0.011824 -0.013269,0.030069 0.00375,0.018245 -0.00824,0.03023 -0.026592,0.026591 -0.018299,-0.00375 -0.033226,0.011289 -0.033226,0.033226 0,0.021937 -0.019957,0.03986 -0.044302,0.03986 -0.024345,0 -0.037186,0.00717 -0.028518,0.015784 0.00867,0.00867 -0.028197,0.053076 -0.081948,0.098639 C 4.9969453,3.3833653 4.7788707,3.587883 4.7939697,3.587883 c 0.0076,0 -0.046924,0.061101 -0.1212042,0.1357869 -0.074297,0.07468 -0.1350727,0.1464449 -0.1350727,0.159473 0,0.013055 -0.00899,0.020706 -0.019957,0.017068 -0.010968,-0.00375 -0.019957,-5.351e-4 -0.020011,0.00663 -3.263e-4,0.04184 -0.130177,0.1861232 -0.1678282,0.1864656 -0.038577,3.531e-4 -0.039219,0.00375 -0.00482,0.026163 0.034082,0.022043 0.033119,0.025842 -0.00663,0.026163 -0.025575,2.14e-4 -0.043981,0.00931 -0.040878,0.020331 0.01145,0.040449 -0.062429,0.1404364 -0.09083,0.1228872 -0.01771,-0.010968 -0.02183,-0.00599 -0.01038,0.01252 0.01038,0.016854 0.00556,0.030658 -0.010755,0.030658 -0.016372,0 -0.022258,0.012038 -0.013162,0.026752 0.0091,0.014714 -0.00214,0.033921 -0.02488,0.042642 -0.022793,0.00877 -0.035795,0.024986 -0.028893,0.036115 0.00696,0.011129 -0.010861,0.041358 -0.039379,0.067211 -0.028571,0.025842 -0.045479,0.057334 -0.037667,0.069993 0.00781,0.01268 -0.00321,0.023007 -0.024238,0.023007 -0.021188,0 -0.036811,0.02092 -0.034778,0.046495 0.00214,0.025575 -0.011289,0.043498 -0.029535,0.03986 -0.018299,-0.00375 -0.030872,0.00214 -0.027929,0.013269 0.00984,0.037399 -0.035367,0.1395429 -0.061787,0.1395429 -0.0145,0 -0.018887,0.012038 -0.00974,0.026752 0.0091,0.014714 -0.00214,0.033921 -0.02488,0.042642 -0.022793,0.00877 -0.036918,0.023595 -0.031407,0.033012 0.018834,0.032263 -0.036383,0.1402063 -0.063253,0.1236041 -0.014714,-0.0091 -0.026806,0.00813 -0.026806,0.038148 0,0.030123 -0.013216,0.054723 -0.029428,0.054723 -0.016158,0 -0.023061,0.016586 -0.015302,0.03681 0.0077,0.020224 -0.00428,0.062803 -0.026324,0.094552 -0.022258,0.031728 -0.043125,0.075954 -0.046389,0.098211 -0.00321,0.022258 -0.020706,0.049598 -0.038684,0.060705 -0.018031,0.011129 -0.030712,0.031139 -0.028197,0.044408 0.010594,0.056232 -0.00375,0.092497 -0.030123,0.0762 -0.01557,-0.00963 -0.026164,-0.00161 -0.023435,0.018352 0.010487,0.076606 -0.00268,0.1313301 -0.027662,0.1158194 -0.015088,-0.00931 -0.019529,0.00161 -0.010487,0.024986 0.00877,0.022685 0.00268,0.041251 -0.01359,0.041251 -0.016158,0 -0.029428,0.029908 -0.029428,0.066441 0,0.036543 -0.010166,0.066452 -0.022525,0.066452 -0.012413,0 -0.023596,0.037078 -0.02488,0.082406 -0.00107,0.045318 -0.02183,0.1039576 -0.045693,0.1302921 -0.023863,0.026324 -0.041145,0.064012 -0.038416,0.083712 0.00995,0.072508 -0.00214,0.1049634 -0.032103,0.086419 -0.021937,-0.013537 -0.026003,0.00482 -0.014179,0.063851 0.011182,0.055783 0.00375,0.095547 -0.022365,0.1217636 -0.021402,0.021401 -0.031621,0.057902 -0.02274,0.081101 0.00888,0.02322 0.00161,0.059903 -0.016533,0.081572 -0.017978,0.021669 -0.026538,0.062931 -0.018994,0.091716 0.00749,0.028785 -0.00321,0.066216 -0.023542,0.083198 -0.0229,0.019047 -0.035527,0.075087 -0.032852,0.1459472 0.00214,0.063284 -0.00728,0.130565 -0.021455,0.1495053 -0.014179,0.01894 -0.028357,0.1482318 -0.031461,0.2873146 -0.00321,0.1390827 -0.018299,0.3184965 -0.033654,0.3986931 -0.015409,0.080191 -0.03007,0.1876694 -0.032638,0.238835 l -0.00482,0.093032 -0.2170686,0.0077 C 2.5929263,8.131342 2.4887151,8.124382 2.4807322,8.111275 Z M 8.4112126,1.6048301 c -0.00888,-0.00888 -0.031782,-0.00974 -0.050937,-0.00214 -0.021188,0.00856 -0.014928,0.014767 0.016051,0.016051 0.028036,0.00107 0.043713,-0.00535 0.034885,-0.013964 z"
       id="path4630"
       inkscape:connector-curvature="0" />
    <path
       style="fill:#176da9;fill-opacity:1;stroke:#176da9;stroke-width:0.0248387;stroke-opacity:0.78947401"
       d="m 3.4532449,7.9999127 c 0.011664,-0.080395 0.026752,-0.2742597 0.033548,-0.4307899 0.00674,-0.1565303 0.031407,-0.3581963 0.054714,-0.4481413 0.023328,-0.08994 0.036169,-0.169767 0.028518,-0.177386 -0.0076,-0.0076 -0.00161,-0.03681 0.013483,-0.064932 0.015035,-0.028089 0.030177,-0.077366 0.033654,-0.1094685 0.014767,-0.1367927 0.081445,-0.3805875 0.1148586,-0.4199929 0.019904,-0.023488 0.029374,-0.060416 0.021027,-0.082117 -0.00835,-0.021723 0.00321,-0.054681 0.025629,-0.073311 0.022418,-0.018619 0.034457,-0.044141 0.026645,-0.056693 -0.0077,-0.012573 0.016265,-0.087115 0.053451,-0.165674 0.037186,-0.078554 0.067576,-0.1609337 0.067576,-0.1830681 0,-0.02215 0.028892,-0.082792 0.064174,-0.1348132 0.035313,-0.052005 0.057229,-0.1015285 0.048743,-0.1100249 -0.00856,-0.00856 -0.00107,-0.015462 0.016693,-0.015462 0.01771,0 0.029802,-0.014927 0.026913,-0.033226 -0.00728,-0.046227 0.078224,-0.2325697 0.1067099,-0.2325697 0.012841,0 0.030658,-0.029159 0.039594,-0.064846 0.021188,-0.084322 0.1763783,-0.333836 0.2076679,-0.333836 0.013323,0 0.017068,-0.011503 0.00835,-0.025628 -0.00877,-0.014071 0.00749,-0.048956 0.036062,-0.077527 0.028571,-0.028571 0.044944,-0.058897 0.036383,-0.067415 -0.00856,-0.00856 -0.00161,-0.015516 0.015516,-0.015516 0.017068,0 0.031033,-0.013215 0.031033,-0.029374 0,-0.02734 0.1213487,-0.1936779 0.2126385,-0.2914451 C 4.7987628,4.3331681 4.8705238,4.2468238 4.936302,4.164776 5.002091,4.082723 5.0715727,4.0150193 5.090706,4.0143077 5.109861,4.0137726 5.119385,4.0031257 5.111947,3.9910867 5.093862,3.9618197 5.4522906,3.6075832 5.4759932,3.6312853 c 0.010166,0.010166 0.018994,0.00161 0.019583,-0.019154 5.35e-4,-0.020706 0.062151,-0.085499 0.1368116,-0.143973 0.074661,-0.058469 0.1489304,-0.1182751 0.1650567,-0.1328977 0.016105,-0.014607 0.077154,-0.061829 0.1356345,-0.1049099 0.05847,-0.043071 0.1146392,-0.090582 0.1248105,-0.1055413 0.010166,-0.014981 0.025522,-0.020171 0.034136,-0.011557 0.00867,0.00856 0.051739,-0.018031 0.095838,-0.059218 0.049973,-0.046655 0.096309,-0.068688 0.1230341,-0.058437 0.027822,0.010594 0.036383,0.00589 0.024345,-0.013483 C 6.3203146,2.9579304 6.4394913,2.869425 6.5045209,2.856429 6.5119009,2.854819 6.5656019,2.824648 6.6240291,2.789025 6.6824451,2.753392 6.745244,2.727721 6.7635748,2.731926 c 0.018352,0.00428 0.033333,-0.00321 0.033333,-0.017014 0,-0.013536 0.02092,-0.031888 0.046496,-0.04077 0.025575,-0.00888 0.099305,-0.046174 0.1638261,-0.08292 0.064516,-0.036757 0.1233498,-0.060748 0.1307389,-0.053343 0.00738,0.00738 0.032959,-0.00428 0.056886,-0.025896 0.023917,-0.021616 0.072702,-0.042589 0.1084755,-0.046602 0.035795,-0.00375 0.080332,-0.021722 0.099026,-0.039325 0.018673,-0.017656 0.051472,-0.025361 0.072863,-0.017175 0.022097,0.00845 0.046174,-0.00428 0.055816,-0.029213 0.00931,-0.024291 0.032959,-0.037988 0.052542,-0.030497 0.019583,0.00749 0.068871,-0.00375 0.1095349,-0.024933 C 7.7337762,2.302997 7.8088911,2.278064 7.8600577,2.268765 7.9112087,2.259455 7.9675112,2.240462 7.9851464,2.226444 8.0028034,2.21248 8.0301974,2.209109 8.0461204,2.218954 8.0620114,2.228794 8.1040874,2.217884 8.1395934,2.194503 8.1751204,2.171229 8.2732536,2.147794 8.3577055,2.142444 8.4421575,2.137094 8.5428639,2.119973 8.5814997,2.104456 8.6201297,2.088887 8.6759567,2.08252 8.7055558,2.090278 8.7351438,2.097978 8.8249944,2.085458 8.9052033,2.061975 8.9961403,2.035544 9.1525343,2.0196 9.320689,2.0196 h 0.2696584 l -0.00482,0.2657955 -0.00482,0.26579 -0.2292999,0.00375 c -0.3592789,0.00546 -0.5194399,0.018512 -0.5988731,0.048688 -0.040396,0.015356 -0.084644,0.021027 -0.09832,0.012573 -0.013697,-0.00845 -0.069481,-3.692e-4 -0.1240239,0.017977 -0.054543,0.018352 -0.1170951,0.035633 -0.1390267,0.038469 -0.021937,0.00268 -0.093698,0.019529 -0.1594762,0.037185 -0.065789,0.017656 -0.1446875,0.034082 -0.1753404,0.036543 -0.030658,0.00268 -0.073623,0.019315 -0.095474,0.037453 -0.02183,0.018138 -0.047245,0.025521 -0.056405,0.016319 -0.0091,-0.0092 -0.047298,0.00321 -0.08473,0.027929 -0.037453,0.024558 -0.103446,0.047083 -0.1466671,0.050133 -0.043232,0.00321 -0.084826,0.021723 -0.092456,0.041519 -0.0076,0.019796 -0.030819,0.029481 -0.051579,0.021508 -0.02076,-0.00803 -0.052007,0.00268 -0.069481,0.023809 -0.017496,0.02108 -0.051579,0.038309 -0.075773,0.038309 -0.024184,0 -0.070594,0.018619 -0.1031143,0.041412 -0.032531,0.022793 -0.069802,0.034777 -0.082868,0.026752 -0.013055,-0.00813 -0.031247,0.00482 -0.04045,0.028838 -0.0092,0.023916 -0.024024,0.036169 -0.033012,0.027233 -0.00899,-0.00899 -0.047566,0.00535 -0.085757,0.031728 -0.069171,0.047832 -0.1568973,0.089908 -0.1966727,0.094263 -0.011504,0.00107 -0.029428,0.015623 -0.039861,0.031942 -0.010487,0.016319 -0.045854,0.038041 -0.07877,0.048314 -0.032905,0.010273 -0.059797,0.031086 -0.059797,0.046281 0,0.015195 -0.017924,0.020759 -0.039861,0.012359 -0.021937,-0.00845 -0.039861,-0.00375 -0.039861,0.010059 0,0.028999 -0.2155385,0.1733625 -0.245865,0.1646789 -0.010968,-0.00321 -0.019957,0.00567 -0.019957,0.019582 0,0.013911 -0.05083,0.060887 -0.1129646,0.1043643 C 6.1428845,3.7346537 6.0621513,3.7980881 6.0256023,3.8321645 5.9890583,3.8662465 5.8884322,3.9538211 5.8019953,4.0268108 5.6340065,4.168665 5.494006,4.3025151 5.494006,4.3212735 c 0,0.013536 -0.1227077,0.1574398 -0.2007872,0.235507 -0.030016,0.030016 -0.083532,0.096456 -0.1188875,0.1476166 -0.035367,0.05115 -0.085543,0.1162153 -0.1115252,0.1445508 -0.02595,0.028357 -0.047245,0.060373 -0.047245,0.071203 0,0.010808 -0.016051,0.035741 -0.035688,0.055376 -0.019636,0.019636 -0.066432,0.084365 -0.1039811,0.1438392 -0.03756,0.059475 -0.08747,0.1273387 -0.1109474,0.1508161 -0.023489,0.023488 -0.039487,0.052327 -0.035634,0.064055 0.00375,0.011771 -0.022044,0.069202 -0.057689,0.1276758 -0.035634,0.058469 -0.062515,0.1152843 -0.059754,0.1262472 0.00268,0.010968 -0.00599,0.019957 -0.019476,0.019957 -0.01343,0 -0.032531,0.036703 -0.042376,0.08154 -0.00984,0.044836 -0.035099,0.08812 -0.056062,0.096178 -0.023435,0.00899 -0.032049,0.033975 -0.022258,0.064643 0.00877,0.027661 0.00321,0.050026 -0.01252,0.050026 -0.015623,0 -0.028358,0.010487 -0.028358,0.023328 0,0.012841 -0.020171,0.06964 -0.044784,0.1262472 -0.024666,0.056607 -0.042376,0.1125289 -0.039379,0.1242783 0.00321,0.011771 -0.012841,0.039646 -0.035153,0.061946 -0.022311,0.022311 -0.033494,0.052112 -0.024773,0.066184 0.00877,0.014072 5.351e-4,0.043766 -0.01771,0.066002 -0.018459,0.022204 -0.037988,0.083979 -0.043446,0.1372315 -0.00546,0.053236 -0.021937,0.1112983 -0.036651,0.128992 -0.01466,0.01771 -0.029963,0.060063 -0.033975,0.094166 -0.00375,0.034082 -0.014179,0.079956 -0.022633,0.1018816 -0.029588,0.076938 -0.1085558,0.4929452 -0.1160411,0.611322 -0.00428,0.065788 -0.019743,0.1840472 -0.034671,0.2628046 -0.014928,0.078768 -0.023275,0.1944109 -0.01862,0.2569995 0.00482,0.062589 0.00107,0.1254928 -0.0077,0.1397889 -0.00888,0.014285 -0.130407,0.03023 -0.2700169,0.035366 l -0.2538265,0.00931 z"
       id="path4632"
       inkscape:connector-curvature="0" />
    <path
       style="fill:#176da9;fill-opacity:1;stroke:#176da9;stroke-width:0.0248387;stroke-opacity:0.78947401"
       d="m 6.5398258,12.654639 c -0.00717,-0.02739 -0.048261,-0.07584 -0.091279,-0.10766 -0.043018,-0.03184 -0.071044,-0.0695 -0.062247,-0.08374 0.00888,-0.01423 0.00621,-0.02263 -0.00589,-0.01862 -0.012039,0.0037 -0.024933,-0.0016 -0.028679,-0.01252 -0.00375,-0.01091 -0.043713,-0.05511 -0.088839,-0.09825 -0.049492,-0.0473 -0.07419,-0.09117 -0.062226,-0.110544 0.012681,-0.02049 0.00867,-0.0252 -0.011022,-0.013 -0.017871,0.01102 -0.038523,-0.0011 -0.048957,-0.02911 -0.00995,-0.02654 -0.036811,-0.06276 -0.059626,-0.08058 -0.022846,-0.01782 -0.032049,-0.03274 -0.020546,-0.03323 0.022311,-0.0011 -0.018406,-0.05671 -0.092724,-0.12706 -0.024826,-0.02349 -0.039058,-0.05259 -0.031675,-0.06458 0.00738,-0.01204 0.00107,-0.02183 -0.01466,-0.02183 -0.015463,0 -0.028143,-0.01792 -0.028143,-0.03986 0,-0.02194 -0.017924,-0.03986 -0.039861,-0.03986 -0.035955,0 -0.051686,-0.03157 -0.043018,-0.08638 0.00161,-0.01097 -0.00877,-0.01996 -0.023435,-0.01996 -0.014607,0 -0.026592,-0.01792 -0.026592,-0.03986 0,-0.02194 -0.013965,-0.03986 -0.031033,-0.03986 -0.017068,0 -0.023114,-0.0079 -0.013483,-0.01755 0.00963,-0.0096 -0.00631,-0.03424 -0.03542,-0.05467 -0.02916,-0.02044 -0.05297,-0.06036 -0.05297,-0.08876 0,-0.02841 -0.017924,-0.05163 -0.039861,-0.05163 -0.021937,0 -0.039861,-0.01648 -0.039861,-0.0366 0,-0.02012 -0.018352,-0.05185 -0.040771,-0.07043 -0.022418,-0.01862 -0.036437,-0.04676 -0.031193,-0.06255 0.00535,-0.01578 -0.017228,-0.05762 -0.050027,-0.09297 -0.032745,-0.03531 -0.080364,-0.11033 -0.1057468,-0.166642 -0.025415,-0.05631 -0.055934,-0.102385 -0.067876,-0.102385 -0.011932,0 -0.014821,-0.01792 -0.00642,-0.03986 0.00835,-0.02194 0.00161,-0.03986 -0.015677,-0.03986 -0.017068,0 -0.023596,-0.01198 -0.014553,-0.02659 0.00899,-0.01461 0.00375,-0.02659 -0.011718,-0.02659 -0.015463,0 -0.028143,-0.02263 -0.028143,-0.05029 0,-0.02766 -0.018727,-0.0575 -0.041573,-0.06626 -0.022846,-0.0088 -0.033601,-0.02878 -0.023917,-0.04446 0.00974,-0.01568 -0.00107,-0.0427 -0.024398,-0.06 -0.023114,-0.01728 -0.04596,-0.05806 -0.050723,-0.09057 -0.00482,-0.03253 -0.016961,-0.0674 -0.027073,-0.07753 -0.010059,-0.01017 -0.018406,-0.03906 -0.018406,-0.06429 0,-0.02525 -0.020599,-0.05378 -0.045747,-0.06344 -0.035527,-0.01364 -0.037988,-0.02237 -0.011075,-0.039 0.027662,-0.01707 0.026592,-0.02456 -0.00535,-0.03681 C 4.901014,10.108228 4.892614,10.082868 4.90278,10.044098 4.913374,10.003488 4.90867,9.991076 4.887424,10.004188 4.867146,10.016708 4.856659,9.999908 4.856659,9.954376 4.856659,9.916495 4.839484,9.878925 4.818457,9.870878 4.79743,9.862848 4.786675,9.839578 4.794487,9.819247 4.802297,9.798916 4.789667,9.763154 4.766236,9.739815 4.727873,9.701453 4.711415,9.633011 4.720971,9.5518727 4.723111,9.5355537 4.707595,9.5082137 4.686995,9.4910927 4.666396,9.4739717 4.655748,9.4361127 4.663399,9.4069417 4.671209,9.3771937 4.657729,9.3322077 4.632634,9.3045678 4.6034789,9.2723531 4.5871064,9.2058481 4.5853943,9.1127357 4.5837892,9.0343636 4.5681658,8.9488166 4.5503487,8.9226426 4.5309265,8.8941786 4.5232753,8.8277699 4.531194,8.7572521 4.5399688,8.6792866 4.5295889,8.608635 4.5012314,8.5483257 4.4524885,8.4455773 4.4465602,8.398783 4.4823442,8.398783 c 0.024666,0 0.01573,-0.2974107 -0.013002,-0.4319617 -0.00856,-0.040342 0.00428,-0.1334007 0.029053,-0.2075193 0.025896,-0.077933 0.0397,-0.1812061 0.032905,-0.2458171 -0.00653,-0.061283 0.00214,-0.1413299 0.019315,-0.1778729 0.017122,-0.036543 0.03328,-0.1313943 0.035902,-0.2107777 0.00321,-0.089875 0.021027,-0.1622444 0.04778,-0.1918212 0.023703,-0.026217 0.036758,-0.071278 0.029107,-0.1005655 -0.0076,-0.02916 0.00321,-0.067286 0.024238,-0.084675 0.020974,-0.017389 0.036276,-0.050721 0.034083,-0.07407 -0.0091,-0.095237 0.00268,-0.1381304 0.033173,-0.1193881 0.020653,0.012787 0.025629,0.00482 0.014767,-0.023274 -0.00899,-0.023381 -0.00535,-0.046281 0.00803,-0.050882 0.013376,-0.00482 0.029749,-0.038255 0.036383,-0.074809 0.00663,-0.036543 0.014767,-0.072433 0.018085,-0.079742 0.00321,-0.00738 0.00824,-0.025254 0.011129,-0.03986 0.00268,-0.014606 0.018941,-0.060256 0.035795,-0.1014001 0.016908,-0.041144 0.030712,-0.084547 0.030712,-0.096414 0,-0.011878 0.018459,-0.036918 0.041092,-0.055687 0.022579,-0.01878 0.035313,-0.049116 0.028251,-0.0675 -0.00706,-0.018405 0.00535,-0.040288 0.027073,-0.048742 0.021937,-0.00835 0.03328,-0.025949 0.025254,-0.038951 -0.00803,-0.013001 0.0091,-0.053846 0.038202,-0.090764 0.029053,-0.036918 0.052809,-0.08018 0.052809,-0.096157 0,-0.015998 0.011985,-0.029052 0.026592,-0.029052 0.014607,0 0.026592,-0.021508 0.026592,-0.047832 0,-0.026324 0.014981,-0.062792 0.033226,-0.081069 0.018299,-0.018298 0.033761,-0.047565 0.034457,-0.065125 5.35e-4,-0.017549 0.016158,-0.028731 0.03451,-0.024826 0.018834,0.00375 0.029856,-0.013322 0.025361,-0.03986 -0.00482,-0.027661 0.00653,-0.043927 0.027287,-0.039646 0.019369,0.00428 0.027876,-0.00428 0.018941,-0.018994 -0.00899,-0.014446 0.00813,-0.050614 0.037881,-0.080395 0.029749,-0.029748 0.057122,-0.063102 0.060771,-0.07407 0.00375,-0.010968 0.014179,-0.017389 0.023435,-0.014339 0.0092,0.00321 0.015249,-0.014553 0.013269,-0.039218 -0.00214,-0.024665 0.014446,-0.045425 0.03633,-0.04612 0.021937,-5.35e-4 0.038202,-0.021936 0.036169,-0.047137 -0.00214,-0.025254 0.012895,-0.045853 0.033226,-0.045853 0.020278,0 0.033922,-0.010166 0.030284,-0.022525 -0.010701,-0.036222 0.2003057,-0.2730238 0.2659934,-0.2985236 0.033013,-0.012841 0.056929,-0.03772 0.05313,-0.055333 -0.00375,-0.017603 0.026057,-0.048421 0.06626,-0.068485 0.040182,-0.020064 0.073098,-0.051899 0.073098,-0.070743 0,-0.044354 0.091889,-0.1278416 0.1151207,-0.1046103 0.00974,0.00974 0.017764,-1.552e-4 0.017764,-0.022043 0,-0.035901 0.1866192,-0.2082255 0.2255331,-0.2082255 0.00888,0 0.048261,-0.029909 0.087673,-0.066452 0.039433,-0.036543 0.085458,-0.066452 0.1023117,-0.066452 0.016854,0 0.037828,-0.018673 0.046603,-0.041572 0.00877,-0.022846 0.027983,-0.034082 0.042697,-0.02504 0.014714,0.0091 0.026752,0.00321 0.026752,-0.013162 0,-0.016372 0.011343,-0.022686 0.025254,-0.014125 0.013858,0.00856 0.038202,-0.00867 0.054093,-0.038309 0.015891,-0.029641 0.051043,-0.05391 0.078224,-0.05391 0.02718,0 0.056929,-0.019636 0.066143,-0.043659 0.0092,-0.024023 0.024291,-0.036168 0.03344,-0.026966 0.0091,0.0092 0.030177,-0.00161 0.046603,-0.024237 0.016479,-0.022525 0.047566,-0.044462 0.069075,-0.048742 0.074061,-0.014767 0.1455275,-0.052487 0.177839,-0.09391 0.02809,-0.036061 0.032584,-0.036275 0.034083,-0.00161 0.00107,0.030604 0.010754,0.027875 0.040717,-0.011717 0.021455,-0.028357 0.039005,-0.042482 0.039005,-0.0313 0,0.011129 0.018299,0.00214 0.04061,-0.020385 0.022365,-0.022365 0.056694,-0.034456 0.076309,-0.026966 0.019636,0.00749 0.043125,-0.00567 0.052221,-0.029374 0.0091,-0.023702 0.029321,-0.035152 0.044998,-0.025521 0.015623,0.00974 0.051793,-0.00375 0.080268,-0.02932 0.028518,-0.025789 0.087041,-0.046923 0.1300807,-0.046923 0.043018,0 0.084302,-0.01573 0.091675,-0.034991 0.00738,-0.019261 0.03221,-0.027768 0.055302,-0.01894 0.023007,0.00888 0.063617,-0.00375 0.090209,-0.027715 0.026592,-0.024077 0.094928,-0.045264 0.1518465,-0.047083 0.056918,-0.00161 0.1251957,-0.018138 0.1517233,-0.036276 0.026538,-0.018138 0.070155,-0.02718 0.096961,-0.020224 0.026806,0.00696 0.076758,-0.00214 0.1110063,-0.020599 0.034243,-0.018352 0.1133818,-0.032798 0.1758433,-0.032102 0.062461,5.35e-4 0.120102,-0.00931 0.128101,-0.022258 0.00792,-0.012948 0.064644,-0.017335 0.1258966,-0.00974 0.073986,0.0091 0.09389,0.00621 0.059294,-0.00888 -0.035313,-0.015409 0.036972,-0.028089 0.2248376,-0.039539 0.2045219,-0.012466 0.2823766,-0.00845 0.2978609,0.01557 0.011503,0.01787 0.017978,0.2357799 0.014393,0.484299 l -0.00653,0.4518437 -0.2591502,0.0076 C 9.1994389,4.0117084 9.08282,4.0256194 9.08282,4.0385672 c 0,0.031567 -0.1220497,0.056478 -0.2958865,0.060427 -0.078406,0.00161 -0.1578818,0.018566 -0.1766084,0.037292 -0.018727,0.018726 -0.052114,0.027126 -0.074147,0.018673 -0.022044,-0.00845 -0.061851,0.00428 -0.088454,0.028357 -0.026592,0.024077 -0.091932,0.045425 -0.1451958,0.047404 -0.053237,0.00214 -0.096854,0.013643 -0.096854,0.025896 0,0.012252 -0.029321,0.022258 -0.065126,0.022258 -0.035795,0 -0.077325,0.02092 -0.092221,0.046495 -0.014928,0.025575 -0.027448,0.031942 -0.027929,0.014072 -4.976e-4,-0.019796 -0.037614,-0.00738 -0.09542,0.031781 -0.05206,0.035312 -0.1118463,0.057591 -0.1329004,0.049491 -0.024131,-0.0092 -0.038309,0.00214 -0.038309,0.030872 0,0.02841 -0.014179,0.040128 -0.037667,0.031086 -0.020706,-0.00792 -0.044248,0.00268 -0.052328,0.023756 -0.00803,0.021027 -0.037507,0.038202 -0.065393,0.038202 -0.027929,0 -0.065522,0.017817 -0.083585,0.039593 -0.018085,0.021776 -0.042215,0.033814 -0.053633,0.026752 -0.01145,-0.00706 -0.028304,0.00674 -0.037507,0.030658 -0.0092,0.023916 -0.024184,0.036008 -0.033387,0.026859 -0.0091,-0.0092 -0.029802,4.066e-4 -0.045907,0.021294 -0.016051,0.02092 -0.046442,0.041626 -0.067534,0.04612 -0.021081,0.00428 -0.072092,0.041572 -0.1133658,0.082524 -0.041252,0.04093 -0.087116,0.066955 -0.1018731,0.057827 -0.014767,-0.0091 -0.023542,-5.35e-4 -0.019529,0.018619 0.00428,0.019368 -0.0076,0.032209 -0.02595,0.028571 -0.018299,-0.00375 -0.033226,0.011289 -0.033226,0.033226 0,0.021936 -0.0091,0.03986 -0.020225,0.03986 -0.011129,0 -0.05297,0.03039 -0.093034,0.067532 -0.040075,0.037132 -0.072831,0.060641 -0.072831,0.05222 0,-0.00835 -0.037079,0.026966 -0.082408,0.078575 -0.045319,0.051631 -0.095024,0.086077 -0.1104285,0.076564 -0.015837,-0.00974 -0.020225,-0.00482 -0.010059,0.011717 0.00984,0.015944 -0.030177,0.079549 -0.088925,0.1413299 -0.058759,0.061775 -0.106849,0.1243265 -0.106849,0.1390025 0,0.01466 -0.0076,0.019047 -0.017014,0.00974 -0.00942,-0.00931 -0.038202,0.021562 -0.06412,0.068667 -0.025896,0.047137 -0.061006,0.082385 -0.077999,0.078372 -0.016961,-0.00428 -0.023328,0.00482 -0.014125,0.019796 0.0092,0.014927 -0.016051,0.057538 -0.056191,0.094723 -0.040129,0.037185 -0.07481,0.09285 -0.07709,0.1236951 -0.00214,0.030872 -0.023917,0.070561 -0.048154,0.08827 -0.024184,0.01771 -0.044034,0.045799 -0.044034,0.062482 0,0.01664 -0.01161,0.030283 -0.025736,0.030283 -0.014179,0 -0.01969,0.01573 -0.012306,0.034938 0.00738,0.019208 -0.016372,0.067072 -0.052702,0.1063224 -0.036383,0.039272 -0.051739,0.071748 -0.03419,0.072208 0.01755,4.655e-4 0.00984,0.017603 -0.017229,0.038095 -0.02702,0.020492 -0.041252,0.050079 -0.031514,0.065799 0.00963,0.015677 -0.00107,0.035794 -0.024398,0.044676 -0.023114,0.00888 -0.040396,0.029694 -0.038416,0.046334 0.00856,0.071759 -0.00546,0.1222184 -0.045158,0.1618807 -0.023328,0.023328 -0.035527,0.060534 -0.02702,0.082642 0.00877,0.022793 -0.00214,0.046923 -0.025094,0.055751 -0.022311,0.00856 -0.038684,0.034991 -0.036383,0.058801 0.0092,0.095814 -0.00268,0.1389918 -0.033066,0.1201853 -0.021081,-0.013055 -0.025468,-0.00428 -0.01359,0.026431 0.00974,0.025254 -0.00161,0.074745 -0.025201,0.1108114 -0.032317,0.04933 -0.03542,0.073995 -0.012681,0.1013894 0.0229,0.027554 0.019904,0.044622 -0.012467,0.071481 -0.029374,0.024344 -0.038898,0.064504 -0.030819,0.1297784 0.00642,0.051952 -5.351e-4,0.1244067 -0.015784,0.1609497 -0.036062,0.087254 -0.044088,1.0387734 -0.0092,1.084321 0.0145,0.01894 0.024345,0.088442 0.021883,0.1544544 -0.00268,0.073685 0.010059,0.1345991 0.033226,0.1577929 0.02076,0.020759 0.031461,0.061979 0.023703,0.091545 -0.00781,0.029587 -0.00107,0.069276 0.014553,0.088228 0.01573,0.01894 0.021241,0.062621 0.012253,0.097045 -0.011397,0.043605 -0.00706,0.05681 0.014393,0.043552 0.020653,-0.012734 0.030765,0.00674 0.030765,0.059036 0,0.04291 0.017228,0.092347 0.038309,0.109827 0.021081,0.017496 0.031193,0.050347 0.022472,0.073 -0.0092,0.023756 0.00268,0.051631 0.028144,0.06582 0.024184,0.013537 0.044034,0.044943 0.044141,0.069801 9.09e-5,0.024879 0.017335,0.078083 0.038309,0.1182859 0.027662,0.053022 0.029428,0.073257 0.00653,0.073685 -0.017389,3.264e-4 -0.00428,0.021723 0.029374,0.047565 0.033548,0.025842 0.063007,0.073097 0.065404,0.1050378 0.00214,0.03194 0.020546,0.06427 0.040343,0.07187 0.019743,0.0076 0.028465,0.02595 0.019262,0.04077 -0.0091,0.01482 0.00214,0.03408 0.024773,0.04286 0.022793,0.0088 0.034243,0.0275 0.025415,0.04173 -0.00877,0.01423 0.00952,0.04954 0.04061,0.07853 0.03114,0.029 0.049599,0.06396 0.041145,0.0777 -0.00856,0.01375 0.00428,0.02499 0.028197,0.02499 0.024024,0 0.039219,0.01337 0.033761,0.02975 -0.00546,0.01637 0.023382,0.06542 0.064131,0.109019 0.040717,0.04361 0.067405,0.09001 0.059294,0.103144 -0.00813,0.01311 0.00589,0.02386 0.031086,0.02386 0.025254,0 0.039165,0.0067 0.030979,0.01493 -0.00813,0.0081 0.013751,0.04355 0.048743,0.07852 0.034992,0.03499 0.063628,0.08281 0.063628,0.10628 0,0.02343 0.010594,0.03612 0.023542,0.02809 0.029267,-0.01808 0.088829,0.04965 0.064794,0.07367 -0.00963,0.0096 0.00268,0.0175 0.026806,0.0175 0.024345,0 0.041306,0.01493 0.037667,0.03323 -0.00375,0.0183 0.00835,0.03023 0.026592,0.02659 0.018299,-0.0037 0.033226,0.01129 0.033226,0.03323 0,0.02194 0.010755,0.03686 0.023917,0.03323 0.013162,-0.0037 0.024666,0.0027 0.025629,0.01423 0.00268,0.02975 0.08824,0.11201 0.1168169,0.11201 0.013162,0 0.040931,0.02322 0.061702,0.05158 0.02076,0.02836 0.037721,0.04034 0.037774,0.02659 2.14e-5,-0.01375 0.026913,0.0048 0.059808,0.04162 0.032852,0.03665 0.092659,0.08351 0.1328683,0.104172 0.040182,0.02065 0.073098,0.05345 0.073098,0.07293 0,0.01947 0.022151,0.03537 0.049278,0.03537 0.027073,0 0.080182,0.02862 0.1179672,0.06366 0.037774,0.03499 0.075131,0.05722 0.082997,0.04933 0.00781,-0.0078 0.02183,0.0054 0.031033,0.02921 0.0092,0.02392 0.026003,0.03777 0.037346,0.03077 0.011343,-0.0071 0.04901,0.009 0.083607,0.03547 0.07588,0.05821 0.1655115,0.09869 0.2372667,0.107157 0.015463,0.0016 0.019636,0.01712 0.0092,0.03403 -0.011985,0.01942 -0.00728,0.02344 0.012895,0.01102 0.017496,-0.01081 0.049278,-0.0053 0.070551,0.01247 0.021295,0.01766 0.039059,0.02167 0.03954,0.009 4.655e-4,-0.01273 0.017817,-5.35e-4 0.038577,0.02665 0.022311,0.02948 0.054982,0.04323 0.079893,0.03365 0.024773,-0.0095 0.048475,2.67e-4 0.057464,0.0237 0.00845,0.02194 0.028893,0.03825 0.045533,0.03627 0.016587,-0.0021 0.066078,-0.0011 0.1099362,0.0021 0.078919,0.0057 0.079069,0.006 0.013269,0.02707 -0.056319,0.01803 -0.058352,0.02194 -0.013269,0.02563 0.048208,0.0037 0.047405,0.0066 -0.0091,0.02927 -0.034243,0.0137 -0.071857,0.01899 -0.083596,0.01177 -0.011718,-0.0073 -0.028465,0.0055 -0.037239,0.0282 -0.00877,0.02279 -0.028732,0.03344 -0.044409,0.02376 -0.015677,-0.0096 -0.045319,0.0043 -0.0658,0.03151 -0.027662,0.03649 -0.037453,0.03932 -0.038095,0.01086 -5.351e-4,-0.0283 -0.010166,-0.02552 -0.036704,0.0107 -0.022579,0.03087 -0.048689,0.04109 -0.070551,0.02755 -0.022954,-0.01418 -0.028304,-0.01107 -0.01573,0.0092 0.01236,0.02001 -0.00375,0.03071 -0.0458,0.03071 -0.035634,0 -0.07954,0.01782 -0.097603,0.03959 -0.018085,0.02178 -0.044195,0.03258 -0.058095,0.02397 -0.013858,-0.0086 -0.047673,0.0048 -0.07511,0.02953 -0.027448,0.02483 -0.091632,0.04516 -0.1426917,0.04516 -0.052435,0 -0.098684,0.0153 -0.1063032,0.03515 -0.00813,0.02135 -0.036062,0.02927 -0.07099,0.02012 -0.033226,-0.0087 -0.066517,-4.65e-4 -0.078834,0.01948 -0.022579,0.03654 -0.1351315,0.0569 -0.2969512,0.05374 -0.053794,-0.0011 -0.1053294,0.01027 -0.1145323,0.0252 -0.0092,0.01487 -0.070979,0.02707 -0.1372663,0.02707 -0.095474,0 -0.1232375,-0.01038 -0.1335532,-0.04981 z m 2.45614,-8.6045155 c -0.00888,-0.00888 -0.031728,-0.00974 -0.050937,-0.00214 -0.021188,0.00845 -0.014928,0.014767 0.016051,0.016051 0.028036,0.00107 0.043713,-0.00535 0.034885,-0.013964 z"
       id="path4634"
       inkscape:connector-curvature="0" />
    <path
       style="fill:#176da9;fill-opacity:1;stroke:#176da9;stroke-width:0.0248387;stroke-opacity:0.78947401"
       d="m 13.677309,7.2852484 c 0.02964,-0.01878 0.02996,-0.033921 0.0016,-0.08598 -0.01878,-0.034724 -0.03194,-0.099067 -0.02921,-0.1429243 0.0037,-0.06078 -0.0011,-0.07025 -0.02129,-0.03986 -0.02199,0.033333 -0.02686,0.031193 -0.02964,-0.013269 -0.0016,-0.029213 -0.0011,-0.081411 0.0021,-0.1159478 0.0032,-0.036811 -0.0059,-0.055868 -0.02183,-0.046067 -0.01487,0.0092 -0.03456,0.00428 -0.04371,-0.01038 -0.0092,-0.014874 -0.0043,-0.027019 0.01059,-0.027019 0.03542,0 0.0037,-0.084653 -0.0458,-0.121678 -0.02103,-0.01573 -0.0382,-0.060609 -0.0382,-0.099667 0,-0.039058 -0.01049,-0.071021 -0.02327,-0.071021 -0.01279,0 -0.02327,-0.030604 -0.02327,-0.068025 0,-0.037399 -0.01113,-0.061133 -0.02472,-0.052701 -0.01359,0.00845 -0.03226,0.00321 -0.04141,-0.011717 -0.0092,-0.014874 -0.0011,-0.027394 0.01808,-0.027822 0.02199,-5.083e-4 0.01808,-0.010594 -0.01059,-0.027287 -0.02574,-0.015035 -0.03874,-0.043873 -0.02996,-0.066719 0.0097,-0.025361 0.0021,-0.037399 -0.02103,-0.03253 -0.02199,0.00482 -0.03339,-0.010754 -0.02868,-0.03879 0.0043,-0.025575 -0.0048,-0.046495 -0.01996,-0.046495 -0.01525,0 -0.02777,-0.011931 -0.02777,-0.026591 0,-0.014607 -0.02435,-0.050935 -0.05412,-0.080716 -0.02975,-0.029748 -0.04698,-0.065649 -0.03831,-0.079731 0.0088,-0.014071 0.0032,-0.025628 -0.01231,-0.025628 -0.01546,0 -0.02814,-0.01664 -0.02814,-0.037025 0,-0.020385 -0.01792,-0.043926 -0.03986,-0.052326 -0.02194,-0.00835 -0.03986,-0.040288 -0.03986,-0.07086 0,-0.03055 -0.01193,-0.048153 -0.02659,-0.039165 -0.01461,0.00899 -0.02659,-0.00663 -0.02659,-0.034938 0,-0.02825 -0.04184,-0.087104 -0.09303,-0.1308057 -0.05115,-0.043713 -0.09303,-0.095065 -0.09303,-0.1141287 0,-0.019047 -0.007,-0.027715 -0.01541,-0.019261 -0.01926,0.019261 -0.212964,-0.1932659 -0.203858,-0.2236292 0.0037,-0.012199 -0.0074,-0.019154 -0.0244,-0.015516 -0.01707,0.00375 -0.04682,-0.023274 -0.06606,-0.059796 -0.01926,-0.036543 -0.03521,-0.050989 -0.03542,-0.032156 -2.14e-4,0.018887 -0.05067,-0.017014 -0.112173,-0.079731 -0.06148,-0.062728 -0.118293,-0.1140377 -0.12625,-0.1140377 -0.008,0 -0.01118,-0.00984 -0.0072,-0.021883 0.0037,-0.012038 -0.0048,-0.014446 -0.01953,-0.00535 -0.01471,0.0091 -0.06167,-0.019101 -0.104292,-0.062674 -0.04264,-0.043605 -0.08369,-0.073075 -0.09128,-0.065499 -0.0076,0.0076 -0.02761,-0.012092 -0.04457,-0.043712 -0.0183,-0.034189 -0.0465,-0.051471 -0.06961,-0.042589 -0.02135,0.00824 -0.04564,-0.00268 -0.0539,-0.024344 -0.0082,-0.021616 -0.0252,-0.033012 -0.03751,-0.025361 -0.01236,0.0076 -0.03489,-0.00931 -0.05003,-0.037613 -0.01857,-0.034724 -0.04537,-0.046869 -0.08221,-0.037238 -0.0374,0.00974 -0.05217,0.00268 -0.04687,-0.022311 0.0048,-0.023007 -0.0145,-0.035847 -0.05201,-0.03451 -0.03307,0.00107 -0.0598,-0.013697 -0.0598,-0.033226 0,-0.020171 -0.02916,-0.035312 -0.06803,-0.035312 -0.04377,0 -0.06141,-0.010701 -0.04944,-0.030015 0.01129,-0.018245 0.0043,-0.025147 -0.01835,-0.017603 -0.02033,0.00685 -0.05163,-0.00653 -0.06964,-0.029748 -0.02889,-0.037292 -0.03585,-0.03756 -0.0594,-0.00214 -0.0229,0.034189 -0.02675,0.033279 -0.02707,-0.00663 -2.94e-4,-0.033868 -0.0221,-0.046495 -0.08015,-0.046495 -0.04387,0 -0.07973,-0.013215 -0.07973,-0.029427 0,-0.016158 -0.0176,-0.022686 -0.03911,-0.014393 -0.02151,0.00824 -0.05643,-0.00214 -0.0776,-0.023488 -0.02943,-0.029427 -0.04173,-0.030711 -0.05227,-0.00556 -0.0097,0.023381 -0.02547,0.018459 -0.05408,-0.016961 -0.02557,-0.031674 -0.06035,-0.044676 -0.09516,-0.03558 -0.03018,0.00781 -0.06959,-3.424e-4 -0.08761,-0.018298 C 10.599446,4.117424 10.508032,4.100624 10.414302,4.098109 10.313435,4.095429 10.218582,4.076922 10.181889,4.052845 10.137749,4.023953 10.047356,4.011808 9.868292,4.010845 L 9.616702,4.009235 9.6165469,3.5157066 9.6163917,3.0221729 9.7788481,3.0391339 c 0.089353,0.00931 0.2234999,0.018566 0.2981069,0.020492 0.131092,0.00321 0.132521,0.00428 0.04259,0.025254 -0.07475,0.017496 -0.063,0.019796 0.0598,0.011717 0.08406,-0.00556 0.152836,-2.675e-4 0.152836,0.011717 0,0.030658 0.177325,0.047832 0.223987,0.021723 0.02413,-0.013536 0.04676,-0.00803 0.06018,0.014767 0.02595,0.043926 0.167689,0.074712 0.167689,0.036382 0,-0.014874 0.02354,-0.00567 0.05227,0.020331 0.0305,0.027608 0.07481,0.041412 0.106325,0.033172 0.0297,-0.00781 0.05403,-0.00482 0.05403,0.00706 0,0.038362 0.08831,0.056083 0.109412,0.021937 0.0153,-0.024826 0.02531,-0.021241 0.03874,0.013857 0.01225,0.031942 0.04066,0.044676 0.08781,0.039432 0.04125,-0.00482 0.06734,0.00428 0.06393,0.022471 -0.0032,0.018191 0.03307,0.030283 0.09144,0.030283 0.06,0 0.109583,0.016961 0.129562,0.044247 0.01782,0.024344 0.05439,0.040502 0.08133,0.035901 0.03044,-0.00535 0.04601,0.00556 0.0412,0.02825 -0.0054,0.025307 0.0095,0.032102 0.04815,0.02199 0.03537,-0.0092 0.06147,-1.712e-4 0.07101,0.024719 0.0082,0.021615 0.0305,0.03344 0.04933,0.026163 0.01883,-0.00717 0.04184,0.00674 0.05115,0.030979 0.01322,0.034456 0.02162,0.036489 0.03836,0.00942 0.01691,-0.027394 0.02488,-0.025789 0.03761,0.00738 0.0089,0.023167 0.03446,0.042107 0.05685,0.042107 0.02237,0 0.04072,0.0091 0.04072,0.020171 0,0.011075 0.02515,0.035901 0.05594,0.055119 0.03077,0.019208 0.04799,0.022097 0.03831,0.00642 -0.0096,-0.015677 -0.0048,-0.028517 0.01134,-0.028517 0.01595,0 0.03585,0.01787 0.04425,0.0397 0.0083,0.021829 0.02606,0.033065 0.03922,0.024879 0.01322,-0.00813 0.03114,0.00375 0.03991,0.026752 0.0088,0.022846 0.03719,0.041572 0.0632,0.041572 0.026,0 0.06712,0.030283 0.09139,0.067329 0.02435,0.037185 0.06443,0.063969 0.08944,0.059806 0.02493,-0.00428 0.04232,0.00738 0.03868,0.025682 -0.0037,0.018298 0.01429,0.0336 0.03986,0.034082 0.05633,0.00107 0.132532,0.055515 0.128893,0.092187 -0.0016,0.014607 0.02429,0.03039 0.05717,0.035098 0.03291,0.00482 0.0598,0.025628 0.0598,0.046495 0,0.02092 0.009,0.035098 0.01996,0.031567 0.01097,-0.00375 0.04949,0.014392 0.08565,0.03986 0.03617,0.025468 0.05523,0.046281 0.04238,0.046281 -0.01284,0 -0.0016,0.023916 0.02477,0.053183 0.02643,0.029213 0.06449,0.053183 0.08452,0.053183 0.02001,0 0.04682,0.027394 0.05956,0.060898 0.02477,0.065103 0.07834,0.1192115 0.121718,0.1228979 0.01461,0.00107 0.02659,0.014607 0.02659,0.029748 0,0.015088 0.02991,0.043017 0.06644,0.061968 0.03654,0.018994 0.06362,0.048046 0.06013,0.064579 -0.0037,0.016533 0.04104,0.06811 0.09889,0.1146048 0.05786,0.046495 0.09887,0.094787 0.09113,0.1073069 -0.0078,0.01252 -0.0016,0.022793 0.01407,0.022793 0.01546,0 0.02814,0.018673 0.02814,0.041412 0,0.022793 0.01134,0.034403 0.02525,0.025842 0.03087,-0.019101 0.08677,0.077644 0.0602,0.1042145 -0.01049,0.010487 -0.0053,0.015035 0.01156,0.010166 0.0168,-0.00482 0.03178,1.123e-4 0.03323,0.011075 0.0016,0.010968 0.02702,0.044301 0.05679,0.07406 0.02975,0.029748 0.04703,0.06566 0.03831,0.079731 -0.0088,0.014072 -0.0032,0.025628 0.01231,0.025628 0.01546,0 0.02814,0.017924 0.02814,0.03986 0,0.021936 0.01193,0.03986 0.02659,0.03986 0.01461,0 0.02659,0.017924 0.02659,0.03986 0,0.021936 0.01268,0.03986 0.02814,0.03986 0.01546,0 0.02076,0.011985 0.01172,0.026591 -0.009,0.014606 -0.0037,0.026591 0.01172,0.026591 0.01546,0 0.02814,0.024612 0.02814,0.054723 0,0.030123 0.01193,0.047351 0.02659,0.038309 0.01461,-0.00899 0.02659,0.00214 0.02659,0.02504 0,0.022793 0.02365,0.065082 0.05254,0.093995 0.02895,0.028945 0.04559,0.070753 0.03702,0.093032 -0.0086,0.022257 -0.0021,0.040449 0.01391,0.040449 0.01616,0 0.02943,0.019636 0.02943,0.043605 0,0.02397 0.0198,0.058062 0.04403,0.075772 0.0259,0.01894 0.04307,0.066377 0.04168,0.1152896 -0.0016,0.050668 0.0098,0.080737 0.02905,0.077056 0.01851,-0.00375 0.02798,0.018566 0.02311,0.05375 -0.0043,0.032905 0.0054,0.059806 0.02172,0.059806 0.01798,0 0.02327,0.021401 0.01311,0.05329 -0.01091,0.034349 -0.0032,0.058565 0.02183,0.068164 0.02381,0.0091 0.03387,0.037292 0.02611,0.072958 -0.01027,0.046976 -0.0073,0.050454 0.01584,0.018245 0.0221,-0.030925 0.02857,-0.015195 0.02889,0.07024 2.84e-4,0.068667 0.01418,0.1154074 0.03697,0.1241606 0.02338,0.00899 0.03178,0.039058 0.02327,0.083508 -0.0079,0.041626 0.0032,0.087757 0.0275,0.1150596 0.03777,0.042161 0.05478,0.1451661 0.04821,0.2914397 l -0.0027,0.059806 -0.498375,-4.12e-4 c -0.287454,-2.407e-4 -0.483147,-0.010059 -0.462398,-0.02322 z M 14.60308,7.011497 C 14.59448,6.99031 14.58831,6.996569 14.58703,7.027548 14.58593,7.055584 14.59243,7.07126 14.601,7.062432 14.6099,7.053552 14.6107,7.030651 14.6031,7.011497 Z M 10.352091,4.0478603 c -0.02557,-0.00663 -0.06745,-0.00663 -0.09303,0 -0.02557,0.00663 -0.0048,0.012145 0.0465,0.012145 0.05115,0 0.07209,-0.00546 0.0465,-0.012145 z"
       id="path4636"
       inkscape:connector-curvature="0" />
    <path
       style="fill:#176da9;fill-opacity:1;stroke:#176da9;stroke-width:0.0248387;stroke-opacity:0.78947401"
       d="m 9.0231034,8.4046037 c -0.025575,-0.00546 -0.046496,-0.022953 -0.046496,-0.038951 0,-0.015998 -0.00738,-0.021669 -0.016426,-0.012627 -0.00899,0.00899 -0.033334,-4.066e-4 -0.053933,-0.021027 -0.020599,-0.020599 -0.053858,-0.031193 -0.07389,-0.023488 -0.020011,0.0077 -0.044302,0.00107 -0.053954,-0.014393 -0.00963,-0.015623 -0.047459,-0.02841 -0.084002,-0.02841 -0.036544,0 -0.059797,-0.010754 -0.051686,-0.023916 0.00813,-0.013162 -0.029321,-0.023916 -0.083221,-0.023916 -0.06214,0 -0.1102893,-0.0168 -0.1315468,-0.045853 -0.018459,-0.0252 -0.050615,-0.039325 -0.07145,-0.0313 -0.020867,0.00792 -0.051793,5.35e-4 -0.068743,-0.016319 -0.016961,-0.016961 -0.045319,-0.032156 -0.06305,-0.033761 -0.01771,-0.00161 -0.053837,-0.00482 -0.080289,-0.00696 -0.026431,-0.00214 -0.040771,-0.015891 -0.031835,-0.030337 0.00931,-0.015088 -0.00107,-0.019529 -0.024987,-0.010487 -0.022686,0.00877 -0.041252,0.00268 -0.041252,-0.01359 0,-0.016158 -0.029909,-0.029427 -0.066453,-0.029427 -0.036544,0 -0.066442,-0.013376 -0.066442,-0.029694 0,-0.016693 -0.023489,-0.023542 -0.053633,-0.015677 -0.029481,0.0077 -0.071258,-0.00375 -0.09282,-0.0252 -0.021562,-0.021562 -0.051258,-0.031728 -0.065982,-0.022632 -0.014714,0.0091 -0.026806,0.00268 -0.026806,-0.014714 0,-0.017977 -0.022151,-0.025468 -0.052167,-0.017603 -0.028678,0.00749 -0.066496,-0.00375 -0.084002,-0.024665 -0.017496,-0.02108 -0.048315,-0.031995 -0.068433,-0.024291 -0.020118,0.0077 -0.042964,-0.00268 -0.050723,-0.022739 -0.00845,-0.021936 -0.052916,-0.036757 -0.1103749,-0.036757 -0.060482,0 -0.1087269,-0.017068 -0.1297971,-0.045853 -0.019422,-0.026538 -0.051258,-0.039058 -0.075688,-0.029695 -0.024933,0.00952 -0.048529,-3.798e-4 -0.0577,-0.024344 -0.00856,-0.022311 -0.034992,-0.03863 -0.058802,-0.036382 -0.088112,0.00856 -0.1335478,-0.00321 -0.174923,-0.044408 -0.023328,-0.023328 -0.060535,-0.035526 -0.082643,-0.027019 -0.022793,0.00877 -0.046924,-0.00214 -0.055741,-0.025093 -0.00856,-0.022311 -0.034992,-0.03863 -0.058802,-0.036382 -0.080439,0.0077 -0.1129004,-0.00161 -0.096405,-0.028517 0.015409,-0.024933 -0.037667,-0.038362 -0.1129645,-0.028571 -0.025522,0.00321 -0.033226,-0.1090137 -0.033226,-0.485246 0,-0.5135387 0.0145,-0.6662756 0.060578,-0.6378009 0.017228,0.010594 0.021937,-0.00428 0.01252,-0.040288 -0.00824,-0.031514 -0.00268,-0.057313 0.011932,-0.057313 0.014821,0 0.020064,-0.017924 0.01161,-0.03986 -0.00942,-0.024719 1.338e-4,-0.03986 0.025308,-0.03986 0.022311,0 0.03435,-0.010166 0.026645,-0.022525 -0.019476,-0.031514 0.088015,-0.1416241 0.1193637,-0.1222451 0.014125,0.00867 0.022365,1.6e-5 0.018352,-0.019368 -0.00428,-0.020652 0.011932,-0.031942 0.039219,-0.027394 0.025575,0.00428 0.046496,-0.00482 0.046496,-0.019957 0,-0.015248 0.033494,-0.027768 0.074425,-0.027768 0.040931,0 0.086346,-0.011931 0.1009206,-0.026484 0.017282,-0.017282 0.9541124,-0.026645 2.6858251,-0.026912 2.2826825,-3.531e-4 2.6725925,0.00535 2.7530265,0.038737 0.05152,0.021508 0.101199,0.031674 0.11037,0.022472 0.0091,-0.0091 0.01664,-0.00214 0.01664,0.015516 0,0.01771 0.02092,0.028678 0.0465,0.024344 0.02729,-0.00482 0.0435,0.00674 0.03922,0.027394 -0.0037,0.019368 0.0043,0.028089 0.01835,0.019368 0.03135,-0.019368 0.13885,0.09071 0.119364,0.1222451 -0.0076,0.012413 0.0077,0.022739 0.03414,0.022953 0.04002,3.371e-4 0.04152,0.00482 0.009,0.025147 -0.03355,0.021187 -0.03259,0.027233 0.0064,0.042268 0.02509,0.00963 0.03815,0.029534 0.02905,0.044301 -0.0091,0.014714 -5.4e-5,0.036917 0.02006,0.049384 0.05292,0.032691 0.07103,1.1364336 0.01862,1.1341222 -0.08637,-0.00375 -0.130016,0.00888 -0.114858,0.033386 0.01648,0.026698 -0.01595,0.036275 -0.0964,0.028517 -0.02381,-0.00214 -0.05024,0.014072 -0.0588,0.036382 -0.0088,0.022953 -0.03296,0.033868 -0.05575,0.025093 -0.0221,-0.00845 -0.05929,0.00375 -0.08264,0.027019 -0.04136,0.041358 -0.08682,0.052915 -0.174923,0.044408 -0.02381,-0.00214 -0.05024,0.014071 -0.0588,0.036382 -0.0092,0.02397 -0.0328,0.033921 -0.0577,0.024344 -0.0244,-0.00931 -0.05628,0.00321 -0.07569,0.029695 -0.02108,0.028785 -0.06932,0.045853 -0.129803,0.045853 -0.05743,0 -0.101958,0.01482 -0.110369,0.036757 -0.0077,0.020224 -0.0306,0.030444 -0.05072,0.022739 -0.02012,-0.0077 -0.05136,0.00375 -0.06941,0.025468 -0.01803,0.021723 -0.04864,0.033386 -0.06801,0.026003 -0.01937,-0.00738 -0.04323,-5.351e-4 -0.05308,0.015302 -0.0097,0.015837 -0.02905,0.021883 -0.04275,0.013429 -0.0137,-0.00856 -0.04259,0.00214 -0.06415,0.023756 -0.02156,0.021562 -0.06333,0.032905 -0.09282,0.0252 -0.03012,-0.00781 -0.05363,-0.00107 -0.05363,0.015676 0,0.016319 -0.02001,0.029695 -0.04441,0.029695 -0.02445,0 -0.06509,0.018726 -0.09036,0.041572 -0.02525,0.022846 -0.08345,0.042642 -0.129294,0.043927 -0.04585,0.00107 -0.08962,0.01252 -0.09727,0.024879 -0.0076,0.012359 -0.03879,0.022525 -0.06921,0.022525 -0.03039,0 -0.0693,0.019154 -0.08641,0.042535 -0.01878,0.025682 -0.06994,0.042535 -0.129107,0.042535 -0.05391,0 -0.09136,0.010754 -0.08323,0.023916 0.0081,0.013162 -0.01514,0.023916 -0.05169,0.023916 -0.03654,0 -0.07385,0.011985 -0.08288,0.026591 -0.009,0.014607 -0.04564,0.026591 -0.08131,0.026591 -0.03569,0 -0.06488,0.011557 -0.06488,0.025735 0,0.014178 -0.0199,0.018084 -0.04425,0.00877 -0.02975,-0.011396 -0.03793,-0.00674 -0.02504,0.014125 0.01081,0.017549 0.0037,0.031995 -0.01557,0.033119 -0.01916,0.00107 -0.05711,0.00621 -0.0844,0.011396 -0.04377,0.00824 -0.04762,-0.00321 -0.0329,-0.095055 0.0092,-0.057431 0.006,-0.1044177 -0.0072,-0.1044177 -0.01311,0 -0.03135,-0.02092 -0.04061,-0.046495 C 10.024336,8.0801563 9.968406,8.000152 9.951328,8.0172357 9.942018,8.0265457 9.926876,8.0145557 9.91762,7.9904837 9.90842,7.9664607 9.88418,7.9468247 9.863837,7.9468247 c -0.020385,0 -0.037025,-0.010487 -0.037025,-0.023274 0,-0.024772 -0.071258,-0.035098 -0.2325744,-0.033654 -0.1656346,0.00161 -0.1927026,0.00599 -0.1927026,0.031995 0,0.013697 -0.017924,0.024933 -0.039861,0.024933 -0.021937,0 -0.039861,0.010594 -0.039861,0.023488 0,0.012894 -0.025468,0.030123 -0.056608,0.038309 -0.036276,0.00942 -0.051204,0.028892 -0.041573,0.05406 0.00835,0.021616 -0.00268,0.04612 -0.024826,0.054563 -0.021937,0.00835 -0.032905,0.026591 -0.024345,0.040449 0.00856,0.013804 -5.351e-4,0.034831 -0.020653,0.046709 -0.019904,0.011878 -0.042964,0.048474 -0.051258,0.081401 -0.00824,0.032905 -0.00428,0.053129 0.00899,0.044943 0.013269,-0.00813 0.024077,0.00781 0.024077,0.035419 0,0.049865 -0.023061,0.057709 -0.1129646,0.038576 z"
       id="path4638"
       inkscape:connector-curvature="0" />
    <path
       style="fill:#176da9;fill-opacity:1;stroke:#176da9;stroke-width:0.0248387;stroke-opacity:0.78947401"
       d="m 8.7914653,5.3437347 c -0.032691,-0.061037 -0.033226,-0.258856 -0.00107,-0.3339858 0.012574,-0.029267 0.023703,-0.041198 0.024719,-0.026591 0.00214,0.0336 1.6292137,0.03665 1.6535797,0.00321 0.04211,-0.057998 0.05663,0.1965992 0.01835,0.3224879 l -0.02627,0.086376 H 9.6397989 c -0.7844703,0 -0.8222019,-0.00214 -0.8484941,-0.051417 z"
       id="path4640"
       inkscape:connector-curvature="0" />
    <path
       style="fill:#176da9;fill-opacity:1;stroke:#176da9;stroke-width:0.0248387;stroke-opacity:0.78947401"
       d="M 9.4603173,8.5584374 C 9.3490809,8.5321136 9.3542602,8.5394971 9.3485887,8.3986005 9.341098,8.2109472 9.3459134,8.1859663 9.3901619,8.1859663 c 0.022793,0 0.034029,-0.011985 0.02504,-0.026591 -0.016961,-0.027447 0.014286,-0.035794 0.1063246,-0.028464 0.044195,0.00375 0.046442,-3.638e-4 0.013269,-0.023114 -0.030177,-0.020706 -0.012038,-0.027447 0.074661,-0.027768 0.074457,-2.675e-4 0.1084006,0.00952 0.097015,0.027929 -0.00963,0.01557 -0.00161,0.026163 0.018352,0.023435 0.069567,-0.00963 0.1052973,0.00161 0.089053,0.027929 -0.00899,0.014606 0.00214,0.026591 0.02504,0.026591 0.043606,0 0.04489,0.00535 0.049064,0.2059944 0.00268,0.1208808 -0.00107,0.1275955 -0.088871,0.1579749 -0.1039276,0.036008 -0.2111671,0.038737 -0.3387331,0.00845 z"
       id="path4642"
       inkscape:connector-curvature="0" />
    <path
       style="fill:#176da9;fill-opacity:1;stroke:#176da9;stroke-width:0.0248387;stroke-opacity:0.78947401"
       d="m 6.9163172,10.472332 c 0.015837,-0.02563 -0.00268,-0.03109 -0.075773,-0.02252 -0.07068,0.0082 -0.096651,0.0011 -0.096651,-0.02611 0,-0.02258 -0.016051,-0.03119 -0.04061,-0.02178 -0.026217,0.01006 -0.056833,-0.01097 -0.086389,-0.05929 -0.025201,-0.0412 -0.060739,-0.06984 -0.079027,-0.06368 -0.01969,0.0066 -0.027448,-0.0037 -0.018994,-0.0259 0.00792,-0.02044 -0.00931,-0.05842 -0.038042,-0.08445 -0.028893,-0.02616 -0.045426,-0.06524 -0.036918,-0.08739 0.00845,-0.02204 -0.00107,-0.05035 -0.021723,-0.06297 C 6.3916391,9.99935 6.3837739,9.8021677 6.3776208,8.8965435 l -0.00749,-1.0987884 0.093644,0.010915 c 0.054885,0.00642 0.08671,0.022151 0.076876,0.038095 -0.0092,0.015035 -3.691e-4,0.021669 0.019904,0.014928 0.020171,-0.00674 0.053023,0.00428 0.07297,0.024077 0.027769,0.027768 0.044997,0.029053 0.073333,0.00556 0.029107,-0.02413 0.037079,-0.021509 0.037079,0.012359 0,0.030176 0.023917,0.043124 0.079743,0.043124 0.043874,0 0.079733,0.013215 0.079733,0.029427 0,0.016158 0.01755,0.022685 0.039005,0.014446 0.021455,-0.00824 0.046389,-0.00321 0.055399,0.011503 0.00899,0.014553 0.039272,0.019208 0.067298,0.01038 0.036437,-0.011557 0.050937,-0.00321 0.050937,0.028571 0,0.031407 0.01557,0.040663 0.052167,0.031086 0.028732,-0.00749 0.064537,0.00107 0.079637,0.019422 0.015088,0.018191 0.066003,0.034189 0.1131197,0.035527 0.047298,0.00161 0.100332,0.022525 0.118438,0.047244 0.018834,0.025735 0.050723,0.037934 0.074928,0.028624 0.024933,-0.00963 0.048529,3.853e-4 0.05771,0.024344 0.00856,0.022311 0.034992,0.03863 0.058802,0.036383 0.083414,-0.00803 0.1127023,0.00214 0.093815,0.032691 -0.012734,0.020599 -0.00214,0.026324 0.032424,0.017335 0.028304,-0.00738 0.067277,0.00321 0.086624,0.024184 0.019315,0.020706 0.0519,0.031246 0.072306,0.023381 0.020439,-0.00781 0.037132,-0.00107 0.037132,0.014606 0,0.016051 0.024291,0.022472 0.054789,0.0145 0.034029,-0.00888 0.060439,4.281e-4 0.069717,0.024612 0.00824,0.021401 0.034403,0.037024 0.058181,0.034724 0.1007922,-0.00974 0.1624136,0.00428 0.1562071,0.035152 -0.00375,0.019903 0.028036,0.036543 0.079743,0.041572 0.047512,0.00482 0.086389,0.020278 0.086389,0.034884 0,0.014606 0.02092,0.024451 0.046496,0.02183 0.097443,-0.00995 0.1392246,0.00321 0.1928578,0.060834 0.046389,0.049758 0.059294,0.053129 0.079337,0.020652 0.020225,-0.032691 0.026859,-0.031246 0.042322,0.0091 0.011932,0.031086 0.03633,0.043231 0.069513,0.034563 0.030123,-0.00781 0.057196,0.00268 0.065929,0.025254 0.0091,0.023809 0.033975,0.03253 0.064826,0.022739 0.04152,-0.013162 0.050027,-0.00214 0.050027,0.065649 0,0.051042 0.012413,0.079046 0.033226,0.074884 0.020546,-0.00428 0.030016,0.016265 0.02488,0.053397 -0.00589,0.042428 0.00974,0.067265 0.053184,0.084707 0.033815,0.01359 0.051097,0.025414 0.038309,0.026377 -0.012734,0.00107 -0.00845,0.019475 0.00963,0.041251 0.018085,0.021776 0.043446,0.033012 0.056415,0.02504 0.012948,-0.00803 0.023542,-5.35e-4 0.023542,0.016426 0,0.017068 0.018406,0.023916 0.040878,0.015302 0.022472,-0.00856 0.047191,5.35e-4 0.054874,0.020813 0.018138,0.047297 0.2793696,0.04184 0.3383372,-0.00706 0.023114,-0.019208 0.054511,-0.02718 0.06977,-0.01771 0.015249,0.00942 0.027769,0.00428 0.027769,-0.011022 0,-0.015463 0.014393,-0.025147 0.031996,-0.021509 0.017603,0.00375 0.032584,-0.011289 0.033226,-0.033226 5.35e-4,-0.021936 0.015142,-0.03986 0.03221,-0.03986 0.04703,0 0.075313,-0.038309 0.075313,-0.1020743 0,-0.031728 0.01482,-0.054435 0.03323,-0.050775 0.02873,0.00567 0.04767,-0.06597 0.03569,-0.1348988 -0.0021,-0.012038 0.02188,-0.01375 0.05334,-0.00375 0.03858,0.012252 0.05126,0.00856 0.03895,-0.011289 -0.01808,-0.029267 0.0122,-0.039325 0.09464,-0.031353 0.02381,0.00214 0.05131,-0.016907 0.06124,-0.042696 0.0152,-0.039646 0.02167,-0.04093 0.04195,-0.00813 0.02006,0.032477 0.03301,0.029106 0.07935,-0.020652 0.05362,-0.05757 0.09542,-0.070743 0.192857,-0.060844 0.02558,0.00268 0.0465,-0.00792 0.0465,-0.023542 0,-0.015516 0.02895,-0.02825 0.06427,-0.02825 0.03537,0 0.08419,-0.0077 0.108545,-0.016961 0.03531,-0.013536 0.03708,-0.021562 0.0088,-0.039486 -0.03521,-0.022311 0.03702,-0.035259 0.14069,-0.025254 0.02376,0.00214 0.05062,-0.015035 0.05961,-0.038469 0.009,-0.023488 0.02841,-0.035205 0.04312,-0.02611 0.01471,0.0091 0.04152,0.00738 0.05952,-0.00375 0.01803,-0.011129 0.05629,-0.02199 0.08504,-0.024077 0.02873,-0.00214 0.05645,-0.016372 0.06154,-0.031674 0.0054,-0.015302 0.03451,-0.021187 0.06532,-0.013162 0.0382,0.010059 0.04997,0.00482 0.03703,-0.016105 -0.01889,-0.030551 0.01038,-0.04077 0.0938,-0.032691 0.02376,0.00214 0.05061,-0.015034 0.05961,-0.038469 0.009,-0.023488 0.02916,-0.034777 0.04484,-0.025093 0.01562,0.00974 0.0504,-0.00214 0.07726,-0.026591 0.02686,-0.024291 0.08632,-0.045264 0.132172,-0.046548 0.04585,-0.00107 0.08962,-0.01252 0.09726,-0.024879 0.0077,-0.012359 0.04313,-0.022525 0.07879,-0.022525 0.03569,0 0.06489,-0.01268 0.06489,-0.028143 0,-0.015463 0.01204,-0.020706 0.02681,-0.01161 0.01471,0.0091 0.04441,-0.00107 0.06598,-0.022632 0.02285,-0.022846 0.06332,-0.032905 0.09697,-0.024077 0.03965,0.01038 0.05179,0.00546 0.03879,-0.015677 -0.01916,-0.030979 0.01086,-0.04093 0.09709,-0.032156 0.02558,0.00268 0.0465,-0.00803 0.0465,-0.023542 0,-0.015516 0.02991,-0.02825 0.06644,-0.02825 0.03654,0 0.06645,-0.011557 0.06645,-0.025735 0,-0.014178 0.0199,-0.018084 0.04425,-0.00877 0.03216,0.012359 0.03826,0.00738 0.02242,-0.018298 -0.01616,-0.02611 -0.0079,-0.031621 0.03173,-0.021294 0.02943,0.0077 0.07317,0.00321 0.09719,-0.010487 0.03986,-0.022311 0.04366,0.023007 0.04366,0.5209383 0,0.4756635 -0.0053,0.5433884 -0.04018,0.5299483 -0.02986,-0.01145 -0.03553,-0.00321 -0.02204,0.031781 0.01241,0.032316 0.0082,0.041144 -0.013,0.027982 -0.01728,-0.010701 -0.03109,-0.00482 -0.03109,0.013376 0,0.017924 -0.0079,0.024665 -0.01755,0.015034 -0.0096,-0.00963 -0.03093,0.0092 -0.0473,0.042107 -0.01637,0.032798 -0.04425,0.059646 -0.06193,0.059646 -0.03595,0 -0.165592,0.1308485 -0.165592,0.1671133 0,0.012787 -0.0329,0.040128 -0.0731,0.060791 -0.04018,0.020652 -0.09997,0.067532 -0.132815,0.1041716 -0.03285,0.03665 -0.07435,0.066623 -0.09224,0.066623 -0.01787,0 -0.04767,0.029908 -0.06615,0.066441 -0.01851,0.036543 -0.03414,0.054488 -0.03483,0.03986 -5.35e-4,-0.014606 -0.01338,-0.00567 -0.0283,0.019957 -0.01493,0.025575 -0.04002,0.046495 -0.05588,0.046495 -0.01584,0 -0.05024,0.024719 -0.0764,0.054906 -0.02616,0.030176 -0.0575,0.05711 -0.06957,0.059796 -0.01209,0.00268 -0.01905,0.013643 -0.01546,0.024344 0.0037,0.010701 -0.02247,0.026752 -0.05789,0.035633 -0.03542,0.00888 -0.08601,0.044996 -0.112472,0.080213 -0.02643,0.035205 -0.0632,0.064044 -0.08166,0.064044 -0.01846,0 -0.03055,0.00899 -0.02691,0.019957 0.0037,0.010968 -0.0053,0.024558 -0.01996,0.030176 -0.01461,0.00567 -0.04232,0.032744 -0.06162,0.060245 -0.01926,0.0275 -0.04564,0.04345 -0.05864,0.03547 -0.01295,-0.008 -0.04339,0.01557 -0.06753,0.05249 -0.02418,0.03686 -0.05386,0.06094 -0.06598,0.05345 -0.01209,-0.0075 -0.03435,0.0076 -0.04944,0.03344 -0.01509,0.0259 -0.02777,0.03628 -0.0282,0.02301 -4.39e-4,-0.01322 -0.02445,-0.0027 -0.05335,0.02349 -0.02889,0.02616 -0.04489,0.05995 -0.03553,0.07509 0.01049,0.01685 -2.6e-5,0.02103 -0.02691,0.0107 -0.02707,-0.01038 -0.04147,-0.0043 -0.03761,0.01541 0.0037,0.01776 -0.0087,0.02927 -0.02691,0.02563 -0.0183,-0.0037 -0.03323,0.01086 -0.03323,0.03221 0,0.03376 -0.259621,0.03906 -1.9708423,0.04034 -1.083963,5.35e-4 -2.0007558,0.009 -2.0373156,0.01814 -0.049706,0.01247 -0.061209,0.0082 -0.045586,-0.01712 z"
       id="path4644"
       inkscape:connector-curvature="0" />
    <path
       style="fill:#176da9;fill-opacity:1;stroke:#176da9;stroke-width:0.0248387;stroke-opacity:0.78947401"
       d="m 6.6774346,13.779088 c -0.014607,-0.006 -0.098342,-0.02178 -0.1860574,-0.03505 -0.204891,-0.03098 -0.4933243,-0.117869 -0.6718161,-0.202378 -0.077175,-0.03654 -0.1474483,-0.06644 -0.1561535,-0.06644 -0.043927,0 -0.3853678,-0.267149 -0.5071927,-0.396836 -0.1796957,-0.191287 -0.4048971,-0.646035 -0.4056676,-0.819168 -2.835e-4,-0.06439 0.047459,-0.0321 0.092328,0.0624 0.1069988,0.225497 0.3836182,0.483898 0.6748819,0.630455 0.208631,0.104985 0.3111782,0.138334 0.701554,0.228209 0.161183,0.03713 0.795289,0.03788 0.9810467,0.0011 0.3858012,-0.07619 0.7782103,-0.182512 0.9655464,-0.261595 0.029214,-0.01236 0.118941,-0.0497 0.1993479,-0.08298 0.3444474,-0.14263 0.9138661,-0.435975 1.2093781,-0.623034 0.073098,-0.04628 0.1508405,-0.09209 0.1727721,-0.101839 0.068722,-0.03055 1.0727856,-0.706404 1.1616896,-0.781983 0.03082,-0.02616 0.124189,-0.09545 0.207528,-0.15393 0.324373,-0.227599 1.190561,-0.92923 1.594377,-1.2914864 0.0585,-0.052487 0.231959,-0.2078992 0.385459,-0.3453714 0.420039,-0.3761789 0.903818,-0.8601087 0.902903,-0.9031791 -4.55e-4,-0.020973 -0.12595,-0.1697189 -0.278899,-0.3305242 -0.152954,-0.1608052 -0.278176,-0.3048477 -0.278278,-0.3200962 -1.28e-4,-0.01878 0.386267,-0.029374 1.1959,-0.032798 0.874482,-0.00375 1.196093,0.00321 1.196093,0.024986 0,0.05788 -0.317144,0.4153061 -0.904101,1.0189449 -0.562934,0.5789309 -1.150673,1.1298364 -1.700718,1.5941254 -0.168117,0.141907 -0.370761,0.313729 -0.450312,0.381823 -0.07955,0.0681 -0.217106,0.178098 -0.305667,0.244442 -0.08856,0.06635 -0.304554,0.228953 -0.479985,0.361348 -0.175426,0.132395 -0.362377,0.269482 -0.415448,0.304639 -0.05308,0.03515 -0.18464,0.122684 -0.292377,0.194507 -1.4950184,0.996655 -2.6186337,1.507685 -3.6911307,1.678752 -0.2059076,0.03285 -0.8533309,0.04896 -0.9170015,0.02279 z"
       id="path4646"
       inkscape:connector-curvature="0" />
    <path
       style="fill:#176da9;fill-opacity:1;stroke:#176da9;stroke-width:0.0248387;stroke-opacity:0.78947401"
       d="m 7.0096829,14.404615 c -0.05115,-0.01407 -0.1468544,-0.02365 -0.2126385,-0.0213 -0.218829,0.0079 -0.3097924,-0.0027 -0.2658008,-0.03066 0.029749,-0.01899 0.016266,-0.02563 -0.053184,-0.02611 -0.1308833,-0.0011 -0.1902949,-0.01241 -0.2597012,-0.05019 -0.033173,-0.01803 -0.071108,-0.02616 -0.084238,-0.01803 -0.013162,0.0081 -0.039808,-5.35e-4 -0.059262,-0.01953 -0.019476,-0.01889 -0.069931,-0.03692 -0.1121834,-0.04013 -0.042269,-0.0032 -0.091268,-0.02557 -0.1089303,-0.04976 -0.017657,-0.02413 -0.045907,-0.03542 -0.062729,-0.02499 -0.016854,0.01049 -0.030605,0.0062 -0.030605,-0.0092 0,-0.01546 -0.018513,-0.02814 -0.041145,-0.02814 -0.022632,0 -0.070466,-0.03162 -0.1063139,-0.07034 -0.035848,-0.03868 -0.065179,-0.05576 -0.065179,-0.03799 0,0.02145 -0.014125,0.01824 -0.041787,-0.0094 -0.022954,-0.02295 -0.05358,-0.04179 -0.068015,-0.04179 -0.014446,0 -0.01771,-0.0138 -0.00728,-0.03066 0.011503,-0.01867 0.00738,-0.02349 -0.010754,-0.01231 -0.035313,0.02183 -0.5101141,-0.446557 -0.5101141,-0.503261 0,-0.02113 -0.011985,-0.03847 -0.026592,-0.03847 -0.014607,0 -0.026592,-0.02392 -0.026592,-0.05318 0,-0.02927 -0.014928,-0.05324 -0.033226,-0.05334 -0.037025,-2.41e-4 -0.099679,-0.118613 -0.099679,-0.188301 0,-0.02477 -0.017764,-0.05184 -0.039433,-0.06014 -0.0229,-0.0088 -0.032691,-0.03264 -0.023328,-0.05699 0.00877,-0.02301 -0.00375,-0.06368 -0.027823,-0.09035 -0.024131,-0.02664 -0.046496,-0.08901 -0.049759,-0.138553 -0.00321,-0.04954 -0.020439,-0.105487 -0.038202,-0.124321 -0.018513,-0.01964 -0.025896,-0.06649 -0.017282,-0.109714 0.00835,-0.04152 5.351e-4,-0.102471 -0.017014,-0.135477 -0.042483,-0.0794 -0.0458,-0.595399 -0.00428,-0.645596 0.016961,-0.02044 0.028893,-0.08785 0.026431,-0.149784 -0.00268,-0.06194 0.00728,-0.120533 0.021455,-0.130217 0.014232,-0.0097 0.027662,-0.07121 0.029856,-0.136718 0.00268,-0.07695 0.019743,-0.130597 0.048368,-0.151554 0.024398,-0.01787 0.0374,-0.05061 0.028892,-0.07282 -0.00845,-0.0222 0.00268,-0.05858 0.024933,-0.08081 0.022258,-0.02226 0.033761,-0.05126 0.025575,-0.06444 -0.00813,-0.01322 0.00813,-0.05217 0.036223,-0.08659 0.046656,-0.05718 0.052649,-0.05849 0.069503,-0.01514 0.010166,0.02611 0.00482,0.09785 -0.011664,0.159478 -0.017389,0.0647 -0.023596,0.190666 -0.014714,0.298096 0.00845,0.102331 0.015784,0.24586 0.016266,0.318951 5.35e-4,0.09606 0.00706,0.118163 0.022953,0.07973 0.019155,-0.04612 0.0229,-0.04264 0.028143,0.02659 0.00321,0.04387 0.00428,0.0995 0.00268,0.123642 -0.00214,0.02413 0.01343,0.05791 0.034083,0.07504 0.020653,0.01712 0.030765,0.04863 0.022579,0.07005 -0.00824,0.0214 0.00535,0.06106 0.029588,0.08811 0.024505,0.02707 0.046389,0.07414 0.048689,0.104632 0.00214,0.0305 0.020332,0.06165 0.040129,0.06923 0.019743,0.0076 0.027983,0.0267 0.018192,0.04254 -0.00974,0.01578 0.019155,0.05927 0.064227,0.09663 0.045104,0.03735 0.075527,0.07833 0.067651,0.09107 -0.00792,0.01273 0.00482,0.02317 0.028679,0.02317 0.023649,0 0.03756,0.009 0.030872,0.01996 -0.00663,0.01097 0.034511,0.04928 0.091461,0.08508 0.056972,0.03585 0.1035852,0.08139 0.1035852,0.101239 0,0.01985 0.010594,0.02959 0.023435,0.02162 0.012895,-0.0079 0.053665,0.0093 0.090573,0.03831 0.036918,0.02905 0.080182,0.05281 0.096159,0.05281 0.015944,0 0.029053,0.01327 0.029053,0.02943 0,0.01616 0.016479,0.02311 0.036651,0.01535 0.020118,-0.0077 0.049652,-0.0011 0.065522,0.01482 0.015891,0.01589 0.073912,0.03349 0.1289143,0.03916 0.055003,0.0057 0.1188501,0.02729 0.1418785,0.04815 0.023007,0.02081 0.086517,0.03622 0.1410973,0.03419 0.054575,-0.0021 0.1131465,0.01017 0.1301557,0.02718 0.046442,0.04644 0.7050104,0.03991 0.7911048,-0.0078 0.036544,-0.02028 0.099198,-0.03034 0.13923,-0.02237 0.044998,0.009 0.098845,-0.0027 0.1409583,-0.03018 0.037988,-0.02488 0.1258859,-0.04596 0.1984437,-0.04762 0.071654,-0.0016 0.1241309,-0.01289 0.1166296,-0.02504 -0.013162,-0.02129 0.02916,-0.03355 0.081049,-0.02349 0.013804,0.0027 0.049706,-0.0068 0.079733,-0.02103 0.099851,-0.0473 0.160573,-0.06573 0.1968439,-0.0597 0.019743,0.0032 0.028785,-0.0056 0.020064,-0.01958 -0.019529,-0.03162 0.050508,-0.06109 0.1000752,-0.04205 0.020064,0.0077 0.043874,-0.0055 0.05297,-0.02911 0.00931,-0.02424 0.030016,-0.03478 0.047352,-0.02402 0.016961,0.01049 0.045265,-5.35e-4 0.062911,-0.02488 0.017657,-0.02418 0.063403,-0.04649 0.1016483,-0.04965 0.038256,-0.0032 0.07572,-0.02188 0.083275,-0.04157 0.00749,-0.01969 0.026538,-0.02788 0.042162,-0.01825 0.015623,0.0097 0.048636,-5.35e-4 0.07328,-0.02279 0.024666,-0.0222 0.062504,-0.0443 0.084077,-0.04912 0.021562,-0.0048 0.055442,-0.02381 0.075238,-0.04222 0.019797,-0.0184 0.045746,-0.02745 0.057646,-0.02006 0.011932,0.0074 0.028786,-0.0054 0.03756,-0.02804 0.00877,-0.02279 0.027501,-0.03424 0.04168,-0.02547 0.014179,0.0088 0.050134,-0.0083 0.079925,-0.0382 0.029749,-0.02975 0.072071,-0.05414 0.094008,-0.05414 0.021937,0 0.039861,-0.01268 0.039861,-0.02814 0,-0.01546 0.011504,-0.02103 0.025629,-0.0123 0.014072,0.0087 0.050402,-0.009 0.080707,-0.03927 0.030284,-0.03028 0.065361,-0.04874 0.077924,-0.04098 0.012574,0.0078 0.029695,-0.0037 0.038042,-0.02563 0.00845,-0.02183 0.033547,-0.0397 0.055945,-0.0397 0.022365,0 0.040717,-0.01268 0.040717,-0.02814 0,-0.01546 0.011985,-0.02076 0.026592,-0.01172 0.014607,0.009 0.026592,0.0027 0.026592,-0.01455 0,-0.01707 0.018513,-0.02392 0.041252,-0.01514 0.025094,0.0096 0.034457,0.0048 0.023917,-0.01225 -0.00952,-0.01546 0.00781,-0.03462 0.03847,-0.04264 0.030712,-0.008 0.055827,-0.02477 0.055827,-0.03724 0,-0.01247 0.016426,-0.01637 0.036437,-0.0087 0.020064,0.0077 0.043606,-0.0048 0.052328,-0.02739 0.00877,-0.02279 0.040878,-0.04141 0.07145,-0.04141 0.030551,0 0.048101,-0.01204 0.039005,-0.02675 -0.0091,-0.01471 0.00535,-0.03505 0.031675,-0.04516 0.026538,-0.01017 0.060161,-0.02814 0.074778,-0.04007 0.083075,-0.06766 0.2237775,-0.147087 0.2370575,-0.133813 0.0086,0.0085 0.01546,0.0021 0.01546,-0.01428 0,-0.0351 0.233051,-0.200618 0.2825,-0.200618 0.01878,0 0.02879,-0.0087 0.0222,-0.01926 -0.0065,-0.01059 0.01792,-0.03879 0.05433,-0.06263 0.03644,-0.02386 0.06623,-0.03446 0.06623,-0.0236 0,0.01091 0.01825,-0.0062 0.04061,-0.03815 0.02413,-0.03446 0.05691,-0.05168 0.08082,-0.04253 0.0221,0.0085 0.03676,0.0048 0.03248,-0.0078 -0.0043,-0.01273 0.0011,-0.02648 0.01161,-0.03044 0.01059,-0.0037 0.04896,-0.03686 0.08518,-0.0731 0.03622,-0.03622 0.08433,-0.06584 0.106924,-0.06584 0.02258,0 0.04109,-0.01712 0.04109,-0.0381 0,-0.02092 0.02424,-0.04575 0.05389,-0.05518 0.02964,-0.0094 0.09778,-0.05731 0.151413,-0.10645 0.05364,-0.04912 0.107138,-0.0834 0.118882,-0.07615 0.01172,0.0073 0.02135,5.35e-4 0.02135,-0.01493 0,-0.01546 0.01867,-0.02814 0.04141,-0.02814 0.02279,0 0.03462,-0.01102 0.02627,-0.02456 -0.01969,-0.03189 0.121504,-0.130924 0.164886,-0.115627 0.01958,0.007 0.0275,-0.0032 0.01932,-0.02461 -0.0086,-0.02226 0.02718,-0.06172 0.0923,-0.101892 0.05843,-0.03606 0.10656,-0.07523 0.106956,-0.08705 4.01e-4,-0.01182 0.01295,-0.01391 0.02798,-0.0048 0.01498,0.0093 0.02397,0.0053 0.01996,-0.0089 -0.0076,-0.02702 0.136967,-0.164186 0.173179,-0.16424 0.01156,-2.1e-5 0.06591,-0.04724 0.120787,-0.10493 0.05489,-0.057688 0.132868,-0.1174727 0.173301,-0.1328443 0.04045,-0.015356 0.06611,-0.039914 0.05706,-0.054574 -0.009,-0.01466 -5.35e-4,-0.026645 0.01867,-0.026645 0.01931,0 0.05742,-0.029694 0.08465,-0.065949 0.02723,-0.036276 0.06183,-0.05834 0.07686,-0.049063 0.01536,0.00942 0.01937,0.00375 0.0091,-0.012627 -0.01027,-0.016586 0.01412,-0.050186 0.0557,-0.076746 0.04066,-0.025949 0.08957,-0.068356 0.108674,-0.094188 0.0191,-0.025842 0.05201,-0.046976 0.07309,-0.046976 0.02108,0 0.03836,-0.010915 0.03836,-0.024184 0,-0.039165 0.272034,-0.2940347 0.297235,-0.2784544 0.01268,0.00781 0.01974,0.00428 0.01573,-0.0076 -0.0043,-0.012038 -0.0016,-0.023327 0.006,-0.025093 0.02536,-0.0061 0.478439,-0.4663485 0.478439,-0.4860378 0,-0.010915 -0.02953,-0.047565 -0.06563,-0.081454 -0.03612,-0.033921 -0.05913,-0.072176 -0.0512,-0.085028 0.0079,-0.012841 0.0048,-0.020064 -0.0074,-0.016051 -0.01204,0.00375 -0.0252,-0.00161 -0.02921,-0.011985 -0.0037,-0.010594 -0.07878,-0.090978 -0.166127,-0.1785952 -0.08735,-0.087618 -0.158823,-0.1783276 -0.158823,-0.2015643 0,-0.023221 -0.01279,-0.034349 -0.02836,-0.024719 -0.01562,0.00974 -0.03494,-0.00749 -0.04296,-0.038309 -0.008,-0.030711 -0.03183,-0.055836 -0.05292,-0.055836 -0.02108,0 -0.03093,-0.011985 -0.02194,-0.026591 0.009,-0.014606 -0.0016,-0.026591 -0.02322,-0.026591 -0.02183,0 -0.04725,-0.023916 -0.05651,-0.053183 -0.0092,-0.029213 -0.03002,-0.053183 -0.04607,-0.053183 -0.01605,0 -0.02022,-0.00899 -0.0093,-0.019957 0.02702,-0.027019 3.08199,-0.03344 3.098763,-0.00642 0.01225,0.019689 0.0122,0.3259496 -1.39e-4,0.7440646 -0.0037,0.1298373 -0.01049,0.1562521 -0.02659,0.1063224 -0.01487,-0.04612 -0.02146,-0.00556 -0.02156,0.1328978 -1.34e-4,0.3472761 -0.02509,0.75331 -0.05393,0.877112 -0.0153,0.065788 -0.026,0.2337307 -0.02376,0.3732148 0.0027,0.1607184 -0.009,0.2851684 -0.03157,0.3397794 -0.0229,0.05528 -0.03002,0.13416 -0.01985,0.220023 0.02108,0.178231 -0.0016,0.286266 -0.05794,0.276694 -0.02408,-0.0043 -0.04077,-0.02076 -0.03708,-0.03713 0.0037,-0.01632 -0.0082,-0.0267 -0.02659,-0.02306 -0.0183,0.0037 -0.02996,-0.0092 -0.02595,-0.02857 0.0037,-0.01937 -0.0032,-0.02868 -0.01605,-0.02076 -0.03141,0.01942 -0.143366,-0.101999 -0.117727,-0.127642 0.01108,-0.01108 0.0021,-0.01621 -0.01969,-0.01134 -0.02194,0.0048 -0.03687,-0.0061 -0.03323,-0.02434 0.0037,-0.01825 -0.01129,-0.03323 -0.03323,-0.03323 -0.02194,0 -0.03986,-0.01172 -0.03986,-0.02606 0,-0.02327 -0.368627,-0.399218 -0.391425,-0.399218 -0.0053,0 -0.06263,0.05492 -0.127876,0.122047 -0.06523,0.06713 -0.118615,0.112306 -0.118615,0.100405 0,-0.01188 -0.01878,0.0054 -0.04168,0.03788 -0.02295,0.03274 -0.05313,0.05243 -0.06711,0.04382 -0.01396,-0.0087 -0.02215,1.35e-4 -0.01814,0.01948 0.0037,0.01937 -0.0086,0.03194 -0.02788,0.02787 -0.01937,-0.0037 -0.02846,0.0037 -0.02022,0.01691 0.01937,0.03135 -0.0496,0.08914 -0.07548,0.06324 -0.01086,-0.01086 -0.01573,-0.0016 -0.01086,0.02017 0.0048,0.02194 -0.0061,0.03686 -0.02435,0.03322 -0.0183,-0.0037 -0.03323,0.01129 -0.03323,0.03323 0,0.02194 -0.01862,0.03986 -0.04141,0.03986 -0.02279,0 -0.03403,0.01193 -0.02499,0.02659 0.009,0.01461 0.0048,0.02659 -0.0091,0.02659 -0.01402,0 -0.08318,0.05889 -0.153623,0.130843 -0.07044,0.07196 -0.137405,0.125081 -0.148802,0.118034 -0.0114,-0.0071 -0.02071,-5.35e-4 -0.02071,0.01439 0,0.01498 -0.04462,0.05753 -0.0992,0.0946 -0.05456,0.03708 -0.09044,0.0674 -0.07974,0.0674 0.02798,0 -0.05893,0.0829 -0.166962,0.159259 -0.05099,0.03601 -0.117747,0.08969 -0.1484,0.119244 -0.101349,0.09772 -0.222671,0.199927 -0.23731,0.199927 -0.0079,0 -0.04767,0.0329 -0.08828,0.0731 -0.134618,0.133224 -0.357347,0.299016 -0.401708,0.299016 -0.0152,0 -0.02766,0.01038 -0.02766,0.02301 0,0.03884 -0.244554,0.216031 -0.273462,0.198167 -0.01493,-0.0092 -0.01921,-0.0037 -0.0095,0.01166 0.0096,0.01562 -0.0214,0.05254 -0.06899,0.08207 -0.04762,0.02953 -0.114254,0.07959 -0.148112,0.111261 -0.03387,0.03167 -0.06717,0.05201 -0.07403,0.0451 -0.0068,-0.0068 -0.04912,0.02178 -0.09398,0.06368 -0.04484,0.04189 -0.09225,0.0695 -0.105383,0.06138 -0.01311,-0.0081 -0.02386,-0.0037 -0.02386,0.0098 0,0.02386 -0.225303,0.185658 -0.226555,0.162705 -3.37e-4,-0.0063 -0.02905,0.01509 -0.06383,0.04746 -0.03478,0.03237 -0.0721,0.0534 -0.08298,0.04665 -0.01086,-0.0067 -0.02665,0.0057 -0.03499,0.0275 -0.0083,0.02183 -0.03355,0.0397 -0.05595,0.0397 -0.02236,0 -0.04072,0.01006 -0.04072,0.02231 0,0.01225 -0.04773,0.04516 -0.106014,0.0731 -0.05831,0.02793 -0.106143,0.05939 -0.106314,0.06989 -1.55e-4,0.01049 -0.01825,0.0122 -0.04018,0.0037 -0.02194,-0.0083 -0.03986,-0.0032 -0.03986,0.01161 0,0.0298 -0.286946,0.199788 -0.337749,0.200099 -0.01766,1.07e-4 -0.0382,0.01616 -0.04569,0.03563 -0.0075,0.01947 -0.03194,0.03542 -0.0543,0.03542 -0.02236,0 -0.04072,0.01006 -0.04072,0.02231 0,0.01231 -0.04799,0.03815 -0.106699,0.05754 -0.05868,0.01937 -0.119363,0.05045 -0.134842,0.06913 -0.01546,0.01867 -0.04366,0.02793 -0.06263,0.02065 -0.01899,-0.0073 -0.0412,0.0043 -0.04944,0.02563 -0.0082,0.0214 -0.05163,0.04692 -0.09646,0.0568 -0.04484,0.0098 -0.08153,0.02964 -0.08153,0.04393 0,0.01434 -0.01375,0.01755 -0.0306,0.0071 -0.01685,-0.01038 -0.04596,0.0021 -0.06472,0.02771 -0.01878,0.02563 -0.06465,0.04842 -0.10198,0.05056 -0.03735,0.0021 -0.074094,0.02012 -0.081702,0.03991 -0.00792,0.0206 -0.032263,0.02889 -0.056843,0.01947 -0.024826,-0.0095 -0.056255,0.0016 -0.07434,0.02632 -0.017228,0.02354 -0.062397,0.04467 -0.1003856,0.04698 -0.037988,0.0021 -0.063542,0.01311 -0.056779,0.02408 0.00685,0.01097 -0.00631,0.01996 -0.029106,0.01996 -0.06504,0 -0.07786,0.0032 -0.1344681,0.03483 -0.029267,0.01627 -0.063628,0.02654 -0.076416,0.02285 -0.012788,-0.0037 -0.042697,0.01038 -0.066453,0.03125 -0.023756,0.02092 -0.085051,0.04671 -0.1362177,0.05734 -0.051151,0.01059 -0.1074589,0.03092 -0.1250887,0.0451 -0.017656,0.01418 -0.044195,0.0183 -0.059048,0.0091 -0.014821,-0.0092 -0.054254,0.0011 -0.087544,0.0229 -0.03328,0.02178 -0.1024188,0.04457 -0.1535854,0.05067 -0.051151,0.006 -0.1258163,0.02429 -0.1658914,0.0405 -0.040075,0.01621 -0.091065,0.02247 -0.1133069,0.01396 -0.022258,-0.0086 -0.059861,5.35e-4 -0.083617,0.02033 -0.023756,0.01969 -0.080418,0.03793 -0.1259181,0.0405 -0.045533,0.0027 -0.1485184,0.01857 -0.2289199,0.03563 -0.080407,0.01701 -0.2299152,0.03419 -0.3322484,0.03815 -0.1023331,0.0037 -0.2937088,0.01455 -0.425277,0.0236 -0.1315681,0.009 -0.2810817,0.0048 -0.3322483,-0.0091 z M 7.8523931,13.728254 C 8.6742472,13.554185 9.494373,13.204212 10.50619,12.59579 c 1.549652,-0.93183 2.863199,-1.991673 4.386163,-3.539009 0.748461,-0.7604366 0.993342,-1.0425614 0.946017,-1.08988 -0.06286,-0.062867 -2.422956,-0.05406 -2.422956,0.00899 0,0.012734 0.125495,0.1639138 0.278882,0.3358959 0.153388,0.1719822 0.278974,0.3194971 0.279086,0.3278062 1.07e-4,0.00835 -0.182199,0.1943894 -0.405137,0.4135029 C 12.86355,9.7457154 12.055222,10.437137 11.196,11.082247 9.7545291,12.164513 8.5792174,12.813218 7.5983312,13.067955 7.284526,13.149451 7.1812833,13.163972 6.8327695,13.175652 6.3924684,13.190419 6.206502,13.168268 5.8576726,13.059811 5.431898,12.927368 5.0863377,12.667469 4.8659999,12.31396 4.7993865,12.207091 4.738482,12.119656 4.7306382,12.119656 c -0.00792,0 -0.0076,0.06437 5.083e-4,0.143074 0.016265,0.157397 0.1505516,0.471474 0.2874649,0.672236 0.2706269,0.396826 0.7635392,0.68284 1.4187689,0.823244 0.2614348,0.05603 0.3378235,0.06122 0.7048445,0.04805 0.2827993,-0.01017 0.5050686,-0.03462 0.7101683,-0.07803 z"
       id="path4648"
       inkscape:connector-curvature="0" />
    <path
       style="fill:#176da9;fill-opacity:1;stroke:#176da9;stroke-width:0.0248387;stroke-opacity:0.78947401"
       d="m 9.6208582,15.173778 0.00696,-1.121501 0.2126385,-0.06504 c 0.1169506,-0.03579 0.2365603,-0.07493 0.2657953,-0.08702 0.02921,-0.01209 0.196694,-0.0713 0.37212,-0.13156 0.175426,-0.06026 0.360777,-0.128227 0.411895,-0.15103 0.0511,-0.02279 0.164741,-0.06849 0.252505,-0.101518 0.18098,-0.06812 0.343575,-0.140693 0.981031,-0.43789 0.145725,-0.06794 0.246191,-0.100865 0.261392,-0.08567 0.01519,0.0152 0.0037,0.03954 -0.03055,0.06338 -0.03039,0.0213 -0.04735,0.0466 -0.03767,0.05623 0.0096,0.0096 -0.0021,0.01755 -0.02675,0.01755 -0.02435,0 -0.0443,0.01867 -0.0443,0.04141 0,0.02279 -0.01198,0.03403 -0.02659,0.02504 -0.01461,-0.009 -0.02659,0.0082 -0.02659,0.03831 0,0.03092 -0.01733,0.05472 -0.03986,0.05472 -0.02194,0 -0.03686,0.01493 -0.03323,0.03323 0.0037,0.01825 -0.0092,0.02991 -0.02857,0.02595 -0.01937,-0.0037 -0.02841,0.0037 -0.02012,0.01707 0.0082,0.01343 -0.0206,0.05259 -0.06423,0.08704 -0.04361,0.03446 -0.07942,0.07798 -0.07955,0.09671 -1.34e-4,0.01873 -0.01814,0.04093 -0.03997,0.04928 -0.02183,0.0085 -0.03371,0.02499 -0.02632,0.03692 0.0074,0.01193 -0.01471,0.04377 -0.04901,0.07076 -0.03435,0.02702 -0.06939,0.06684 -0.07789,0.08852 -0.01354,0.03446 -0.01573,0.03446 -0.01755,2.83e-4 -0.0021,-0.04221 -0.0936,0.07074 -0.09615,0.118875 -5.35e-4,0.01461 -0.01536,0.02375 -0.03248,0.02022 -0.01707,-0.0032 -0.02493,0.0096 -0.01744,0.02921 0.0075,0.01953 -0.02274,0.06425 -0.06716,0.09935 -0.04446,0.0351 -0.0809,0.07878 -0.08104,0.09705 -1.34e-4,0.0183 -0.01889,0.03323 -0.04168,0.03323 -0.02279,0 -0.0358,0.0091 -0.02895,0.02022 0.0068,0.01113 -0.0043,0.04334 -0.02504,0.07153 -0.02065,0.0282 -0.03751,0.04093 -0.03751,0.0283 0,-0.01268 -0.02991,0.0054 -0.06645,0.03943 -0.03654,0.03435 -0.06645,0.07827 -0.06645,0.09765 0,0.01937 -0.01268,0.03526 -0.02814,0.03526 -0.01546,0 -0.02124,0.01113 -0.01284,0.02477 0.0085,0.01364 -0.0087,0.04163 -0.03815,0.06219 -0.02937,0.0206 -0.04553,0.04532 -0.0359,0.05498 0.0096,0.0096 -0.0032,0.01755 -0.0283,0.01755 -0.02526,0 -0.03959,0.01017 -0.03194,0.02258 0.0183,0.02959 -0.106635,0.137933 -0.132381,0.114814 -0.01092,-0.0098 -0.01263,0.0021 -0.0037,0.0268 0.01766,0.04938 -0.0397,0.112529 -0.07396,0.08145 -0.01193,-0.01086 -0.01423,0.0011 -0.0048,0.0268 0.01102,0.03077 0.0037,0.0465 -0.02237,0.0465 -0.02145,0 -0.03906,0.01996 -0.03906,0.0443 0,0.02434 -0.0073,0.03703 -0.0161,0.0282 -0.0089,-0.0089 -0.04088,0.007 -0.07116,0.03515 -0.03028,0.0282 -0.04698,0.05934 -0.03713,0.06918 0.0098,0.0098 -0.01792,0.0397 -0.06173,0.06633 -0.04382,0.02665 -0.07965,0.06655 -0.07965,0.0887 0,0.02215 -0.01867,0.04023 -0.04141,0.04023 -0.02279,0 -0.03435,0.0115 -0.02568,0.02552 0.01782,0.02884 -0.04029,0.133978 -0.07407,0.133978 -0.02927,0 -0.108139,0.07949 -0.07999,0.08062 0.01199,4.23e-4 -0.0043,0.0229 -0.03686,0.04987 -0.03226,0.02697 -0.0512,0.05645 -0.04211,0.06556 0.0091,0.0091 -0.0043,0.01659 -0.02927,0.01659 -0.02525,0 -0.03906,0.01102 -0.03071,0.02456 0.0083,0.01348 -0.02065,0.05002 -0.0644,0.0812 -0.043767,0.03114 -0.07679,0.07095 -0.073409,0.08842 0.00321,0.0175 -0.00963,0.02846 -0.029053,0.02445 -0.019369,-0.0037 -0.028143,0.0043 -0.019476,0.01814 0.00867,0.01396 -0.00835,0.04227 -0.037721,0.06285 -0.029374,0.0206 -0.045533,0.04532 -0.035902,0.05498 0.00963,0.0096 -0.00214,0.01755 -0.026752,0.01755 -0.024345,0 -0.044302,0.0183 -0.044302,0.04072 0,0.02236 -0.017871,0.04756 -0.0397,0.05595 -0.02183,0.0083 -0.035046,0.02295 -0.029374,0.03237 0.00567,0.0094 -0.00642,0.03269 -0.02702,0.05168 -0.032049,0.02964 -0.036383,-0.124519 -0.030444,-1.086958 z"
       id="path4650"
       inkscape:connector-curvature="0" />
    <path
       style="fill:#176da9;fill-opacity:1;stroke:#176da9;stroke-width:0.0248387;stroke-opacity:0.78947401"
       d="m 9.5581935,16.25056 c -0.00161,-0.01343 -0.00161,-0.03333 0,-0.0443 0.00161,-0.01097 -0.015302,-0.01996 -0.037881,-0.01996 -0.024184,0 -0.037828,-0.01889 -0.033226,-0.04591 0.00428,-0.02525 -0.00589,-0.04617 -0.02274,-0.04649 -0.035527,-5.35e-4 -0.196036,-0.177349 -0.1819161,-0.20019 0.00535,-0.0085 -0.037293,-0.05522 -0.094511,-0.103914 -0.057207,-0.04869 -0.09832,-0.09776 -0.091365,-0.109014 0.00696,-0.01124 -0.00599,-0.02761 -0.028732,-0.03633 -0.022793,-0.0088 -0.033761,-0.02825 -0.024452,-0.04334 0.00931,-0.01509 0.00642,-0.02413 -0.00653,-0.02012 -0.031942,0.01 -0.2197065,-0.197017 -0.2031254,-0.223844 0.00728,-0.01177 -0.0061,-0.02135 -0.029802,-0.02135 -0.023649,0 -0.036383,-0.0107 -0.028304,-0.02381 0.00813,-0.01311 -0.00321,-0.03066 -0.02504,-0.03906 -0.02183,-0.0085 -0.039701,-0.03355 -0.039701,-0.05594 0,-0.02236 -0.017924,-0.04072 -0.039861,-0.04072 -0.035955,0 -0.051685,-0.03157 -0.043018,-0.08639 0.00161,-0.01097 -0.011825,-0.01696 -0.03007,-0.01327 -0.018245,0.0037 -0.03023,-0.0083 -0.026592,-0.02659 0.00375,-0.01824 -0.00835,-0.03023 -0.026592,-0.02659 -0.018299,0.0037 -0.03023,-0.0082 -0.026592,-0.02659 0.00375,-0.0183 -0.013269,-0.03323 -0.037667,-0.03323 -0.024345,0 -0.0374,-0.0068 -0.028946,-0.01535 0.00845,-0.0085 -0.01771,-0.0473 -0.058085,-0.08639 -0.040396,-0.03906 -0.067651,-0.08767 -0.060621,-0.107971 0.00706,-0.02049 5.351e-4,-0.02948 -0.014232,-0.02022 -0.014874,0.0092 -0.041787,-0.0011 -0.059861,-0.0229 -0.018085,-0.02178 -0.024559,-0.03959 -0.014393,-0.03959 0.010166,0 4.976e-4,-0.01792 -0.021455,-0.03986 -0.021937,-0.02194 -0.048368,-0.03986 -0.05877,-0.03986 -0.029909,0 -0.089438,-0.08884 -0.090369,-0.134834 -5.35e-4,-0.03194 0.04778,-0.04906 0.2051479,-0.07245 0.2352335,-0.03499 0.5004511,-0.08825 0.75088,-0.150789 0.095024,-0.02376 0.2086524,-0.05008 0.2525049,-0.05851 0.043874,-0.0085 0.091707,-0.02424 0.1063139,-0.03515 0.014607,-0.01086 0.072007,-0.02798 0.1275231,-0.03799 l 0.1009421,-0.01819 -0.00877,1.076494 c -0.00482,0.592066 -0.017335,1.085097 -0.027822,1.095621 -0.010594,0.01059 -0.020546,0.0082 -0.022258,-0.0053 z"
       id="path4652"
       inkscape:connector-curvature="0" />
    <path
       style="fill:#176da9;fill-opacity:1;stroke:#176da9;stroke-width:0.0248387;stroke-opacity:0.78947401"
       d="m 9.4417351,14.059987 c 0.00899,-0.01461 0.033815,-0.02659 0.055088,-0.02659 0.021241,0 0.059422,-0.01049 0.084816,-0.02333 0.1306532,-0.06606 0.2516756,-0.108885 0.2720716,-0.09627 0.012627,0.0077 0.030444,0.0021 0.039647,-0.01295 0.022526,-0.03644 0.2947893,-0.157713 0.3363253,-0.14981 0.0094,0.0016 0.04099,-0.0183 0.07012,-0.04468 0.02916,-0.02638 0.07823,-0.04987 0.109113,-0.05217 0.03087,-0.0021 0.05613,-0.01391 0.05613,-0.02579 0,-0.01862 0.132729,-0.0826 0.153773,-0.0741 0.0043,0.0016 0.03868,-0.0214 0.07668,-0.05131 0.03799,-0.02991 0.08542,-0.05435 0.105383,-0.05435 0.01996,0 0.03628,-0.01327 0.03628,-0.02943 0,-0.01616 0.01792,-0.02252 0.03986,-0.01412 0.02194,0.0085 0.03986,0.0037 0.03986,-0.01017 0,-0.02488 0.172788,-0.108859 0.201702,-0.09804 0.008,0.0032 0.02654,-0.01568 0.04104,-0.04157 0.0145,-0.0259 0.03756,-0.04013 0.05131,-0.03167 0.0137,0.0086 0.02493,0.0043 0.02493,-0.0095 0,-0.0137 0.0359,-0.03981 0.07974,-0.05795 0.04387,-0.01819 0.07974,-0.04355 0.07974,-0.05638 0,-0.01284 0.0122,-0.02338 0.02713,-0.02338 0.01493,0 0.07471,-0.03007 0.132901,-0.06678 0.05818,-0.0367 0.105789,-0.06122 0.105789,-0.05442 0,0.0067 0.03125,-0.01659 0.06942,-0.05195 0.03815,-0.03537 0.092,-0.07149 0.11961,-0.08027 0.02761,-0.0088 0.05019,-0.02707 0.05019,-0.04072 0,-0.01364 0.01209,-0.02477 0.02686,-0.02477 0.01477,0 0.08641,-0.04184 0.159208,-0.09303 0.07279,-0.05115 0.143441,-0.09302 0.156989,-0.09302 0.01354,0 0.02862,-0.0091 0.03349,-0.02012 0.01461,-0.03317 0.219658,-0.18675 0.295458,-0.221286 0.03879,-0.01766 0.06478,-0.04152 0.05772,-0.05291 -0.0071,-0.01145 0.01118,-0.02841 0.04056,-0.03772 0.02937,-0.0093 0.07029,-0.03387 0.09096,-0.05451 0.04425,-0.04425 0.32175,-0.268075 0.42693,-0.344349 0.04029,-0.02921 0.08992,-0.06897 0.110225,-0.08829 0.03071,-0.02921 0.03692,-0.02836 0.03692,0.0053 0,0.0221 -0.01225,0.04778 -0.02729,0.05707 -0.01503,0.0092 -0.02408,0.03092 -0.02012,0.0481 0.0037,0.01717 -0.0048,0.03638 -0.01921,0.04275 -0.04543,0.0198 -0.120915,0.12965 -0.113355,0.164974 0.0037,0.01857 -0.01027,0.0343 -0.03162,0.03494 -0.02135,5.36e-4 -0.05725,0.03697 -0.07974,0.08073 -0.02247,0.04371 -0.06201,0.09538 -0.08784,0.114776 -0.02584,0.01942 -0.04093,0.04505 -0.03355,0.05701 0.0074,0.01193 -0.01108,0.02814 -0.04109,0.03601 -0.03456,0.009 -0.05147,0.032 -0.04623,0.06282 0.0048,0.02916 -0.0058,0.04564 -0.02691,0.04125 -0.01937,-0.0043 -0.02879,0.0032 -0.02097,0.01573 0.0078,0.01263 -0.02151,0.04944 -0.06522,0.08174 -0.04366,0.03232 -0.07241,0.07008 -0.06383,0.08396 0.0086,0.01386 -0.0037,0.02525 -0.0274,0.02525 -0.02365,0 -0.03531,0.01247 -0.02584,0.02777 0.02146,0.03472 -0.03799,0.109896 -0.07083,0.0896 -0.01332,-0.0082 -0.0214,-0.0054 -0.01792,0.007 0.01364,0.04757 -0.07404,0.141517 -0.132055,0.141517 -0.0336,0 -0.302853,0.109239 -0.598295,0.242757 -0.653272,0.295233 -1.090791,0.466975 -1.77777,0.697832 -0.5342074,0.179526 -0.5955773,0.195674 -0.5668292,0.149158 z"
       id="path4654"
       inkscape:connector-curvature="0" />
    <path
       style="fill:#176da9;fill-opacity:1;stroke:#176da9;stroke-width:0.0248387;stroke-opacity:0.78947401"
       d="M 8.2589327,17.139668 C 7.4616481,17.11404 6.8969859,17.071494 6.664144,17.019418 l -0.066453,-0.01487 0.066453,-0.02675 c 0.4334525,-0.174417 5.547279,-0.174096 5.980454,4.17e-4 0.07833,0.03157 0.0488,0.0473 -0.132901,0.07075 -0.757985,0.09798 -2.722133,0.139875 -4.2527643,0.09072 z"
       id="path4656"
       inkscape:connector-curvature="0" />
  </g>
</svg>
