<?xml version="1.0" encoding="UTF-8" standalone="no"?>
<svg
   xmlns:dc="http://purl.org/dc/elements/1.1/"
   xmlns:cc="http://creativecommons.org/ns#"
   xmlns:rdf="http://www.w3.org/1999/02/22-rdf-syntax-ns#"
   xmlns:svg="http://www.w3.org/2000/svg"
   xmlns="http://www.w3.org/2000/svg"
   xmlns:sodipodi="http://sodipodi.sourceforge.net/DTD/sodipodi-0.dtd"
   xmlns:inkscape="http://www.inkscape.org/namespaces/inkscape"
   version="1.1"
   id="svg833"
   width="68.308044"
   height="58"
   viewBox="0 0 68.308044 58.000003"
   sodipodi:docname="1-visiting-lectures.svg"
   inkscape:version="0.92.3 (2405546, 2018-03-11)">
  <metadata
     id="metadata839">
    <rdf:RDF>
      <cc:Work
         rdf:about="">
        <dc:format>image/svg+xml</dc:format>
        <dc:type
           rdf:resource="http://purl.org/dc/dcmitype/StillImage" />
        <dc:title />
      </cc:Work>
    </rdf:RDF>
  </metadata>
  <defs
     id="defs837" />
  <sodipodi:namedview
     pagecolor="#ffffff"
     bordercolor="#666666"
     borderopacity="1"
     objecttolerance="10"
     gridtolerance="10"
     guidetolerance="10"
     inkscape:pageopacity="0"
     inkscape:pageshadow="2"
     inkscape:window-width="1600"
     inkscape:window-height="845"
     id="namedview835"
     showgrid="false"
     inkscape:zoom="3.48"
     inkscape:cx="50.38966"
     inkscape:cy="58.741385"
     inkscape:window-x="0"
     inkscape:window-y="27"
     inkscape:window-maximized="1"
     inkscape:current-layer="g841"
     inkscape:document-rotation="0"
     units="px"
     height="70.40157px" />
  <g
     inkscape:groupmode="layer"
     inkscape:label="Image"
     id="g841"
     transform="translate(-0.61609137,-7.7816095)">
    <path
       style="fill:#176da9;stroke:#176da9;stroke-width:0.092927;stroke-opacity:0.78947401"
       d="m 31.180481,37.276828 c -0.0706,-0.08 -0.28605,-0.13585 -0.52439,-0.13585 -0.27389,0 -0.42184,-0.045 -0.45806,-0.13939 -0.0294,-0.0767 -0.14043,-0.1394 -0.24669,-0.1394 -0.10627,0 -0.2853,-0.0955 -0.39786,-0.21214 -0.11256,-0.11667 -0.31965,-0.2849 -0.4602,-0.37385 -0.14055,-0.0889 -0.25555,-0.19998 -0.25555,-0.24675 0,-0.0468 -0.12545,-0.22241 -0.27878,-0.39028 -0.15333,-0.16788 -0.27878,-0.37954 -0.27878,-0.47037 0,-0.0908 -0.0418,-0.16515 -0.0929,-0.16515 -0.0511,0 -0.0932,-0.0732 -0.0935,-0.16262 -3e-4,-0.0894 -0.063,-0.2824 -0.13939,-0.4288 -0.1118,-0.21436 -0.13882,-0.69684 -0.13882,-2.4791 v -2.21293 l 1.37068,-0.0299 c 1.19579,-0.0261 1.40291,-0.0536 1.6233,-0.21578 0.13895,-0.10222 0.25395,-0.23812 0.25555,-0.30201 0.002,-0.0639 0.0657,-0.11616 0.14231,-0.11616 0.11371,0 0.13939,-0.15609 0.13939,-0.84728 v -0.84727 l -0.36077,-0.36078 c -0.28391,-0.28391 -0.43123,-0.36077 -0.69147,-0.36077 -0.18188,0 -0.35654,-0.0418 -0.38813,-0.0929 -0.0326,-0.0528 -0.49657,-0.0929 -1.07414,-0.0929 h -1.01672 V 21.0753 c 0,-4.590868 0.0203,-5.418154 0.13882,-5.64532 0.0764,-0.146395 0.13908,-0.360261 0.13939,-0.475258 3.1e-4,-0.114997 0.0379,-0.209086 0.0834,-0.209086 0.0456,0 0.11048,-0.110073 0.14424,-0.244606 0.12411,-0.494458 1.5765,-1.706862 2.04474,-1.706862 0.0708,0 0.14621,-0.05227 0.1675,-0.116159 0.0307,-0.09218 2.68456,-0.116159 12.85492,-0.116159 12.02012,0 12.8335,0.01006 13.09497,0.16205 0.15333,0.08913 0.33671,0.162307 0.40752,0.162622 0.0708,3.04e-4 0.22562,0.105116 0.34404,0.23289 0.11841,0.127775 0.25091,0.232318 0.29443,0.232318 0.0963,0 0.67316,0.584931 0.67316,0.682583 0,0.03834 0.10454,0.166595 0.23232,0.285013 0.12778,0.118418 0.23257,0.294144 0.23289,0.390503 2.8e-4,0.09636 0.0735,0.300649 0.16262,0.453979 0.15124,0.260174 0.16205,0.911427 0.16205,9.75734 v 9.47857 l -0.31832,0.65049 c -0.17507,0.35777 -0.41552,0.74258 -0.53433,0.85514 -0.1188,0.11255 -0.21601,0.24846 -0.21601,0.30201 0,0.0536 -0.0627,0.0974 -0.13939,0.0974 -0.0767,0 -0.13939,0.0627 -0.13939,0.13939 0,0.0767 -0.0806,0.13939 -0.17922,0.13939 -0.0986,0 -0.23638,0.0523 -0.30625,0.11616 -0.2403,0.21973 -0.73806,0.44141 -0.99113,0.44141 -0.13942,0 -0.33467,0.0614 -0.43388,0.13643 -0.27204,0.20577 -24.37268,0.2052 -24.55417,-5.5e-4 z"
       id="path845"
       inkscape:connector-curvature="0" />
    <path
       style="fill:#176da9;stroke:#176da9;stroke-width:0.092927;stroke-opacity:0.78947401"
       d="m 19.452098,17.165861 c 0,-0.04879 -0.156814,-0.11783 -0.348476,-0.153414 -0.191662,-0.03558 -0.477875,-0.162931 -0.636029,-0.282992 -0.158155,-0.120062 -0.319889,-0.218294 -0.35941,-0.218294 -0.137877,0 -0.793408,-0.722771 -0.793408,-0.874791 0,-0.08428 -0.06273,-0.17731 -0.13939,-0.206729 -0.07667,-0.02942 -0.139391,-0.154871 -0.139391,-0.278781 0,-0.123911 -0.06273,-0.249363 -0.13939,-0.278782 -0.20661,-0.07928 -0.20661,-2.589884 0,-2.669168 0.07666,-0.02942 0.13939,-0.15487 0.13939,-0.278781 0,-0.123911 0.06273,-0.249362 0.139391,-0.278781 0.07667,-0.02942 0.13939,-0.116134 0.13939,-0.192699 0,-0.178073 0.548525,-0.728287 0.947235,-0.950151 0.169004,-0.09404 0.340722,-0.22326 0.381594,-0.287147 0.04087,-0.06389 0.1947,-0.116159 0.341839,-0.116159 0.147139,0 0.330252,-0.06273 0.406917,-0.1393906 0.19392,-0.19392 1.701991,-0.191645 1.959271,0.003 0.0992,0.07504 0.29337,0.1364346 0.43146,0.1364346 0.1381,0 0.27515,0.06273 0.30457,0.139391 0.0294,0.07666 0.15935,0.139391 0.28872,0.139391 0.14715,0 0.23524,0.0522 0.23524,0.13939 0,0.07667 0.0523,0.141068 0.11616,0.143118 0.14414,0.0046 0.7517,0.7658 1.00002,1.252852 0.10164,0.199363 0.18505,0.468634 0.18537,0.598379 3e-4,0.129746 0.063,0.355678 0.13939,0.502073 0.17662,0.338646 0.17662,0.708771 0,1.047417 -0.0764,0.146394 -0.13908,0.357408 -0.13939,0.46892 -0.002,0.58276 -1.0943,2.071403 -1.61661,2.202496 -0.13338,0.03348 -0.2425,0.101885 -0.2425,0.152021 0,0.05014 -0.0941,0.09141 -0.20909,0.09173 -0.115,3.04e-4 -0.32886,0.06304 -0.47526,0.139391 -0.30167,0.157333 -1.917613,0.199553 -1.917613,0.0501 z"
       id="path847"
       inkscape:connector-curvature="0" />
    <path
       style="fill:#176da9;stroke:#176da9;stroke-width:0.092927;stroke-opacity:0.78947401"
       d="m 20.8124,46.387218 c -0.02942,-0.0767 -0.136477,-0.13939 -0.237906,-0.13939 -0.278614,0 -1.059721,-0.77252 -1.338635,-1.32392 l -0.246925,-0.48816 -0.02397,-5.24026 c -0.02082,-4.55114 -0.0423,-5.24887 -0.163358,-5.30564 -0.07667,-0.0359 -0.232912,-0.11368 -0.347216,-0.17273 -0.114304,-0.0591 -0.266948,-0.10737 -0.339208,-0.10737 -0.212838,0 -1.357972,-1.17314 -1.357972,-1.39118 0,-0.10693 -0.06273,-0.21849 -0.139391,-0.24791 -0.101351,-0.0389 -0.13939,-0.19808 -0.13939,-0.58334 0,-0.32203 -0.05352,-0.60062 -0.136435,-0.71025 -0.11484,-0.15183 -0.136903,-0.80061 -0.139391,-4.09881 -0.0022,-2.95035 0.02438,-3.927534 0.107696,-3.955306 0.06518,-0.02173 0.12691,-0.292215 0.150217,-0.658233 0.02853,-0.448041 0.07542,-0.62135 0.168129,-0.62135 0.07561,0 0.128565,-0.09689 0.128565,-0.235234 0,-0.129379 0.06273,-0.259304 0.139391,-0.288723 0.07666,-0.02942 0.13939,-0.111741 0.13939,-0.182938 0,-0.0712 0.039,-0.129448 0.08667,-0.129448 0.04767,0 0.11452,-0.08776 0.148565,-0.195028 0.03404,-0.107266 0.133761,-0.26408 0.221592,-0.348477 0.28974,-0.27841 1.032891,-0.757475 1.175036,-0.757475 0.07677,0 0.16366,-0.06273 0.193079,-0.13939 0.03269,-0.08519 0.17351,-0.139391 0.362154,-0.139391 0.169766,0 0.371391,-0.06273 0.448056,-0.139391 0.194645,-0.194645 1.411668,-0.194645 1.606308,0 0.0767,0.07667 0.27829,0.139391 0.44806,0.139391 0.18864,0 0.32946,0.0542 0.36215,0.139391 0.0294,0.07666 0.14046,0.13939 0.24675,0.13939 0.241,0 1.46858,1.225406 1.59721,1.594378 0.0507,0.14529 0.12981,0.264164 0.17592,0.264164 0.0461,0 0.0838,0.101556 0.0838,0.22568 0,0.124124 0.0627,0.288406 0.13939,0.365071 0.11675,0.116752 0.13939,0.531642 0.13939,2.554529 0,1.32833 0.0254,2.48129 0.0564,2.56214 0.0482,0.1255 0.27229,0.14699 1.53329,0.14699 h 1.47689 v 1.25221 1.25221 l -1.51006,0.0255 -1.51007,0.0255 -0.0238,7.67878 c -0.0207,6.67933 -0.0418,7.69378 -0.16262,7.79402 -0.0764,0.0634 -0.13886,0.16987 -0.13886,0.23664 0,0.14552 -0.58637,0.78512 -0.71978,0.78512 -0.0516,0 -0.14586,0.0627 -0.20949,0.13939 -0.0636,0.0767 -0.18908,0.13939 -0.27878,0.13939 -0.0897,0 -0.21516,0.0627 -0.27878,0.13939 -0.0876,0.10556 -0.32477,0.13939 -0.97717,0.13939 -0.68004,0 -0.872755,-0.0294 -0.914978,-0.13939 z m 1.908561,-1.141 c 0.1368,-0.0902 0.33543,-0.27427 0.4414,-0.40898 0.19137,-0.24329 0.19268,-0.29621 0.19268,-7.82708 v -7.58213 h -1.38397 c -1.144465,0 -1.39322,-0.0241 -1.437452,-0.13939 -0.02942,-0.0767 -0.135459,-0.13939 -0.235644,-0.13939 -0.192967,0 -0.845877,-0.55839 -0.845877,-0.72342 0,-0.0536 -0.05227,-0.11486 -0.116158,-0.13616 -0.09008,-0.03 -0.116159,-0.7951 -0.116159,-3.40763 v -3.368906 l 0.260731,-0.224272 c 0.143403,-0.12335 0.321125,-0.224272 0.39494,-0.224272 0.07381,0 0.134209,-0.04182 0.134209,-0.09293 0,-0.05111 0.17815,-0.09293 0.39589,-0.09293 0.293519,0 0.460676,0.06007 0.64643,0.232318 0.1378,0.127774 0.29419,0.232317 0.34753,0.232317 0.0533,0 0.097,0.05825 0.097,0.129449 0,0.0712 0.0627,0.153518 0.13939,0.182937 0.11877,0.04558 0.13939,0.397669 0.13939,2.379579 0,2.00569 0.0192,2.32609 0.1394,2.32609 0.0767,0 0.13939,0.0627 0.13939,0.13939 0,0.0767 0.0627,0.1394 0.13939,0.1394 0.0767,0 0.13939,0.0627 0.13939,0.13939 0,0.107 0.11874,0.13939 0.5111,0.13939 h 0.5111 v -2.59532 c 0,-2.183049 -0.0221,-2.617464 -0.1394,-2.734712 -0.0767,-0.07667 -0.13939,-0.205103 -0.13939,-0.285419 0,-0.08031 -0.0627,-0.146028 -0.13939,-0.146028 -0.0767,0 -0.13939,-0.07318 -0.13939,-0.162622 0,-0.15966 -0.55587,-0.673722 -0.72851,-0.673722 -0.0484,0 -0.11202,-0.06273 -0.14144,-0.13939 -0.0294,-0.07666 -0.14142,-0.139391 -0.24889,-0.139391 -0.10748,0 -0.25814,-0.06273 -0.3348,-0.13939 -0.20008,-0.200077 -1.688424,-0.200077 -1.765201,0 -0.02984,0.07775 -0.167979,0.13939 -0.312386,0.13939 -0.144406,0 -0.282551,0.06164 -0.312386,0.139391 -0.02942,0.07667 -0.122447,0.13939 -0.206729,0.13939 -0.216259,0 -0.874791,0.683829 -0.874791,0.908396 0,0.102765 -0.06273,0.210915 -0.139391,0.240334 -0.07666,0.02942 -0.14072,0.148891 -0.142346,0.265492 -0.0016,0.116601 -0.06435,0.293175 -0.13939,0.392386 -0.206724,0.273314 -0.203935,8.334595 0.003,8.541485 0.07666,0.0767 0.13939,0.29005 0.13939,0.47419 0,0.21187 0.05118,0.35444 0.139391,0.38829 0.07666,0.0294 0.13939,0.11174 0.13939,0.18293 0,0.0712 0.05281,0.12945 0.117355,0.12945 0.06455,0 0.158634,0.0941 0.209086,0.20909 0.05045,0.115 0.18582,0.25036 0.300817,0.30081 0.114998,0.0505 0.209086,0.14455 0.209086,0.20909 0,0.0673 0.113979,0.11736 0.267403,0.11736 0.147072,0 0.31946,0.0627 0.383087,0.13939 0.06363,0.0767 0.256924,0.13939 0.42955,0.13939 h 0.313867 v 5.76439 c 0,5.03819 0.01756,5.77114 0.13939,5.81789 0.07667,0.0294 0.139391,0.0908 0.139391,0.13647 0,0.10772 0.346978,0.45469 0.454693,0.45469 0.04564,0 0.107055,0.0627 0.136474,0.13939 0.08191,0.21346 1.41546,0.19373 1.74843,-0.0259 z"
       id="path851"
       inkscape:connector-curvature="0" />
    <path
       style="fill:#176da9;stroke:#176da9;stroke-width:0.092927;stroke-opacity:0.78947401"
       d="m 27.031131,54.654778 c -0.0992,-0.075 -0.27246,-0.13644 -0.385,-0.13644 -0.11254,0 -0.22869,-0.0627 -0.25811,-0.13939 -0.0294,-0.0767 -0.11752,-0.13939 -0.19579,-0.13939 -0.0783,0 -0.14231,-0.039 -0.14231,-0.0867 0,-0.0477 -0.0878,-0.11452 -0.19503,-0.14857 -0.24952,-0.0792 -0.51274,-0.34241 -0.59194,-0.59194 -0.034,-0.10727 -0.1009,-0.19503 -0.14856,-0.19503 -0.0477,0 -0.0867,-0.064 -0.0867,-0.1423 0,-0.0783 -0.0627,-0.16638 -0.13939,-0.1958 -0.0864,-0.0331 -0.13939,-0.17457 -0.13939,-0.37171 0,-0.19714 -0.053,-0.33857 -0.13939,-0.37171 -0.20493,-0.0786 -0.20493,-2.03296 0,-2.1116 0.0767,-0.0294 0.13939,-0.15935 0.13939,-0.28873 0,-0.12938 0.041,-0.23523 0.0912,-0.23523 0.0501,0 0.11879,-0.1101 0.15256,-0.24466 0.0746,-0.29732 1.10036,-1.31906 1.39963,-1.39417 0.11836,-0.0297 0.21519,-0.0865 0.21519,-0.12631 0,-0.0398 0.18818,-0.10052 0.41817,-0.13501 0.23,-0.0345 0.41818,-0.10196 0.41818,-0.14994 0,-0.1452 1.34255,-0.10294 1.63883,0.0516 0.14639,0.0763 0.36026,0.13908 0.47526,0.13939 0.115,2.8e-4 0.20908,0.0416 0.20908,0.0917 0,0.0501 0.115,0.11949 0.25555,0.15412 0.32386,0.0798 1.41714,1.18162 1.41714,1.42821 0,0.10178 0.0381,0.18506 0.0848,0.18506 0.0466,0 0.11298,0.16705 0.14748,0.37122 0.0345,0.20417 0.10089,0.39482 0.14756,0.42366 0.11555,0.0714 0.1082,1.50289 -0.008,1.57476 -0.0511,0.0316 -0.0932,0.14905 -0.0935,0.26103 -2.7e-4,0.11198 -0.063,0.32338 -0.13939,0.46978 -0.0764,0.14639 -0.13882,0.30374 -0.13882,0.34966 0,0.12564 -1.15989,1.28917 -1.28514,1.28917 -0.0598,0 -0.10876,0.0627 -0.10876,0.13939 0,0.0908 -0.091,0.13939 -0.26102,0.13939 -0.14356,0 -0.3422,0.0614 -0.44141,0.13644 -0.13201,0.0998 -0.44205,0.13643 -1.15611,0.13643 -0.71407,0 -1.02411,-0.0366 -1.15612,-0.13643 z"
       id="path853"
       inkscape:connector-curvature="0" />
    <path
       style="fill:#176da9;stroke:#176da9;stroke-width:0.092927;stroke-opacity:0.78947401"
       d="m 14.360677,54.654198 c -0.0659,-0.0747 -0.220563,-0.13586 -0.343689,-0.13586 -0.123126,0 -0.337759,-0.10555 -0.476961,-0.23456 -0.139202,-0.12901 -0.350443,-0.25899 -0.469423,-0.28885 -0.118981,-0.0299 -0.216329,-0.10802 -0.216329,-0.17367 0,-0.0657 -0.06273,-0.14345 -0.13939,-0.17287 -0.07667,-0.0294 -0.139391,-0.13843 -0.139391,-0.24226 0,-0.10584 -0.06123,-0.18877 -0.13939,-0.18877 -0.07666,0 -0.139391,-0.064 -0.139391,-0.1423 0,-0.0783 -0.06273,-0.16638 -0.139391,-0.1958 -0.08994,-0.0345 -0.13939,-0.17831 -0.13939,-0.40531 0,-0.22701 -0.04945,-0.37081 -0.139391,-0.40532 -0.206105,-0.0791 -0.206105,-2.01079 0,-2.01079 0.09178,0 0.139391,-0.0918 0.139391,-0.26884 0,-0.15324 0.05993,-0.29184 0.13939,-0.32233 0.07666,-0.0294 0.139391,-0.15934 0.139391,-0.28872 0,-0.14715 0.0522,-0.23524 0.139391,-0.23524 0.07666,0 0.13939,-0.0627 0.13939,-0.13939 0,-0.0767 0.06273,-0.13938 0.139391,-0.13938 0.07666,0 0.13939,-0.0627 0.13939,-0.1394 0,-0.0767 0.04381,-0.13939 0.09736,-0.13939 0.05355,0 0.191574,-0.10165 0.306719,-0.22589 0.115145,-0.12425 0.322234,-0.25423 0.460198,-0.28886 0.137964,-0.0346 0.250844,-0.10024 0.250844,-0.14581 0,-0.0456 0.09409,-0.0831 0.209085,-0.0834 0.114997,-2.7e-4 0.328863,-0.063 0.475258,-0.13939 0.294344,-0.15351 1.638833,-0.19721 1.638833,-0.0533 0,0.047 0.135906,0.11245 0.302014,0.14533 0.415735,0.0823 0.912436,0.33222 1.157151,0.58224 0.112557,0.11499 0.248463,0.20908 0.302013,0.20908 0.05355,0 0.09736,0.0627 0.09736,0.13939 0,0.0767 0.06273,0.1394 0.139391,0.1394 0.07667,0 0.13939,0.0627 0.13939,0.13938 0,0.0767 0.06273,0.13939 0.139391,0.13939 0.08719,0 0.139391,0.0881 0.139391,0.23524 0,0.12938 0.06273,0.2593 0.13939,0.28872 0.07667,0.0294 0.139391,0.16648 0.139391,0.30457 0,0.13809 0.0614,0.33225 0.136435,0.43146 0.198942,0.26302 0.201488,1.89954 0.003,1.89954 -0.09293,0 -0.139391,0.0929 -0.139391,0.27878 0,0.15333 -0.03773,0.27878 -0.08384,0.27878 -0.04611,0 -0.127569,0.12545 -0.18102,0.27878 -0.05345,0.15333 -0.141177,0.27878 -0.194945,0.27878 -0.05377,0 -0.09776,0.0536 -0.09776,0.11915 0,0.0655 -0.193222,0.28507 -0.429381,0.48787 -0.236159,0.20279 -0.507971,0.44189 -0.604026,0.53134 -0.09606,0.0894 -0.276201,0.16262 -0.400325,0.16262 -0.124124,0 -0.288406,0.0627 -0.365071,0.13939 -0.197874,0.19787 -2.095387,0.19492 -2.270421,-0.004 z"
       id="path855"
       inkscape:connector-curvature="0" />
    <path
       style="fill:#176da9;stroke:#176da9;stroke-width:0.092927;stroke-opacity:0.78947401"
       d="m 8.2079215,63.485798 c -0.0654,-0.0788 -0.267982,-0.13939 -0.466072,-0.13939 -0.225731,0 -0.369417,-0.0496 -0.403876,-0.13939 -0.02942,-0.0767 -0.136314,-0.13939 -0.237543,-0.13939 -0.217221,0 -1.40154,-1.14001 -1.40154,-1.34911 0,-0.079 -0.06273,-0.16762 -0.139391,-0.19704 -0.07945,-0.0305 -0.13939,-0.16909 -0.13939,-0.32233 0,-0.17702 -0.04761,-0.26884 -0.139391,-0.26884 -0.203921,0 -0.203921,-1.90021 0,-2.10414 0.07666,-0.0767 0.139391,-0.28276 0.139391,-0.45799 0,-0.20932 0.0441,-0.31861 0.128552,-0.31861 0.0707,0 0.155007,-0.0732 0.187339,-0.16262 0.177126,-0.48999 0.745529,-1.09802 1.112571,-1.19014 0.134324,-0.0337 0.244225,-0.0986 0.244225,-0.14415 0,-0.0456 0.07851,-0.0829 0.174476,-0.0829 0.09596,0 0.226533,-0.0627 0.29016,-0.13939 0.09228,-0.11119 0.367176,-0.13939 1.358821,-0.13939 0.75071,0 1.2431365,0.0361 1.2431365,0.0912 0,0.0501 0.113749,0.1197 0.252775,0.15459 0.139026,0.0349 0.358139,0.16114 0.486918,0.28056 0.128778,0.11941 0.285149,0.2171 0.34749,0.2171 0.165866,0 0.585505,0.48219 0.585505,0.67278 0,0.09 0.06273,0.16357 0.13939,0.16357 0.07667,0 0.139391,0.0785 0.139391,0.17448 0,0.096 0.06273,0.22653 0.13939,0.29015 0.07666,0.0636 0.139391,0.23602 0.139391,0.38309 0,0.17574 0.04778,0.2674 0.139391,0.2674 0.114121,0 0.13939,0.16004 0.13939,0.88281 0,0.72277 -0.02527,0.88281 -0.13939,0.88281 -0.100852,0 -0.139391,0.10357 -0.139391,0.37462 0,0.24728 -0.04738,0.39281 -0.139391,0.42812 -0.07667,0.0294 -0.13939,0.13032 -0.13939,0.22424 0,0.22989 -1.169964,1.38912 -1.401986,1.38912 -0.100984,0 -0.207678,0.0627 -0.237097,0.13939 -0.03422,0.0892 -0.177436,0.13939 -0.397494,0.13939 -0.1892025,0 -0.4251775,0.0614 -0.5243885,0.13644 -0.247006,0.18682 -1.187654,0.1889 -1.341972,0.003 z"
       id="path857"
       inkscape:connector-curvature="0" />
    <path
       style="fill:#176da9;stroke:#176da9;stroke-width:0.092927;stroke-opacity:0.78947401"
       d="m 20.8124,63.485798 c -0.03497,-0.0911 -0.179734,-0.13939 -0.418172,-0.13939 -0.238438,0 -0.3832,-0.0482 -0.418172,-0.13939 -0.02942,-0.0767 -0.139749,-0.13939 -0.245176,-0.13939 -0.105428,0 -0.215758,-0.0627 -0.245177,-0.13939 -0.02942,-0.0767 -0.09251,-0.13939 -0.140203,-0.13939 -0.14266,0 -0.828985,-0.77026 -0.9315,-1.04543 -0.05236,-0.14055 -0.132934,-0.25555 -0.179044,-0.25555 -0.04611,0 -0.08384,-0.10585 -0.08384,-0.23523 0,-0.12938 -0.06273,-0.25931 -0.13939,-0.28873 -0.198743,-0.0763 -0.196241,-1.94856 0.003,-2.21192 0.07504,-0.0992 0.136436,-0.29784 0.136436,-0.4414 0,-0.14356 0.04285,-0.26102 0.09523,-0.26102 0.05237,0 0.131387,-0.0941 0.175584,-0.20909 0.130307,-0.33905 0.822543,-1.06628 1.075386,-1.12974 0.12846,-0.0322 0.233563,-0.0996 0.233563,-0.14977 0,-0.0501 0.08065,-0.0912 0.179217,-0.0912 0.09857,0 0.241942,-0.0627 0.318607,-0.13939 0.110208,-0.11021 0.403421,-0.13939 1.400552,-0.13939 0.69363,0 1.26115,0.0338 1.26115,0.075 0,0.0413 0.17025,0.15016 0.37832,0.24196 0.20808,0.0918 0.40073,0.2253 0.42812,0.29667 0.0274,0.0714 0.10193,0.12974 0.16567,0.12974 0.16606,0 0.57463,0.40006 0.64951,0.63599 0.035,0.1102 0.10259,0.20036 0.15026,0.20036 0.0477,0 0.0867,0.0576 0.0867,0.12801 0,0.0704 0.0627,0.18007 0.13939,0.2437 0.0767,0.0636 0.13939,0.23089 0.13939,0.37171 0,0.14081 0.0627,0.30808 0.13939,0.3717 0.19815,0.16445 0.19815,1.62721 0,1.82536 -0.0767,0.0767 -0.13939,0.25673 -0.13939,0.40015 0,0.14342 -0.0627,0.31283 -0.13939,0.37645 -0.0767,0.0636 -0.13939,0.17628 -0.13939,0.25033 0,0.20735 -1.17339,1.32943 -1.39022,1.32943 -0.10653,0 -0.18954,0.061 -0.18954,0.13939 0,0.10268 -0.10715,0.13939 -0.40679,0.13939 -0.24823,0 -0.45189,0.0543 -0.52248,0.13939 -0.082,0.0988 -0.29896,0.1394 -0.74485,0.1394 -0.47354,0 -0.642408,-0.0345 -0.682666,-0.1394 z"
       id="path859"
       inkscape:connector-curvature="0" />
    <path
       style="fill:#176da9;stroke:#176da9;stroke-width:0.092927;stroke-opacity:0.78947401"
       d="m 33.577011,63.485798 c -0.0654,-0.0788 -0.26798,-0.13939 -0.46607,-0.13939 -0.22573,0 -0.36942,-0.0496 -0.40387,-0.13939 -0.0294,-0.0767 -0.13612,-0.13939 -0.2371,-0.13939 -0.23766,0 -1.40199,-1.1619 -1.40199,-1.39907 0,-0.0994 -0.0627,-0.18069 -0.13939,-0.18069 -0.0916,0 -0.13939,-0.0917 -0.13939,-0.2674 0,-0.14707 -0.0627,-0.31946 -0.13939,-0.38309 -0.20242,-0.16799 -0.20242,-1.9074 0,-1.98507 0.092,-0.0353 0.13939,-0.18084 0.13939,-0.42812 0,-0.27104 0.0385,-0.37462 0.13939,-0.37462 0.0767,0 0.13939,-0.0582 0.13939,-0.12945 0,-0.0712 0.0627,-0.15352 0.13939,-0.18294 0.0767,-0.0294 0.13939,-0.12616 0.13939,-0.21499 0,-0.19249 0.60981,-0.75166 0.90604,-0.83081 0.115,-0.0307 0.20909,-0.0932 0.20909,-0.13872 0,-0.0456 0.0806,-0.0829 0.17922,-0.0829 0.0986,0 0.24194,-0.0627 0.3186,-0.13939 0.10969,-0.10969 0.39826,-0.13939 1.35408,-0.13939 0.73212,0 1.21469,0.0362 1.21469,0.0912 0,0.0501 0.1136,0.11966 0.25243,0.15451 0.24016,0.0603 0.3289,0.11428 0.62697,0.38159 0.0712,0.0639 0.16783,0.11615 0.21464,0.11615 0.16043,0 0.57865,0.42402 0.57865,0.58667 0,0.0894 0.0627,0.18665 0.13939,0.21607 0.0767,0.0294 0.13939,0.12753 0.13939,0.21803 0,0.0905 0.0627,0.21659 0.13939,0.28021 0.0767,0.0636 0.13939,0.23602 0.13939,0.38309 0,0.17574 0.0478,0.2674 0.13939,0.2674 0.20531,0 0.20531,1.72044 0,1.79922 -0.0878,0.0337 -0.13939,0.176 -0.13939,0.38457 0,0.20857 -0.0516,0.35087 -0.13939,0.38457 -0.0767,0.0294 -0.13939,0.13032 -0.13939,0.22424 0,0.22989 -1.16996,1.38912 -1.40198,1.38912 -0.10099,0 -0.20768,0.0627 -0.2371,0.13939 -0.0342,0.0892 -0.17744,0.13939 -0.3975,0.13939 -0.1892,0 -0.42517,0.0614 -0.52438,0.13644 -0.24701,0.18682 -1.18766,0.1889 -1.34198,0.003 z"
       id="path861"
       inkscape:connector-curvature="0" />
    <path
       style="fill:#176da9;stroke:#176da9;stroke-width:0.092927;stroke-opacity:0.78947401"
       d="m 39.729771,54.654198 c -0.0659,-0.0747 -0.22056,-0.13586 -0.34369,-0.13586 -0.12312,0 -0.33776,-0.10555 -0.47696,-0.23456 -0.1392,-0.12901 -0.35044,-0.25899 -0.46942,-0.28885 -0.11898,-0.0299 -0.21633,-0.11249 -0.21633,-0.18362 0,-0.0711 -0.0627,-0.12931 -0.13939,-0.12931 -0.0767,0 -0.13939,-0.0631 -0.13939,-0.1402 0,-0.0771 -0.12545,-0.31337 -0.27878,-0.52504 -0.15333,-0.21167 -0.27879,-0.48065 -0.27879,-0.59774 0,-0.11709 -0.0418,-0.23873 -0.0929,-0.27032 -0.12383,-0.0765 -0.12383,-2.09086 0,-2.09086 0.0511,0 0.0929,-0.10155 0.0929,-0.22568 0,-0.12412 0.0627,-0.28841 0.13939,-0.36507 0.0767,-0.0767 0.1394,-0.20641 0.1394,-0.28834 0,-0.0819 0.0627,-0.17301 0.13939,-0.20243 0.0767,-0.0294 0.13939,-0.11174 0.13939,-0.18294 0,-0.0712 0.0627,-0.12944 0.13939,-0.12944 0.0767,0 0.13939,-0.0627 0.13939,-0.1394 0,-0.0767 0.0438,-0.13939 0.0974,-0.13939 0.0536,0 0.19158,-0.10165 0.30672,-0.22589 0.11515,-0.12425 0.32224,-0.25423 0.4602,-0.28886 0.13796,-0.0346 0.25084,-0.10024 0.25084,-0.14581 0,-0.0456 0.0941,-0.0831 0.20909,-0.0834 0.115,-2.7e-4 0.32886,-0.063 0.47526,-0.13939 0.29434,-0.15351 1.63883,-0.19721 1.63883,-0.0533 0,0.047 0.13591,0.11245 0.30201,0.14533 0.41574,0.0823 0.91244,0.33222 1.15716,0.58224 0.11255,0.11499 0.24846,0.20908 0.30201,0.20908 0.0536,0 0.0974,0.0627 0.0974,0.13939 0,0.0767 0.0627,0.1394 0.13939,0.1394 0.0767,0 0.13939,0.0627 0.13939,0.13938 0,0.0767 0.0627,0.13939 0.13939,0.13939 0.0872,0 0.13939,0.0881 0.13939,0.23524 0,0.12938 0.0627,0.2593 0.1394,0.28872 0.0911,0.035 0.13939,0.17974 0.13939,0.41818 0,0.23843 0.0483,0.38319 0.13939,0.41817 0.10735,0.0412 0.13939,0.21944 0.13939,0.77558 0,0.5285 -0.0374,0.75312 -0.13939,0.83778 -0.0767,0.0636 -0.13939,0.25245 -0.13939,0.41961 0,0.18443 -0.0548,0.32495 -0.13939,0.35741 -0.0767,0.0294 -0.1394,0.13975 -0.1394,0.24518 0,0.10543 -0.0627,0.21576 -0.13939,0.24518 -0.0767,0.0294 -0.13939,0.0916 -0.13939,0.13811 0,0.0854 -0.38013,0.47037 -0.92905,0.94092 -0.16396,0.14055 -0.39537,0.25555 -0.51423,0.25555 -0.11887,0 -0.27885,0.0627 -0.35552,0.13939 -0.19787,0.19787 -2.09539,0.19492 -2.27042,-0.004 z"
       id="path863"
       inkscape:connector-curvature="0" />
    <path
       style="fill:#176da9;stroke:#176da9;stroke-width:0.092927;stroke-opacity:0.78947401"
       d="m 46.234661,63.482268 c -0.0659,-0.0747 -0.25941,-0.13586 -0.43002,-0.13586 -0.17061,0 -0.36226,-0.0627 -0.42589,-0.13939 -0.0636,-0.0767 -0.17716,-0.13939 -0.2523,-0.13939 -0.18619,0 -1.32746,-1.15356 -1.32746,-1.34175 0,-0.083 -0.0627,-0.17498 -0.13939,-0.2044 -0.0767,-0.0294 -0.13939,-0.15487 -0.13939,-0.27878 0,-0.12391 -0.0627,-0.24937 -0.13939,-0.27879 -0.19874,-0.0763 -0.19624,-1.94856 0.003,-2.21192 0.075,-0.0992 0.13644,-0.29784 0.13644,-0.4414 0,-0.14356 0.0384,-0.26102 0.0854,-0.26102 0.0469,0 0.18004,-0.15682 0.29579,-0.34848 0.30997,-0.51328 0.71871,-0.88025 1.26832,-1.13868 0.26832,-0.12617 0.48786,-0.26135 0.48786,-0.30039 0,-0.0391 0.58544,-0.071 1.30098,-0.071 0.78852,0 1.30098,0.0359 1.30098,0.0912 0,0.0501 0.11375,0.1197 0.25278,0.15459 0.13902,0.0349 0.35813,0.16114 0.48691,0.28056 0.12878,0.11941 0.28313,0.2171 0.34299,0.2171 0.12706,0 0.59001,0.52587 0.59001,0.6702 0,0.0541 0.10454,0.19526 0.23232,0.31368 0.14754,0.13674 0.23231,0.31623 0.23231,0.49188 0,0.15212 0.0627,0.33931 0.13939,0.41597 0.16824,0.16824 0.20382,1.7884 0.0405,1.84284 -0.0544,0.0181 -0.12263,0.2098 -0.15162,0.42592 -0.029,0.21612 -0.0862,0.39294 -0.12714,0.39294 -0.0409,0 -0.10243,0.0882 -0.13666,0.19609 -0.0917,0.28892 -0.80661,1.10489 -0.96805,1.10489 -0.0536,0 -0.0974,0.0627 -0.0974,0.13939 0,0.0872 -0.0881,0.13939 -0.23523,0.13939 -0.12938,0 -0.2593,0.0627 -0.28872,0.13939 -0.036,0.0938 -0.18331,0.13939 -0.45034,0.13939 -0.23939,0 -0.44276,0.0553 -0.51254,0.13939 -0.1577,0.19002 -1.20601,0.18732 -1.37434,-0.004 z"
       id="path865"
       inkscape:connector-curvature="0" />
    <path
       style="fill:#176da9;stroke:#176da9;stroke-width:0.092927;stroke-opacity:0.78947401"
       d="m 52.400221,54.654778 c -0.0992,-0.075 -0.27694,-0.13644 -0.39494,-0.13644 -0.11801,0 -0.21456,-0.0428 -0.21456,-0.0952 0,-0.0524 -0.0941,-0.13591 -0.20908,-0.18563 -0.54502,-0.23565 -0.998,-0.68062 -1.15022,-1.12985 -0.0291,-0.0859 -0.11152,-0.17868 -0.18315,-0.20617 -0.0716,-0.0275 -0.13024,-0.14784 -0.13024,-0.26745 0,-0.11961 -0.0614,-0.29864 -0.13643,-0.39785 -0.1992,-0.26336 -0.2017,-2.13566 -0.003,-2.21192 0.092,-0.0353 0.13939,-0.18084 0.13939,-0.42812 0,-0.27105 0.0385,-0.37462 0.13939,-0.37462 0.0767,0 0.13939,-0.0413 0.13939,-0.0917 0,-0.12125 0.90003,-1.02343 1.02098,-1.02343 0.0518,0 0.0942,-0.0338 0.0942,-0.075 0,-0.0848 0.56574,-0.34628 0.95338,-0.44067 0.14103,-0.0343 0.27941,-0.0996 0.30749,-0.14507 0.0878,-0.14209 1.45924,-0.0928 1.66086,0.0597 0.0992,0.075 0.29784,0.13644 0.4414,0.13644 0.14356,0 0.26102,0.041 0.26102,0.0911 0,0.0501 0.115,0.11954 0.25555,0.15422 0.14056,0.0347 0.41232,0.22366 0.60392,0.41994 0.19161,0.19629 0.39024,0.35689 0.44141,0.35689 0.0512,0 0.093,0.0627 0.093,0.13938 0,0.0767 0.0627,0.13939 0.13939,0.13939 0.0929,0 0.13939,0.0929 0.13939,0.27879 0,0.18585 0.0465,0.27878 0.13939,0.27878 0.10325,0 0.13939,0.10841 0.13939,0.41817 0,0.30976 0.0361,0.41817 0.13939,0.41817 0.11157,0 0.13939,0.13972 0.13939,0.69987 0,0.53638 -0.0326,0.71237 -0.13939,0.75336 -0.0911,0.035 -0.13939,0.17973 -0.13939,0.41817 0,0.23844 -0.0482,0.3832 -0.13939,0.41817 -0.0767,0.0294 -0.13939,0.13409 -0.13939,0.23261 0,0.18166 -1.12961,1.38076 -1.30074,1.38076 -0.0512,0 -0.0932,0.0627 -0.0932,0.13939 0,0.0964 -0.0968,0.13939 -0.31386,0.13939 -0.17263,0 -0.36592,0.0627 -0.42955,0.13939 -0.16367,0.19721 -2.00978,0.19481 -2.27124,-0.003 z"
       id="path867"
       inkscape:connector-curvature="0" />
    <path
       style="fill:#176da9;stroke:#176da9;stroke-width:0.092927;stroke-opacity:0.78947401"
       d="m 58.946111,63.485798 c -0.0654,-0.0788 -0.26798,-0.13939 -0.46607,-0.13939 -0.22573,0 -0.36942,-0.0496 -0.40388,-0.13939 -0.0294,-0.0767 -0.13611,-0.13939 -0.2371,-0.13939 -0.23202,0 -1.40198,-1.15923 -1.40198,-1.38912 0,-0.0939 -0.0627,-0.19482 -0.13939,-0.22424 -0.0797,-0.0306 -0.13939,-0.16925 -0.13939,-0.32381 0,-0.14868 -0.0627,-0.32238 -0.13939,-0.386 -0.20187,-0.16754 -0.20187,-1.81469 0,-1.89215 0.092,-0.0353 0.13939,-0.18084 0.13939,-0.42812 0,-0.27104 0.0385,-0.37462 0.13939,-0.37462 0.0767,0 0.13939,-0.0582 0.13939,-0.12945 0,-0.0712 0.0627,-0.15352 0.13939,-0.18294 0.0767,-0.0294 0.13939,-0.12914 0.13939,-0.2216 0,-0.19041 0.16169,-0.34607 0.69695,-0.67096 0.20444,-0.12408 0.39262,-0.25274 0.41817,-0.2859 0.0256,-0.0332 0.16147,-0.0884 0.30202,-0.12284 0.14055,-0.0344 0.25555,-0.10356 0.25555,-0.15369 0,-0.0551 0.49242,-0.0912 1.24313,-0.0912 0.99165,0 1.26654,0.0282 1.35883,0.13939 0.0636,0.0767 0.19071,0.13939 0.28241,0.13939 0.0917,0 0.18067,0.0331 0.19771,0.0737 0.0171,0.0405 0.19824,0.17561 0.40268,0.30022 0.53629,0.32687 0.69695,0.48176 0.69695,0.6719 0,0.0925 0.0627,0.19218 0.13939,0.2216 0.0767,0.0294 0.1394,0.11306 0.1394,0.18586 0,0.0728 0.0627,0.15643 0.13939,0.18585 0.0864,0.0331 0.13939,0.17457 0.13939,0.37171 0,0.19714 0.053,0.33857 0.13939,0.37171 0.10956,0.042 0.13939,0.23177 0.13939,0.88653 0,0.61657 -0.0362,0.86926 -0.13939,0.97243 -0.0767,0.0767 -0.13939,0.26316 -0.13939,0.41445 0,0.15877 -0.0589,0.29767 -0.13939,0.32855 -0.0767,0.0294 -0.13939,0.13032 -0.13939,0.22424 0,0.22989 -1.16997,1.38912 -1.40199,1.38912 -0.10098,0 -0.20768,0.0627 -0.2371,0.13939 -0.0345,0.0898 -0.17814,0.13939 -0.40387,0.13939 -0.19809,0 -0.40067,0.0606 -0.46608,0.13939 -0.0803,0.0967 -0.29363,0.1394 -0.69695,0.1394 -0.40331,0 -0.61668,-0.0427 -0.69695,-0.1394 z"
       id="path869"
       inkscape:connector-curvature="0" />
    <rect
       style="fill:none;stroke:#176da9;stroke-width:2;stroke-linecap:round;stroke-linejoin:round;stroke-miterlimit:9;stroke-dasharray:none;paint-order:normal"
       id="rect4696"
       width="66.308044"
       height="56"
       x="1.6160914"
       y="8.7816095" />
  </g>
</svg>
