<?xml version="1.0" encoding="UTF-8" standalone="no"?>
<svg
   xmlns:dc="http://purl.org/dc/elements/1.1/"
   xmlns:cc="http://creativecommons.org/ns#"
   xmlns:rdf="http://www.w3.org/1999/02/22-rdf-syntax-ns#"
   xmlns:svg="http://www.w3.org/2000/svg"
   xmlns="http://www.w3.org/2000/svg"
   xmlns:xlink="http://www.w3.org/1999/xlink"
   xmlns:sodipodi="http://sodipodi.sourceforge.net/DTD/sodipodi-0.dtd"
   xmlns:inkscape="http://www.inkscape.org/namespaces/inkscape"
   version="1.1"
   viewBox="0 0 50.000003 66.981156"
   stroke-miterlimit="10"
   id="svg25"
   sodipodi:docname="logo.svg"
   width="50.000004"
   height="66.981155"
   style="fill:none;stroke:none;stroke-linecap:square;stroke-miterlimit:10"
   inkscape:version="0.92.3 (2405546, 2018-03-11)"
   inkscape:export-filename="/home/hardik/arpita-web-src/static/images/favicon.png"
   inkscape:export-xdpi="96"
   inkscape:export-ydpi="96">
  <metadata
     id="metadata31">
    <rdf:RDF>
      <cc:Work
         rdf:about="">
        <dc:format>image/svg+xml</dc:format>
        <dc:type
           rdf:resource="http://purl.org/dc/dcmitype/StillImage" />
      </cc:Work>
    </rdf:RDF>
  </metadata>
  <defs
     id="defs29" />
  <sodipodi:namedview
     pagecolor="#ffffff"
     bordercolor="#666666"
     borderopacity="1"
     objecttolerance="10"
     gridtolerance="10"
     guidetolerance="10"
     inkscape:pageopacity="0"
     inkscape:pageshadow="2"
     inkscape:window-width="1600"
     inkscape:window-height="845"
     id="namedview27"
     showgrid="false"
     inkscape:zoom="7.0097163"
     inkscape:cx="-37.527605"
     inkscape:cy="34.242687"
     inkscape:window-x="0"
     inkscape:window-y="27"
     inkscape:window-maximized="1"
     inkscape:current-layer="svg25" />
  <clipPath
     id="p3.0">
    <path
       d="M 0,0 H 960 V 720 H 0 Z"
       id="path2"
       inkscape:connector-curvature="0"
       style="clip-rule:nonzero" />
  </clipPath>
  <path
     style="fill:#1b2031;fill-rule:evenodd;stroke-width:1;fill-opacity:1"
     inkscape:connector-curvature="0"
     id="path7"
     d="M 8.0952534,33.490573 25.000053,1.3333334 h 16.9048 L 8.0952534,65.647823 Z" />
  <path
     style="fill-rule:evenodd;stroke:#1b2031;stroke-width:2.66666675;stroke-linecap:butt;stroke-linejoin:round;stroke-opacity:1"
     inkscape:connector-curvature="0"
     id="path9"
     d="M 8.0952534,33.490573 25.000053,1.3333334 h 16.9048 L 8.0952534,65.647823 Z" />
  <path
     style="fill:#1b2031;fill-rule:evenodd;stroke-width:1;fill-opacity:1"
     inkscape:connector-curvature="0"
     id="path11"
     d="m 22.971473,40.477823 16.29776,25.17 h 9.39755 l -25.69531,-39.68341 z" />
  <path
     style="fill-rule:evenodd;stroke:#1b2031;stroke-width:2.66666675;stroke-linecap:butt;stroke-linejoin:round;stroke-opacity:1"
     inkscape:connector-curvature="0"
     id="path13"
     d="m 22.971473,40.477823 16.29776,25.17 h 9.39755 l -25.69531,-39.68341 z" />
  <path
     style="fill:#1b2031;fill-rule:evenodd;stroke-width:1;fill-opacity:1"
     inkscape:connector-curvature="0"
     id="path15"
     d="m 1.3333334,27.332803 6.76192,-9.57875 v 47.89377 h -6.76192 z" />
  <path
     style="fill-rule:evenodd;stroke:#1b2031;stroke-width:2.66666675;stroke-linecap:butt;stroke-linejoin:round;stroke-opacity:1"
     inkscape:connector-curvature="0"
     id="path17"
     d="m 1.3333334,27.332803 6.76192,-9.57875 v 47.89377 h -6.76192 z" />
  <path
     style="fill:#1b2031;fill-rule:evenodd;stroke-width:1;fill-opacity:1"
     inkscape:connector-curvature="0"
     id="path19"
     d="m 18.914323,54.426993 18.93338,-1.09472 v 5.47358 h -18.93338 z" />
  <path
     style="fill-rule:evenodd;stroke:#1b2031;stroke-width:2.66666675;stroke-linecap:butt;stroke-linejoin:round;stroke-opacity:1"
     inkscape:connector-curvature="0"
     id="path21"
     d="m 18.914323,54.426993 18.93338,-1.09472 v 5.47358 h -18.93338 z" />
  <path
     style="opacity:0.97000002;fill:#000000;fill-opacity:0;stroke-width:1"
     d="M 2.7267503,46.018885 V 27.699544 l 1.9300436,-2.738365 c 1.0615239,-1.5061 1.969401,-2.781489 2.0175047,-2.834196 0.049391,-0.05412 0.087461,9.111812 0.087461,21.057705 V 64.338225 H 4.744255 2.7267503 Z"
     id="path821"
     inkscape:connector-curvature="0" />
  <path
     style="opacity:0.97000002;fill:#1b2031;fill-opacity:0;stroke-width:1"
     d="M 2.7267503,46.018885 V 27.699544 l 1.9300436,-2.738365 c 1.0615239,-1.5061 1.969401,-2.781489 2.0175047,-2.834196 0.049391,-0.05412 0.087461,9.111812 0.087461,21.057705 V 64.338225 H 4.744255 2.7267503 Z"
     id="path823"
     inkscape:connector-curvature="0" />
  <path
     style="opacity:0.97000002;fill:#1b2031;fill-opacity:0;stroke-width:1"
     d="M 0.81729155,66.784293 C 0.62705059,66.687287 0.37738438,66.479761 0.26247775,66.323124 L 0.05355657,66.03833 0.03164676,46.50114 0.00973695,26.96395 3.5712603,21.92437 c 1.9588379,-2.771769 3.6787351,-5.127091 3.8219936,-5.234049 0.3189263,-0.238113 0.9263738,-0.253332 1.3508169,-0.03384 0.6448634,0.333471 0.640445,0.290824 0.640445,6.181789 0,2.929355 0.038432,5.282975 0.085404,5.230267 0.046972,-0.05271 3.2984902,-6.224002 7.2255942,-13.713988 4.987802,-9.5130077 7.24225,-13.71698441 7.478757,-13.94600127 l 0.338567,-0.32784451 h 8.940808 8.940807 l 0.404383,0.40438281 c 0.38174,0.38173934 0.401578,0.43116392 0.35429,0.88265827 -0.04067,0.3883092 -1.485399,3.206608 -7.680411,14.9825257 -4.196676,7.977336 -7.641154,14.543892 -7.654395,14.592343 -0.02568,0.09399 0.574552,1.026788 13.24568,20.58446 4.511169,6.962913 8.352928,12.906838 8.537243,13.208722 0.391594,0.64138 0.429894,1.110186 0.130782,1.60079 -0.386382,0.633739 -0.377942,0.632878 -5.894631,0.601921 -4.882708,-0.0274 -4.988412,-0.03221 -5.267411,-0.239886 -0.156592,-0.116559 -1.215286,-1.648135 -2.352655,-3.403501 l -2.067942,-3.191576 -7.747184,-0.001 c -8.4336,-0.0011 -8.070828,0.02299 -8.535259,-0.56744 -0.201512,-0.256179 -0.210658,-0.383116 -0.210658,-2.923885 v -2.65608 l 0.303714,-0.34591 c 0.167043,-0.190252 0.406379,-0.371679 0.531861,-0.403172 0.125481,-0.0315 1.838608,-0.149907 3.806952,-0.263141 4.969272,-0.285867 6.891735,-0.406617 6.910149,-0.434024 0.04288,-0.06382 -6.933266,-10.716239 -7.017936,-10.716239 -0.05408,0 -3.020435,5.560747 -6.591903,12.357216 C 10.205305,64.41421 9.0497638,66.545482 8.7761748,66.734012 8.4495016,66.959122 8.4169674,66.96098 4.8049937,66.960825 1.5371664,66.960724 1.127664,66.942555 0.81729155,66.784293 Z M 6.7617597,43.13198 c 0,-18.191025 -0.020054,-21.177953 -0.1410384,-21.007268 -0.077571,0.109438 -1.0076721,1.424612 -2.066891,2.922609 l -1.9258526,2.723631 -0.00105,18.283637 -0.00105,18.283636 H 4.6938174 6.7617597 Z M 46.187164,64.255309 c -0.01849,-0.0456 -1.599713,-2.499931 -3.51382,-5.45406 l -3.480196,-5.371142 -0.05044,2.98085 -0.05044,2.980851 -0.320911,0.320735 c -0.264609,0.264466 -0.419463,0.328909 -0.882658,0.367321 -0.308962,0.02562 -0.561748,0.06948 -0.561748,0.09745 0,0.02798 0.598281,0.975629 1.329512,2.105889 l 1.329514,2.055017 h 3.117404 c 1.714571,0 3.102272,-0.03731 3.083778,-0.08292 z M 10.101742,59.014876 c 0.311252,-0.595226 2.904107,-5.530826 5.7619,-10.968001 2.857793,-5.437176 5.338111,-10.168191 5.511819,-10.513367 l 0.315834,-0.627594 7.06e-4,-5.677108 c 6.05e-4,-5.441811 0.0087,-5.68937 0.195672,-5.972933 0.25646,-0.389042 0.570896,-0.553751 1.064603,-0.557664 0.676334,-0.0054 0.938778,0.249378 2.065436,2.004778 0.576828,0.898733 1.07591,1.650829 1.109071,1.671323 0.03316,0.0205 1.746605,-3.170961 3.807653,-7.092125 2.061048,-3.921165 5.08956,-9.682565 6.730026,-12.8031134 1.640425,-3.1205483 2.982624,-5.7196594 2.982624,-5.7758026 0,-0.068115 -2.304925,-0.093456 -6.92756,-0.076164 L 25.791965,2.653019 22.450081,9.0081589 C 20.612045,12.503485 16.920369,19.523985 14.246356,24.609269 l -4.8618402,9.245972 v 13.123112 c 0,7.217712 0.034045,13.122131 0.075656,13.120931 0.041611,-0.0012 0.3303174,-0.489182 0.6415702,-1.084408 z m 26.418212,-2.897982 v -1.361816 h -0.282765 c -0.744264,0 -15.886175,0.913834 -15.966718,0.963612 -0.05077,0.03138 -0.0923,0.440216 -0.0923,0.908533 v 0.851486 h 8.170894 8.170894 z m -0.453938,-3.995913 c 1.165109,-0.06479 2.131039,-0.127878 2.146513,-0.140203 0.01547,-0.01233 -2.497319,-3.921188 -5.583983,-8.68636 -3.086664,-4.765172 -6.208803,-9.586653 -6.938087,-10.714402 l -1.325971,-2.050453 -0.0262,4.800036 -0.0262,4.800037 3.959695,6.114836 3.959695,6.114836 0.858076,-0.06027 c 0.471941,-0.03315 1.811347,-0.113274 2.976456,-0.17806 z"
     id="path825"
     inkscape:connector-curvature="0" />
  <path
     style="opacity:0.97000002;fill:#1b2031;fill-opacity:0;stroke-width:1"
     d="m 9.4884586,46.902935 -0.00307,-13.148091 3.7734144,-7.178269 c 2.075376,-3.948046 5.728282,-10.896994 8.117567,-15.442105 2.389287,-4.5451114 4.382088,-8.3017707 4.42845,-8.3481322 0.04636,-0.046362 3.176789,-0.072628 6.956508,-0.058369 l 6.872213,0.025925 -1.991616,3.7828213 c -1.095391,2.0805517 -3.958669,7.5278149 -6.36284,12.1050289 -2.404172,4.577213 -4.543122,8.636739 -4.753222,9.021168 l -0.382001,0.698962 -1.091439,-1.679962 c -0.899129,-1.383955 -1.163588,-1.71857 -1.500914,-1.899082 -0.480651,-0.257208 -0.971303,-0.210951 -1.408269,0.132766 -0.555255,0.436764 -0.552824,0.40811 -0.552824,6.51632 v 5.634511 l -5.961303,11.340987 c -3.278717,6.237543 -6.000967,11.409079 -6.0494459,11.492301 -0.050609,0.08688 -0.08945,-5.447632 -0.091211,-12.99678 z"
     id="path827"
     inkscape:connector-curvature="0" />
  <path
     style="opacity:0.97000002;fill:#1b2031;fill-opacity:0;stroke-width:1"
     d="m 9.4884586,46.902935 -0.00307,-13.148091 3.7734144,-7.178269 c 2.075376,-3.948046 5.728282,-10.896994 8.117567,-15.442105 2.389287,-4.5451114 4.382088,-8.3017707 4.42845,-8.3481322 0.04636,-0.046362 3.176789,-0.072628 6.956508,-0.058369 l 6.872213,0.025925 -1.991616,3.7828213 c -1.095391,2.0805517 -3.958669,7.5278149 -6.36284,12.1050289 -2.404172,4.577213 -4.543122,8.636739 -4.753222,9.021168 l -0.382001,0.698962 -1.091439,-1.679962 c -0.899129,-1.383955 -1.163588,-1.71857 -1.500914,-1.899082 -0.480651,-0.257208 -0.971303,-0.210951 -1.408269,0.132766 -0.555255,0.436764 -0.552824,0.40811 -0.552824,6.51632 v 5.634511 l -5.961303,11.340987 c -3.278717,6.237543 -6.000967,11.409079 -6.0494459,11.492301 -0.050609,0.08688 -0.08945,-5.447632 -0.091211,-12.99678 z"
     id="path829"
     inkscape:connector-curvature="0" />
  <path
     style="opacity:0.97000002;fill:#1b2031;fill-opacity:0;stroke-width:1"
     d="M 2.7267503,46.018885 V 27.699544 l 1.9300436,-2.738365 c 1.0615239,-1.5061 1.969401,-2.781489 2.0175047,-2.834196 0.049391,-0.05412 0.087461,9.111812 0.087461,21.057705 V 64.338225 H 4.744255 2.7267503 Z"
     id="path831"
     inkscape:connector-curvature="0" />
  <path
     style="opacity:0.97000002;fill:#1b2031;fill-opacity:0;stroke-width:1"
     d="M 2.7267503,46.018885 V 27.699544 l 1.9300436,-2.738365 c 1.0615239,-1.5061 1.969401,-2.781489 2.0175047,-2.834196 0.049391,-0.05412 0.087461,9.111812 0.087461,21.057705 V 64.338225 H 4.744255 2.7267503 Z"
     id="path833"
     inkscape:connector-curvature="0" />
  <path
     style="opacity:0.97000002;fill:#1b2031;fill-opacity:0;stroke-width:1"
     d="M 0.81729155,66.784293 C 0.62705059,66.687287 0.37738438,66.479761 0.26247775,66.323124 L 0.05355657,66.03833 0.03164676,46.50114 0.00973695,26.96395 3.5712603,21.92437 c 1.9588379,-2.771769 3.6787351,-5.127091 3.8219936,-5.234049 0.3189263,-0.238113 0.9263738,-0.253332 1.3508169,-0.03384 0.6448634,0.333471 0.640445,0.290824 0.640445,6.181789 0,2.929355 0.038432,5.282975 0.085404,5.230267 0.046972,-0.05271 3.2984902,-6.224002 7.2255942,-13.713988 4.987802,-9.5130077 7.24225,-13.71698441 7.478757,-13.94600127 l 0.338567,-0.32784451 h 8.940808 8.940807 l 0.404383,0.40438281 c 0.38174,0.38173934 0.401578,0.43116392 0.35429,0.88265827 -0.04067,0.3883092 -1.485399,3.206608 -7.680411,14.9825257 -4.196676,7.977336 -7.641154,14.543892 -7.654395,14.592343 -0.02568,0.09399 0.574552,1.026788 13.24568,20.58446 4.511169,6.962913 8.352928,12.906838 8.537243,13.208722 0.391594,0.64138 0.429894,1.110186 0.130782,1.60079 -0.386382,0.633739 -0.377942,0.632878 -5.894631,0.601921 -4.882708,-0.0274 -4.988412,-0.03221 -5.267411,-0.239886 -0.156592,-0.116559 -1.215286,-1.648135 -2.352655,-3.403501 l -2.067942,-3.191576 -7.747184,-0.001 c -8.4336,-0.0011 -8.070828,0.02299 -8.535259,-0.56744 -0.201512,-0.256179 -0.210658,-0.383116 -0.210658,-2.923885 v -2.65608 l 0.303714,-0.34591 c 0.167043,-0.190252 0.406379,-0.371679 0.531861,-0.403172 0.125481,-0.0315 1.838608,-0.149907 3.806952,-0.263141 4.969272,-0.285867 6.891735,-0.406617 6.910149,-0.434024 0.04288,-0.06382 -6.933266,-10.716239 -7.017936,-10.716239 -0.05408,0 -3.020435,5.560747 -6.591903,12.357216 C 10.205305,64.41421 9.0497638,66.545482 8.7761748,66.734012 8.4495016,66.959122 8.4169674,66.96098 4.8049937,66.960825 1.5371664,66.960724 1.127664,66.942555 0.81729155,66.784293 Z M 6.7617597,43.13198 c 0,-18.191025 -0.020054,-21.177953 -0.1410384,-21.007268 -0.077571,0.109438 -1.0076721,1.424612 -2.066891,2.922609 l -1.9258526,2.723631 -0.00105,18.283637 -0.00105,18.283636 H 4.6938174 6.7617597 Z M 46.187164,64.255309 c -0.01849,-0.0456 -1.599713,-2.499931 -3.51382,-5.45406 l -3.480196,-5.371142 -0.05044,2.98085 -0.05044,2.980851 -0.320911,0.320735 c -0.264609,0.264466 -0.419463,0.328909 -0.882658,0.367321 -0.308962,0.02562 -0.561748,0.06948 -0.561748,0.09745 0,0.02798 0.598281,0.975629 1.329512,2.105889 l 1.329514,2.055017 h 3.117404 c 1.714571,0 3.102272,-0.03731 3.083778,-0.08292 z M 10.101742,59.014876 c 0.311252,-0.595226 2.904107,-5.530826 5.7619,-10.968001 2.857793,-5.437176 5.338111,-10.168191 5.511819,-10.513367 l 0.315834,-0.627594 7.06e-4,-5.677108 c 6.05e-4,-5.441811 0.0087,-5.68937 0.195672,-5.972933 0.25646,-0.389042 0.570896,-0.553751 1.064603,-0.557664 0.676334,-0.0054 0.938778,0.249378 2.065436,2.004778 0.576828,0.898733 1.07591,1.650829 1.109071,1.671323 0.03316,0.0205 1.746605,-3.170961 3.807653,-7.092125 2.061048,-3.921165 5.08956,-9.682565 6.730026,-12.8031134 1.640425,-3.1205483 2.982624,-5.7196594 2.982624,-5.7758026 0,-0.068115 -2.304925,-0.093456 -6.92756,-0.076164 L 25.791965,2.653019 22.450081,9.0081589 C 20.612045,12.503485 16.920369,19.523985 14.246356,24.609269 l -4.8618402,9.245972 v 13.123112 c 0,7.217712 0.034045,13.122131 0.075656,13.120931 0.041611,-0.0012 0.3303174,-0.489182 0.6415702,-1.084408 z m 26.418212,-2.897982 v -1.361816 h -0.282765 c -0.744264,0 -15.886175,0.913834 -15.966718,0.963612 -0.05077,0.03138 -0.0923,0.440216 -0.0923,0.908533 v 0.851486 h 8.170894 8.170894 z m -0.453938,-3.995913 c 1.165109,-0.06479 2.131039,-0.127878 2.146513,-0.140203 0.01547,-0.01233 -2.497319,-3.921188 -5.583983,-8.68636 -3.086664,-4.765172 -6.208803,-9.586653 -6.938087,-10.714402 l -1.325971,-2.050453 -0.0262,4.800036 -0.0262,4.800037 3.959695,6.114836 3.959695,6.114836 0.858076,-0.06027 c 0.471941,-0.03315 1.811347,-0.113274 2.976456,-0.17806 z"
     id="path835"
     inkscape:connector-curvature="0" />
  <path
     style="opacity:0.97000002;fill:#1b2031;fill-opacity:0;stroke-width:1"
     d="m 9.4884586,46.902935 -0.00307,-13.148091 3.7734144,-7.178269 c 2.075376,-3.948046 5.728282,-10.896994 8.117567,-15.442105 2.389287,-4.5451114 4.382088,-8.3017707 4.42845,-8.3481322 0.04636,-0.046362 3.176789,-0.072628 6.956508,-0.058369 l 6.872213,0.025925 -1.991616,3.7828213 c -1.095391,2.0805517 -3.958669,7.5278149 -6.36284,12.1050289 -2.404172,4.577213 -4.543122,8.636739 -4.753222,9.021168 l -0.382001,0.698962 -1.091439,-1.679962 c -0.899129,-1.383955 -1.163588,-1.71857 -1.500914,-1.899082 -0.480651,-0.257208 -0.971303,-0.210951 -1.408269,0.132766 -0.555255,0.436764 -0.552824,0.40811 -0.552824,6.51632 v 5.634511 l -5.961303,11.340987 c -3.278717,6.237543 -6.000967,11.409079 -6.0494459,11.492301 -0.050609,0.08688 -0.08945,-5.447632 -0.091211,-12.99678 z"
     id="path837"
     inkscape:connector-curvature="0" />
  <path
     style="opacity:0.97000002;fill:#1b2031;fill-opacity:0;stroke-width:1"
     d="M 0.81729155,66.784293 C 0.62705059,66.687287 0.37738438,66.479761 0.26247775,66.323124 L 0.05355657,66.03833 0.03164676,46.50114 0.00973695,26.96395 3.5712603,21.92437 c 1.9588379,-2.771769 3.6787351,-5.127091 3.8219936,-5.234049 0.3189263,-0.238113 0.9263738,-0.253332 1.3508169,-0.03384 0.6448634,0.333471 0.640445,0.290824 0.640445,6.181789 0,2.929355 0.038432,5.282975 0.085404,5.230267 0.046972,-0.05271 3.2984902,-6.224002 7.2255942,-13.713988 4.987802,-9.5130077 7.24225,-13.71698441 7.478757,-13.94600127 l 0.338567,-0.32784451 h 8.940808 8.940807 l 0.404383,0.40438281 c 0.38174,0.38173934 0.401578,0.43116392 0.35429,0.88265827 -0.04067,0.3883092 -1.485399,3.206608 -7.680411,14.9825257 -4.196676,7.977336 -7.641154,14.543892 -7.654395,14.592343 -0.02568,0.09399 0.574552,1.026788 13.24568,20.58446 4.511169,6.962913 8.352928,12.906838 8.537243,13.208722 0.391594,0.64138 0.429894,1.110186 0.130782,1.60079 -0.386382,0.633739 -0.377942,0.632878 -5.894631,0.601921 -4.882708,-0.0274 -4.988412,-0.03221 -5.267411,-0.239886 -0.156592,-0.116559 -1.215286,-1.648135 -2.352655,-3.403501 l -2.067942,-3.191576 -7.747184,-0.001 c -8.4336,-0.0011 -8.070828,0.02299 -8.535259,-0.56744 -0.201512,-0.256179 -0.210658,-0.383116 -0.210658,-2.923885 v -2.65608 l 0.303714,-0.34591 c 0.167043,-0.190252 0.406379,-0.371679 0.531861,-0.403172 0.125481,-0.0315 1.838608,-0.149907 3.806952,-0.263141 4.969272,-0.285867 6.891735,-0.406617 6.910149,-0.434024 0.04288,-0.06382 -6.933266,-10.716239 -7.017936,-10.716239 -0.05408,0 -3.020435,5.560747 -6.591903,12.357216 C 10.205305,64.41421 9.0497638,66.545482 8.7761748,66.734012 8.4495016,66.959122 8.4169674,66.96098 4.8049937,66.960825 1.5371664,66.960724 1.127664,66.942555 0.81729155,66.784293 Z M 6.7617597,43.13198 c 0,-18.191025 -0.020054,-21.177953 -0.1410384,-21.007268 -0.077571,0.109438 -1.0076721,1.424612 -2.066891,2.922609 l -1.9258526,2.723631 -0.00105,18.283637 -0.00105,18.283636 H 4.6938174 6.7617597 Z M 46.187164,64.255309 c -0.01849,-0.0456 -1.599713,-2.499931 -3.51382,-5.45406 l -3.480196,-5.371142 -0.05044,2.98085 -0.05044,2.980851 -0.320911,0.320735 c -0.264609,0.264466 -0.419463,0.328909 -0.882658,0.367321 -0.308962,0.02562 -0.561748,0.06948 -0.561748,0.09745 0,0.02798 0.598281,0.975629 1.329512,2.105889 l 1.329514,2.055017 h 3.117404 c 1.714571,0 3.102272,-0.03731 3.083778,-0.08292 z M 10.101742,59.014876 c 0.311252,-0.595226 2.904107,-5.530826 5.7619,-10.968001 2.857793,-5.437176 5.338111,-10.168191 5.511819,-10.513367 l 0.315834,-0.627594 7.06e-4,-5.677108 c 6.05e-4,-5.441811 0.0087,-5.68937 0.195672,-5.972933 0.25646,-0.389042 0.570896,-0.553751 1.064603,-0.557664 0.676334,-0.0054 0.938778,0.249378 2.065436,2.004778 0.576828,0.898733 1.07591,1.650829 1.109071,1.671323 0.03316,0.0205 1.746605,-3.170961 3.807653,-7.092125 2.061048,-3.921165 5.08956,-9.682565 6.730026,-12.8031134 1.640425,-3.1205483 2.982624,-5.7196594 2.982624,-5.7758026 0,-0.068115 -2.304925,-0.093456 -6.92756,-0.076164 L 25.791965,2.653019 22.450081,9.0081589 C 20.612045,12.503485 16.920369,19.523985 14.246356,24.609269 l -4.8618402,9.245972 v 13.123112 c 0,7.217712 0.034045,13.122131 0.075656,13.120931 0.041611,-0.0012 0.3303174,-0.489182 0.6415702,-1.084408 z m 26.418212,-2.897982 v -1.361816 h -0.282765 c -0.744264,0 -15.886175,0.913834 -15.966718,0.963612 -0.05077,0.03138 -0.0923,0.440216 -0.0923,0.908533 v 0.851486 h 8.170894 8.170894 z m -0.453938,-3.995913 c 1.165109,-0.06479 2.131039,-0.127878 2.146513,-0.140203 0.01547,-0.01233 -2.497319,-3.921188 -5.583983,-8.68636 -3.086664,-4.765172 -6.208803,-9.586653 -6.938087,-10.714402 l -1.325971,-2.050453 -0.0262,4.800036 -0.0262,4.800037 3.959695,6.114836 3.959695,6.114836 0.858076,-0.06027 c 0.471941,-0.03315 1.811347,-0.113274 2.976456,-0.17806 z"
     id="path839"
     inkscape:connector-curvature="0" />
  <path
     style="opacity:0.97000002;fill:#1b2031;fill-opacity:0;stroke-width:1"
     d="M 0.81729155,66.784293 C 0.62705059,66.687287 0.37738438,66.479761 0.26247775,66.323124 L 0.05355657,66.03833 0.03164676,46.50114 0.00973695,26.96395 3.5712603,21.92437 c 1.9588379,-2.771769 3.6787351,-5.127091 3.8219936,-5.234049 0.3189263,-0.238113 0.9263738,-0.253332 1.3508169,-0.03384 0.6448634,0.333471 0.640445,0.290824 0.640445,6.181789 0,2.929355 0.038432,5.282975 0.085404,5.230267 0.046972,-0.05271 3.2984902,-6.224002 7.2255942,-13.713988 4.987802,-9.5130077 7.24225,-13.71698441 7.478757,-13.94600127 l 0.338567,-0.32784451 h 8.940808 8.940807 l 0.404383,0.40438281 c 0.38174,0.38173934 0.401578,0.43116392 0.35429,0.88265827 -0.04067,0.3883092 -1.485399,3.206608 -7.680411,14.9825257 -4.196676,7.977336 -7.641154,14.543892 -7.654395,14.592343 -0.02568,0.09399 0.574552,1.026788 13.24568,20.58446 4.511169,6.962913 8.352928,12.906838 8.537243,13.208722 0.391594,0.64138 0.429894,1.110186 0.130782,1.60079 -0.386382,0.633739 -0.377942,0.632878 -5.894631,0.601921 -4.882708,-0.0274 -4.988412,-0.03221 -5.267411,-0.239886 -0.156592,-0.116559 -1.215286,-1.648135 -2.352655,-3.403501 l -2.067942,-3.191576 -7.747184,-0.001 c -8.4336,-0.0011 -8.070828,0.02299 -8.535259,-0.56744 -0.201512,-0.256179 -0.210658,-0.383116 -0.210658,-2.923885 v -2.65608 l 0.303714,-0.34591 c 0.167043,-0.190252 0.406379,-0.371679 0.531861,-0.403172 0.125481,-0.0315 1.838608,-0.149907 3.806952,-0.263141 4.969272,-0.285867 6.891735,-0.406617 6.910149,-0.434024 0.04288,-0.06382 -6.933266,-10.716239 -7.017936,-10.716239 -0.05408,0 -3.020435,5.560747 -6.591903,12.357216 C 10.205305,64.41421 9.0497638,66.545482 8.7761748,66.734012 8.4495016,66.959122 8.4169674,66.96098 4.8049937,66.960825 1.5371664,66.960724 1.127664,66.942555 0.81729155,66.784293 Z M 6.7617597,43.13198 c 0,-18.191025 -0.020054,-21.177953 -0.1410384,-21.007268 -0.077571,0.109438 -1.0076721,1.424612 -2.066891,2.922609 l -1.9258526,2.723631 -0.00105,18.283637 -0.00105,18.283636 H 4.6938174 6.7617597 Z M 46.187164,64.255309 c -0.01849,-0.0456 -1.599713,-2.499931 -3.51382,-5.45406 l -3.480196,-5.371142 -0.05044,2.98085 -0.05044,2.980851 -0.320911,0.320735 c -0.264609,0.264466 -0.419463,0.328909 -0.882658,0.367321 -0.308962,0.02562 -0.561748,0.06948 -0.561748,0.09745 0,0.02798 0.598281,0.975629 1.329512,2.105889 l 1.329514,2.055017 h 3.117404 c 1.714571,0 3.102272,-0.03731 3.083778,-0.08292 z M 10.101742,59.014876 c 0.311252,-0.595226 2.904107,-5.530826 5.7619,-10.968001 2.857793,-5.437176 5.338111,-10.168191 5.511819,-10.513367 l 0.315834,-0.627594 7.06e-4,-5.677108 c 6.05e-4,-5.441811 0.0087,-5.68937 0.195672,-5.972933 0.25646,-0.389042 0.570896,-0.553751 1.064603,-0.557664 0.676334,-0.0054 0.938778,0.249378 2.065436,2.004778 0.576828,0.898733 1.07591,1.650829 1.109071,1.671323 0.03316,0.0205 1.746605,-3.170961 3.807653,-7.092125 2.061048,-3.921165 5.08956,-9.682565 6.730026,-12.8031134 1.640425,-3.1205483 2.982624,-5.7196594 2.982624,-5.7758026 0,-0.068115 -2.304925,-0.093456 -6.92756,-0.076164 L 25.791965,2.653019 22.450081,9.0081589 C 20.612045,12.503485 16.920369,19.523985 14.246356,24.609269 l -4.8618402,9.245972 v 13.123112 c 0,7.217712 0.034045,13.122131 0.075656,13.120931 0.041611,-0.0012 0.3303174,-0.489182 0.6415702,-1.084408 z m 26.418212,-2.897982 v -1.361816 h -0.282765 c -0.744264,0 -15.886175,0.913834 -15.966718,0.963612 -0.05077,0.03138 -0.0923,0.440216 -0.0923,0.908533 v 0.851486 h 8.170894 8.170894 z m -0.453938,-3.995913 c 1.165109,-0.06479 2.131039,-0.127878 2.146513,-0.140203 0.01547,-0.01233 -2.497319,-3.921188 -5.583983,-8.68636 -3.086664,-4.765172 -6.208803,-9.586653 -6.938087,-10.714402 l -1.325971,-2.050453 -0.0262,4.800036 -0.0262,4.800037 3.959695,6.114836 3.959695,6.114836 0.858076,-0.06027 c 0.471941,-0.03315 1.811347,-0.113274 2.976456,-0.17806 z"
     id="path841"
     inkscape:connector-curvature="0" />
  <path
     style="opacity:0.97000002;fill:#1b2031;fill-opacity:0;stroke-width:1"
     d="M 0.74927559,66.749045 C -0.00449091,66.331265 0.03076265,67.320543 0.02533247,46.43388 L 0.02027729,26.989575 3.4579509,22.110499 c 1.8907205,-2.683492 3.5758814,-5.021965 3.7448021,-5.196605 0.1689207,-0.174641 0.5076014,-0.357573 0.7526239,-0.406516 0.364856,-0.07288 0.5327044,-0.0111 0.9272843,0.341323 l 0.4817888,0.43031 0.07133,5.403486 0.07133,5.403484 7.275616,-13.841023 C 22.357642,3.6393184 24.141707,0.36200892 24.414988,0.22456972 c 0.274594,-0.1381004 2.352162,-0.17985058 9.030274,-0.18146979 9.169107,-0.0022232 9.32464,0.0082804 9.569454,0.64625448 0.268737,0.70031899 -0.04496,1.34964469 -7.543646,15.61478259 -4.197745,7.985585 -7.632263,14.590936 -7.632263,14.67856 0,0.08762 4.957395,7.814463 11.016434,17.170754 7.142826,11.029861 11.034919,17.166382 11.069006,17.452098 0.03772,0.316127 -0.04834,0.558026 -0.304507,0.855955 l -0.357082,0.415293 -5.034402,0.04103 c -3.57028,0.02909 -5.150204,-0.0069 -5.432586,-0.123908 -0.294908,-0.122154 -0.944187,-1.010905 -2.503357,-3.42666 l -2.105175,-3.26173 -7.748636,-0.0025 c -5.613076,-0.0018 -7.834515,-0.04826 -8.060241,-0.168479 -0.627248,-0.334075 -0.658969,-0.493711 -0.663716,-3.339986 -0.0045,-2.702443 -0.0021,-2.723586 0.343228,-3.048029 0.414892,-0.389767 0.225373,-0.368254 6.338347,-0.71949 2.618116,-0.150428 4.777165,-0.292698 4.797884,-0.316152 0.09652,-0.10926 -6.969898,-10.819209 -7.070714,-10.716458 -0.06316,0.06437 -3.032774,5.670044 -6.599147,12.457052 C 10.832605,63.179719 8.9466577,66.640193 8.7028331,66.767693 8.2067363,67.02711 1.2214163,67.010726 0.74927559,66.749038 Z M 6.7252562,43.171606 c 0,-11.664761 -0.022253,-21.181908 -0.049452,-21.149216 -0.027199,0.03269 -0.9580494,1.352246 -2.0685573,2.93234 l -2.0191052,2.872898 v 18.181211 c 0,9.999667 0.042798,18.22401 0.095106,18.276317 0.052308,0.05231 0.983159,0.09511 2.0685573,0.09511 H 6.7252562 Z M 45.928937,63.837249 C 45.74795,63.538591 44.155444,61.068119 42.390038,58.34731 l -3.209831,-4.946927 -0.0352,2.886411 c -0.02207,1.809915 -0.09569,3.002614 -0.197396,3.197985 -0.172916,0.332161 -0.665529,0.578008 -1.293627,0.645608 -0.381161,0.04102 -0.371515,0.06212 0.981295,2.145654 l 1.366239,2.104222 h 3.128241 3.128242 z M 15.61699,48.593281 l 6.016032,-11.389582 0.07138,-5.968781 0.07139,-5.968779 0.336787,-0.272557 c 0.385452,-0.311939 1.274832,-0.363636 1.621164,-0.09423 0.126083,0.09808 0.721854,0.942072 1.323934,1.875543 l 1.094687,1.697222 0.748496,-1.411903 C 29.880783,21.439127 39.679514,2.7478012 39.679514,2.6846141 c 0,-0.043157 -3.129584,-0.061807 -6.954632,-0.041445 L 25.77025,2.6801907 24.080996,5.890021 c -0.929089,1.7654067 -4.604345,8.754078 -8.167235,15.53038 l -6.4779814,12.32055 v 13.203545 c 0,7.26195 0.037165,13.166381 0.082589,13.120957 0.045424,-0.04542 2.7898034,-5.207901 6.0986214,-11.472172 z m 20.924024,7.505668 v -1.433674 l -0.82029,0.08071 c -0.45116,0.04439 -3.709138,0.240027 -7.239951,0.434743 -3.530813,0.194717 -6.82089,0.391381 -7.31128,0.437033 l -0.89162,0.083 v 0.915929 0.91593 h 8.13157 8.131571 z m -1.141273,-3.942542 c 1.294631,-0.06063 2.466219,-0.09627 2.603529,-0.07921 0.137309,0.01706 0.249653,-5.71e-4 0.249653,-0.03927 0,-0.103053 -13.562988,-21.073756 -13.788976,-21.320119 -0.160728,-0.175218 -0.191618,0.563217 -0.191618,4.580641 v 4.789532 l 3.087778,4.763533 c 1.698278,2.619944 3.497017,5.39428 3.997197,6.165193 0.84344,1.299966 0.937685,1.396156 1.29899,1.3258 0.214264,-0.04172 1.448815,-0.125466 2.743447,-0.186095 z"
     id="path843"
     inkscape:connector-curvature="0" />
  <path
     style="opacity:0.97000002;fill:#1b2031;fill-opacity:0;stroke-width:1"
     d="M 0.74927559,66.749045 C -0.00449091,66.331265 0.03076265,67.320543 0.02533247,46.43388 L 0.02027729,26.989575 3.4579509,22.110499 c 1.8907205,-2.683492 3.5758814,-5.021965 3.7448021,-5.196605 0.1689207,-0.174641 0.5076014,-0.357573 0.7526239,-0.406516 0.364856,-0.07288 0.5327044,-0.0111 0.9272843,0.341323 l 0.4817888,0.43031 0.07133,5.403486 0.07133,5.403484 7.275616,-13.841023 C 22.357642,3.6393184 24.141707,0.36200892 24.414988,0.22456972 c 0.274594,-0.1381004 2.352162,-0.17985058 9.030274,-0.18146979 9.169107,-0.0022232 9.32464,0.0082804 9.569454,0.64625448 0.268737,0.70031899 -0.04496,1.34964469 -7.543646,15.61478259 -4.197745,7.985585 -7.632263,14.590936 -7.632263,14.67856 0,0.08762 4.957395,7.814463 11.016434,17.170754 7.142826,11.029861 11.034919,17.166382 11.069006,17.452098 0.03772,0.316127 -0.04834,0.558026 -0.304507,0.855955 l -0.357082,0.415293 -5.034402,0.04103 c -3.57028,0.02909 -5.150204,-0.0069 -5.432586,-0.123908 -0.294908,-0.122154 -0.944187,-1.010905 -2.503357,-3.42666 l -2.105175,-3.26173 -7.748636,-0.0025 c -5.613076,-0.0018 -7.834515,-0.04826 -8.060241,-0.168479 -0.627248,-0.334075 -0.658969,-0.493711 -0.663716,-3.339986 -0.0045,-2.702443 -0.0021,-2.723586 0.343228,-3.048029 0.414892,-0.389767 0.225373,-0.368254 6.338347,-0.71949 2.618116,-0.150428 4.777165,-0.292698 4.797884,-0.316152 0.09652,-0.10926 -6.969898,-10.819209 -7.070714,-10.716458 -0.06316,0.06437 -3.032774,5.670044 -6.599147,12.457052 C 10.832605,63.179719 8.9466577,66.640193 8.7028331,66.767693 8.2067363,67.02711 1.2214163,67.010726 0.74927559,66.749038 Z M 6.7252562,43.171606 c 0,-11.664761 -0.022253,-21.181908 -0.049452,-21.149216 -0.027199,0.03269 -0.9580494,1.352246 -2.0685573,2.93234 l -2.0191052,2.872898 v 18.181211 c 0,9.999667 0.042798,18.22401 0.095106,18.276317 0.052308,0.05231 0.983159,0.09511 2.0685573,0.09511 H 6.7252562 Z M 45.928937,63.837249 C 45.74795,63.538591 44.155444,61.068119 42.390038,58.34731 l -3.209831,-4.946927 -0.0352,2.886411 c -0.02207,1.809915 -0.09569,3.002614 -0.197396,3.197985 -0.172916,0.332161 -0.665529,0.578008 -1.293627,0.645608 -0.381161,0.04102 -0.371515,0.06212 0.981295,2.145654 l 1.366239,2.104222 h 3.128241 3.128242 z M 15.61699,48.593281 l 6.016032,-11.389582 0.07138,-5.968781 0.07139,-5.968779 0.336787,-0.272557 c 0.385452,-0.311939 1.274832,-0.363636 1.621164,-0.09423 0.126083,0.09808 0.721854,0.942072 1.323934,1.875543 l 1.094687,1.697222 0.748496,-1.411903 C 29.880783,21.439127 39.679514,2.7478012 39.679514,2.6846141 c 0,-0.043157 -3.129584,-0.061807 -6.954632,-0.041445 L 25.77025,2.6801907 24.080996,5.890021 c -0.929089,1.7654067 -4.604345,8.754078 -8.167235,15.53038 l -6.4779814,12.32055 v 13.203545 c 0,7.26195 0.037165,13.166381 0.082589,13.120957 0.045424,-0.04542 2.7898034,-5.207901 6.0986214,-11.472172 z m 20.924024,7.505668 v -1.433674 l -0.82029,0.08071 c -0.45116,0.04439 -3.709138,0.240027 -7.239951,0.434743 -3.530813,0.194717 -6.82089,0.391381 -7.31128,0.437033 l -0.89162,0.083 v 0.915929 0.91593 h 8.13157 8.131571 z m -1.141273,-3.942542 c 1.294631,-0.06063 2.466219,-0.09627 2.603529,-0.07921 0.137309,0.01706 0.249653,-5.71e-4 0.249653,-0.03927 0,-0.103053 -13.562988,-21.073756 -13.788976,-21.320119 -0.160728,-0.175218 -0.191618,0.563217 -0.191618,4.580641 v 4.789532 l 3.087778,4.763533 c 1.698278,2.619944 3.497017,5.39428 3.997197,6.165193 0.84344,1.299966 0.937685,1.396156 1.29899,1.3258 0.214264,-0.04172 1.448815,-0.125466 2.743447,-0.186095 z"
     id="path845"
     inkscape:connector-curvature="0" />
  <path
     style="opacity:0.97000002;fill:#1b2031;fill-opacity:0;stroke-width:1"
     d="m 28.231119,46.112322 -3.95879,-6.132117 v -4.664318 c 0,-3.994123 0.02859,-4.634303 0.198951,-4.455424 0.267805,0.281189 13.663064,20.989927 13.609678,21.040225 -0.05385,0.05074 -4.780067,0.355141 -5.413195,0.34865 -0.472052,-0.0048 -0.525906,-0.07933 -4.436644,-6.137016 z"
     id="path847"
     inkscape:connector-curvature="0" />
  <path
     style="opacity:0.97000002;fill:#1b2031;fill-opacity:0;stroke-width:1"
     d="M 9.4426414,47.018621 9.4357796,33.865424 17.603015,18.31195 25.77025,2.758476 32.653552,2.754996 c 3.785817,-0.00191 6.883303,0.03313 6.883303,0.077873 0,0.1454402 -13.336431,25.453716 -13.409958,25.447807 -0.03923,-0.0032 -0.518919,-0.712028 -1.065974,-1.575278 -1.152055,-1.817938 -1.294559,-1.968668 -1.963919,-2.07729 -0.414939,-0.06733 -0.57754,-0.0091 -0.980643,0.35093 l -0.483226,0.43165 -0.04025,5.857357 -0.04025,5.857355 -5.613066,10.673056 C 12.852383,53.668637 10.129177,58.85408 9.8880009,59.321664 l -0.4385027,0.850153 z"
     id="path849"
     inkscape:connector-curvature="0" />
  <path
     style="opacity:0.97000002;fill:#1b2031;fill-opacity:0;stroke-width:1"
     d="M 9.4426414,47.018621 9.4357796,33.865424 17.603015,18.31195 25.77025,2.758476 32.653552,2.754996 c 3.785817,-0.00191 6.883303,0.03313 6.883303,0.077873 0,0.1454402 -13.336431,25.453716 -13.409958,25.447807 -0.03923,-0.0032 -0.518919,-0.712028 -1.065974,-1.575278 -1.152055,-1.817938 -1.294559,-1.968668 -1.963919,-2.07729 -0.414939,-0.06733 -0.57754,-0.0091 -0.980643,0.35093 l -0.483226,0.43165 -0.04025,5.857357 -0.04025,5.857355 -5.613066,10.673056 C 12.852383,53.668637 10.129177,58.85408 9.8880009,59.321664 l -0.4385027,0.850153 z"
     id="path851"
     inkscape:connector-curvature="0" />
  <path
     style="opacity:0.97000002;fill:#1b2031;fill-opacity:0;stroke-width:1"
     d="M 9.4426414,47.018621 9.4357796,33.865424 17.603015,18.31195 25.77025,2.758476 32.653552,2.754996 c 3.785817,-0.00191 6.883303,0.03313 6.883303,0.077873 0,0.1454402 -13.336431,25.453716 -13.409958,25.447807 -0.03923,-0.0032 -0.518919,-0.712028 -1.065974,-1.575278 -1.152055,-1.817938 -1.294559,-1.968668 -1.963919,-2.07729 -0.414939,-0.06733 -0.57754,-0.0091 -0.980643,0.35093 l -0.483226,0.43165 -0.04025,5.857357 -0.04025,5.857355 -5.613066,10.673056 C 12.852383,53.668637 10.129177,58.85408 9.8880009,59.321664 l -0.4385027,0.850153 z"
     id="path853"
     inkscape:connector-curvature="0" />
  <path
     style="opacity:0.97000002;fill:#1b2031;fill-opacity:0;stroke-width:1"
     d="M 2.7308007,45.971956 V 27.706309 l 1.8785435,-2.66958 c 1.0331989,-1.468268 1.9319514,-2.730566 1.9972277,-2.805105 0.065276,-0.07454 0.1186843,9.346313 0.1186843,20.935227 V 64.237604 H 4.7280284 2.7308007 Z"
     id="path855"
     inkscape:connector-curvature="0" />
  <path
     style="opacity:0.97000002;fill:#1b2031;fill-opacity:0;stroke-width:1"
     d="M 2.7308007,45.971956 V 27.706309 l 1.8785435,-2.66958 c 1.0331989,-1.468268 1.9319514,-2.730566 1.9972277,-2.805105 0.065276,-0.07454 0.1186843,9.346313 0.1186843,20.935227 V 64.237604 H 4.7280284 2.7308007 Z"
     id="path857"
     inkscape:connector-curvature="0" />
  <path
     style="opacity:0.97000002;fill:#1b2031;fill-opacity:0;stroke-width:1"
     d="M 2.7308007,45.971956 V 27.706309 l 1.8785435,-2.66958 c 1.0331989,-1.468268 1.9319514,-2.730566 1.9972277,-2.805105 0.065276,-0.07454 0.1186843,9.346313 0.1186843,20.935227 V 64.237604 H 4.7280284 2.7308007 Z"
     id="path859"
     inkscape:connector-curvature="0" />
  <path
     style="opacity:0.97000002;fill:#1b2031;fill-opacity:0;stroke-width:1"
     d="M 2.7308007,45.971956 V 27.706309 l 1.8785435,-2.66958 c 1.0331989,-1.468268 1.9319514,-2.730566 1.9972277,-2.805105 0.065276,-0.07454 0.1186843,9.346313 0.1186843,20.935227 V 64.237604 H 4.7280284 2.7308007 Z"
     id="path861"
     inkscape:connector-curvature="0" />
  <path
     style="opacity:0.97000002;fill:#1b2031;fill-opacity:0;stroke-width:1"
     d="M 2.7308007,45.971956 V 27.706309 l 1.8785435,-2.66958 c 1.0331989,-1.468268 1.9319514,-2.730566 1.9972277,-2.805105 0.065276,-0.07454 0.1186843,9.346313 0.1186843,20.935227 V 64.237604 H 4.7280284 2.7308007 Z"
     id="path863"
     inkscape:connector-curvature="0" />
  <path
     style="opacity:0.97000002;fill:#1b2031;fill-opacity:0;stroke-width:1"
     d="M 2.7308007,45.971956 V 27.706309 l 1.8785435,-2.66958 c 1.0331989,-1.468268 1.9319514,-2.730566 1.9972277,-2.805105 0.065276,-0.07454 0.1186843,9.346313 0.1186843,20.935227 V 64.237604 H 4.7280284 2.7308007 Z"
     id="path865"
     inkscape:connector-curvature="0" />
  <path
     style="opacity:0.97000002;fill:#1b2031;fill-opacity:0;stroke-width:1"
     d="M 0.74927559,66.749045 C -0.00449091,66.331265 0.03076265,67.320543 0.02533247,46.43388 L 0.02027729,26.989575 3.4579509,22.110499 c 1.8907205,-2.683492 3.5758814,-5.021965 3.7448021,-5.196605 0.1689207,-0.174641 0.5076014,-0.357573 0.7526239,-0.406516 0.364856,-0.07288 0.5327044,-0.0111 0.9272843,0.341323 l 0.4817888,0.43031 0.07133,5.403486 0.07133,5.403484 7.275616,-13.841023 C 22.357642,3.6393184 24.141707,0.36200892 24.414988,0.22456972 c 0.274594,-0.1381004 2.352162,-0.17985058 9.030274,-0.18146979 9.169107,-0.0022232 9.32464,0.0082804 9.569454,0.64625448 0.268737,0.70031899 -0.04496,1.34964469 -7.543646,15.61478259 -4.197745,7.985585 -7.632263,14.590936 -7.632263,14.67856 0,0.08762 4.957395,7.814463 11.016434,17.170754 7.142826,11.029861 11.034919,17.166382 11.069006,17.452098 0.03772,0.316127 -0.04834,0.558026 -0.304507,0.855955 l -0.357082,0.415293 -5.034402,0.04103 c -3.57028,0.02909 -5.150204,-0.0069 -5.432586,-0.123908 -0.294908,-0.122154 -0.944187,-1.010905 -2.503357,-3.42666 l -2.105175,-3.26173 -7.748636,-0.0025 c -5.613076,-0.0018 -7.834515,-0.04826 -8.060241,-0.168479 -0.627248,-0.334075 -0.658969,-0.493711 -0.663716,-3.339986 -0.0045,-2.702443 -0.0021,-2.723586 0.343228,-3.048029 0.414892,-0.389767 0.225373,-0.368254 6.338347,-0.71949 2.618116,-0.150428 4.777165,-0.292698 4.797884,-0.316152 0.09652,-0.10926 -6.969898,-10.819209 -7.070714,-10.716458 -0.06316,0.06437 -3.032774,5.670044 -6.599147,12.457052 C 10.832605,63.179719 8.9466577,66.640193 8.7028331,66.767693 8.2067363,67.02711 1.2214163,67.010726 0.74927559,66.749038 Z M 6.7252562,43.171606 c 0,-11.664761 -0.022253,-21.181908 -0.049452,-21.149216 -0.027199,0.03269 -0.9580494,1.352246 -2.0685573,2.93234 l -2.0191052,2.872898 v 18.181211 c 0,9.999667 0.042798,18.22401 0.095106,18.276317 0.052308,0.05231 0.983159,0.09511 2.0685573,0.09511 H 6.7252562 Z M 45.928937,63.837249 C 45.74795,63.538591 44.155444,61.068119 42.390038,58.34731 l -3.209831,-4.946927 -0.0352,2.886411 c -0.02207,1.809915 -0.09569,3.002614 -0.197396,3.197985 -0.172916,0.332161 -0.665529,0.578008 -1.293627,0.645608 -0.381161,0.04102 -0.371515,0.06212 0.981295,2.145654 l 1.366239,2.104222 h 3.128241 3.128242 z M 15.61699,48.593281 l 6.016032,-11.389582 0.07138,-5.968781 0.07139,-5.968779 0.336787,-0.272557 c 0.385452,-0.311939 1.274832,-0.363636 1.621164,-0.09423 0.126083,0.09808 0.721854,0.942072 1.323934,1.875543 l 1.094687,1.697222 0.748496,-1.411903 C 29.880783,21.439127 39.679514,2.7478012 39.679514,2.6846141 c 0,-0.043157 -3.129584,-0.061807 -6.954632,-0.041445 L 25.77025,2.6801907 24.080996,5.890021 c -0.929089,1.7654067 -4.604345,8.754078 -8.167235,15.53038 l -6.4779814,12.32055 v 13.203545 c 0,7.26195 0.037165,13.166381 0.082589,13.120957 0.045424,-0.04542 2.7898034,-5.207901 6.0986214,-11.472172 z m 20.924024,7.505668 v -1.433674 l -0.82029,0.08071 c -0.45116,0.04439 -3.709138,0.240027 -7.239951,0.434743 -3.530813,0.194717 -6.82089,0.391381 -7.31128,0.437033 l -0.89162,0.083 v 0.915929 0.91593 h 8.13157 8.131571 z m -1.141273,-3.942542 c 1.294631,-0.06063 2.466219,-0.09627 2.603529,-0.07921 0.137309,0.01706 0.249653,-5.71e-4 0.249653,-0.03927 0,-0.103053 -13.562988,-21.073756 -13.788976,-21.320119 -0.160728,-0.175218 -0.191618,0.563217 -0.191618,4.580641 v 4.789532 l 3.087778,4.763533 c 1.698278,2.619944 3.497017,5.39428 3.997197,6.165193 0.84344,1.299966 0.937685,1.396156 1.29899,1.3258 0.214264,-0.04172 1.448815,-0.125466 2.743447,-0.186095 z"
     id="path867"
     inkscape:connector-curvature="0" />
  <use
     id="use869"
     inkscape:spray-origin="#path867"
     xlink:href="#path867"
     x="0"
     y="0"
     width="100%"
     height="100%"
     transform="translate(-12.379808,8.4761098)" />
  <use
     id="use871"
     inkscape:spray-origin="#path867"
     xlink:href="#path867"
     x="0"
     y="0"
     width="100%"
     height="100%"
     transform="translate(-14.244531,6.9244414)" />
  <use
     id="use873"
     inkscape:spray-origin="#path867"
     xlink:href="#path867"
     x="0"
     y="0"
     width="100%"
     height="100%"
     transform="translate(-9.519363,5.3643502)" />
  <use
     id="use875"
     inkscape:spray-origin="#path867"
     xlink:href="#path867"
     x="0"
     y="0"
     width="100%"
     height="100%"
     transform="translate(-11.89095,8.0641366)" />
  <use
     id="use877"
     inkscape:spray-origin="#path867"
     xlink:href="#path867"
     x="0"
     y="0"
     width="100%"
     height="100%"
     transform="translate(-10.61832,7.3169302)" />
  <use
     id="use879"
     inkscape:spray-origin="#path867"
     xlink:href="#path867"
     x="0"
     y="0"
     width="100%"
     height="100%"
     transform="translate(-9.1957846,9.0978291)" />
  <use
     id="use881"
     inkscape:spray-origin="#path867"
     xlink:href="#path867"
     x="0"
     y="0"
     width="100%"
     height="100%"
     transform="translate(-5.4379936,7.2716384)" />
  <use
     id="use883"
     inkscape:spray-origin="#path867"
     xlink:href="#path867"
     x="0"
     y="0"
     width="100%"
     height="100%"
     transform="translate(-8.0629476,8.3455133)" />
  <use
     id="use885"
     inkscape:spray-origin="#path867"
     xlink:href="#path867"
     x="0"
     y="0"
     width="100%"
     height="100%"
     transform="translate(-9.2648156,1.4221914)" />
  <use
     id="use887"
     inkscape:spray-origin="#path867"
     xlink:href="#path867"
     x="0"
     y="0"
     width="100%"
     height="100%"
     transform="translate(-5.8161861,2.6999914)" />
  <use
     id="use889"
     inkscape:spray-origin="#path867"
     xlink:href="#path867"
     x="0"
     y="0"
     width="100%"
     height="100%"
     transform="translate(-9.4040709,3.47753)" />
  <use
     id="use891"
     inkscape:spray-origin="#path867"
     xlink:href="#path867"
     x="0"
     y="0"
     width="100%"
     height="100%"
     transform="translate(-7.393506,-1.0228243)" />
  <use
     id="use893"
     inkscape:spray-origin="#path867"
     xlink:href="#path867"
     x="0"
     y="0"
     width="100%"
     height="100%"
     transform="translate(-6.5890649,-0.54682426)" />
  <use
     id="use895"
     inkscape:spray-origin="#path867"
     xlink:href="#path867"
     x="0"
     y="0"
     width="100%"
     height="100%"
     transform="translate(-4.8407843,4.148238)" />
  <use
     id="use897"
     inkscape:spray-origin="#path867"
     xlink:href="#path867"
     x="0"
     y="0"
     width="100%"
     height="100%"
     transform="translate(-6.1474079,-4.7190252)" />
  <use
     id="use899"
     inkscape:spray-origin="#path867"
     xlink:href="#path867"
     x="0"
     y="0"
     width="100%"
     height="100%"
     transform="translate(-2.1289737,0.9117421)" />
  <use
     id="use901"
     inkscape:spray-origin="#path867"
     xlink:href="#path867"
     x="0"
     y="0"
     width="100%"
     height="100%"
     transform="translate(-3.1407197,-8.314055)" />
  <use
     id="use903"
     inkscape:spray-origin="#path867"
     xlink:href="#path867"
     x="0"
     y="0"
     width="100%"
     height="100%"
     transform="translate(-3.9418351,-2.3146891)" />
  <use
     id="use905"
     inkscape:spray-origin="#path867"
     xlink:href="#path867"
     x="0"
     y="0"
     width="100%"
     height="100%"
     transform="translate(-4.5296825,-3.2289907)" />
  <use
     id="use907"
     inkscape:spray-origin="#path867"
     xlink:href="#path867"
     x="0"
     y="0"
     width="100%"
     height="100%"
     transform="translate(-2.2021784,-4.9279129)" />
  <use
     id="use909"
     inkscape:spray-origin="#path867"
     xlink:href="#path867"
     x="0"
     y="0"
     width="100%"
     height="100%"
     transform="translate(1.8013025,-8.1456818)" />
  <use
     id="use911"
     inkscape:spray-origin="#path867"
     xlink:href="#path867"
     x="0"
     y="0"
     width="100%"
     height="100%"
     transform="translate(-0.60079968,-12.420248)" />
  <use
     id="use913"
     inkscape:spray-origin="#path867"
     xlink:href="#path867"
     x="0"
     y="0"
     width="100%"
     height="100%"
     transform="translate(-2.6364211,-11.668637)" />
  <use
     id="use915"
     inkscape:spray-origin="#path867"
     xlink:href="#path867"
     x="0"
     y="0"
     width="100%"
     height="100%"
     transform="translate(1.5967185,-13.314295)" />
  <use
     id="use917"
     inkscape:spray-origin="#path867"
     xlink:href="#path867"
     x="0"
     y="0"
     width="100%"
     height="100%"
     transform="translate(1.9339771,-10.257199)" />
  <use
     id="use919"
     inkscape:spray-origin="#path867"
     xlink:href="#path867"
     x="0"
     y="0"
     width="100%"
     height="100%"
     transform="translate(-1.7945051,-7.5783903)" />
  <use
     id="use921"
     inkscape:spray-origin="#path867"
     xlink:href="#path867"
     x="0"
     y="0"
     width="100%"
     height="100%"
     transform="translate(2.622245,-5.4051379)" />
  <use
     id="use923"
     inkscape:spray-origin="#path867"
     xlink:href="#path867"
     x="0"
     y="0"
     width="100%"
     height="100%"
     transform="translate(0.51140498,-5.8589387)" />
  <use
     id="use925"
     inkscape:spray-origin="#path867"
     xlink:href="#path867"
     x="0"
     y="0"
     width="100%"
     height="100%"
     transform="translate(-2.1619259,-2.740045)" />
  <use
     id="use927"
     inkscape:spray-origin="#path867"
     xlink:href="#path867"
     x="0"
     y="0"
     width="100%"
     height="100%"
     transform="translate(-3.4837426,-2.9977693)" />
  <use
     id="use929"
     inkscape:spray-origin="#path867"
     xlink:href="#path867"
     x="0"
     y="0"
     width="100%"
     height="100%"
     transform="translate(-5.5989561,-4.8462028)" />
  <use
     id="use931"
     inkscape:spray-origin="#path867"
     xlink:href="#path867"
     x="0"
     y="0"
     width="100%"
     height="100%"
     transform="translate(-4.6045988,-3.231312)" />
  <use
     id="use933"
     inkscape:spray-origin="#path867"
     xlink:href="#path867"
     x="0"
     y="0"
     width="100%"
     height="100%"
     transform="translate(-5.4060041,-3.0363906)" />
  <use
     id="use935"
     inkscape:spray-origin="#path867"
     xlink:href="#path867"
     x="0"
     y="0"
     width="100%"
     height="100%"
     transform="translate(-2.3956055,-6.0154516)" />
  <use
     id="use937"
     inkscape:spray-origin="#path867"
     xlink:href="#path867"
     x="0"
     y="0"
     width="100%"
     height="100%"
     transform="translate(-7.9728964,-5.5416955)" />
  <use
     id="use939"
     inkscape:spray-origin="#path867"
     xlink:href="#path867"
     x="0"
     y="0"
     width="100%"
     height="100%"
     transform="translate(-12.027007,-0.00900535)" />
  <use
     id="use941"
     inkscape:spray-origin="#path867"
     xlink:href="#path867"
     x="0"
     y="0"
     width="100%"
     height="100%"
     transform="translate(-9.0710591,-0.68251512)" />
  <use
     id="use943"
     inkscape:spray-origin="#path867"
     xlink:href="#path867"
     x="0"
     y="0"
     width="100%"
     height="100%"
     transform="translate(-6.264121,1.627242)" />
  <use
     id="use945"
     inkscape:spray-origin="#path867"
     xlink:href="#path867"
     x="0"
     y="0"
     width="100%"
     height="100%"
     transform="translate(-10.777472,1.9785572)" />
  <use
     id="use947"
     inkscape:spray-origin="#path867"
     xlink:href="#path867"
     x="0"
     y="0"
     width="100%"
     height="100%"
     transform="translate(-10.036236,-6.1239694)" />
  <use
     id="use949"
     inkscape:spray-origin="#path867"
     xlink:href="#path867"
     x="0"
     y="0"
     width="100%"
     height="100%"
     transform="translate(-10.684842,-3.0839318)" />
  <use
     id="use951"
     inkscape:spray-origin="#path867"
     xlink:href="#path867"
     x="0"
     y="0"
     width="100%"
     height="100%"
     transform="translate(-10.435485,3.4890743)" />
  <use
     id="use953"
     inkscape:spray-origin="#path867"
     xlink:href="#path867"
     x="0"
     y="0"
     width="100%"
     height="100%"
     transform="translate(-10.141253,4.0226875)" />
  <use
     id="use955"
     inkscape:spray-origin="#path867"
     xlink:href="#path867"
     x="0"
     y="0"
     width="100%"
     height="100%"
     transform="translate(-12.372954,-0.21483475)" />
  <use
     id="use957"
     inkscape:spray-origin="#path867"
     xlink:href="#path867"
     x="0"
     y="0"
     width="100%"
     height="100%"
     transform="translate(-11.264792,1.9031296)" />
  <use
     id="use959"
     inkscape:spray-origin="#path867"
     xlink:href="#path867"
     x="0"
     y="0"
     width="100%"
     height="100%"
     transform="translate(-7.3685802,4.159426)" />
  <use
     id="use961"
     inkscape:spray-origin="#path867"
     xlink:href="#path867"
     x="0"
     y="0"
     width="100%"
     height="100%"
     transform="translate(-8.3536871,6.4388821)" />
  <use
     id="use963"
     inkscape:spray-origin="#path867"
     xlink:href="#path867"
     x="0"
     y="0"
     width="100%"
     height="100%"
     transform="translate(-12.85299,10.056473)" />
  <use
     id="use965"
     inkscape:spray-origin="#path867"
     xlink:href="#path867"
     x="0"
     y="0"
     width="100%"
     height="100%"
     transform="translate(-13.1047,11.574546)" />
  <use
     id="use967"
     inkscape:spray-origin="#path867"
     xlink:href="#path867"
     x="0"
     y="0"
     width="100%"
     height="100%"
     transform="translate(-7.9165728,5.8413731)" />
  <use
     id="use969"
     inkscape:spray-origin="#path867"
     xlink:href="#path867"
     x="0"
     y="0"
     width="100%"
     height="100%"
     transform="translate(-12.856857,9.4820419)" />
  <use
     id="use971"
     inkscape:spray-origin="#path867"
     xlink:href="#path867"
     x="0"
     y="0"
     width="100%"
     height="100%"
     transform="translate(-11.003288,9.6738758)" />
  <use
     id="use973"
     inkscape:spray-origin="#path867"
     xlink:href="#path867"
     x="0"
     y="0"
     width="100%"
     height="100%"
     transform="translate(-15.369577,7.1645874)" />
  <use
     id="use975"
     inkscape:spray-origin="#path867"
     xlink:href="#path867"
     x="0"
     y="0"
     width="100%"
     height="100%"
     transform="translate(-14.259378,5.5276186)" />
  <use
     id="use977"
     inkscape:spray-origin="#path867"
     xlink:href="#path867"
     x="0"
     y="0"
     width="100%"
     height="100%"
     transform="translate(-4.4798023,1.7726159)" />
</svg>
